M48
; DRILL file {KiCad 7.0.9-7.0.9~ubuntu22.04.1} date 19.07.2024 (пт) 15:24:26
; FORMAT={-:-/ absolute / metric / decimal}
; #@! TF.CreationDate,2024-07-19T15:24:26+03:00
; #@! TF.GenerationSoftware,Kicad,Pcbnew,7.0.9-7.0.9~ubuntu22.04.1
; #@! TF.FileFunction,Plated,1,4,PTH
FMAT,2
METRIC
; #@! TA.AperFunction,Plated,PTH,ViaDrill
T1C0.400
; #@! TA.AperFunction,Plated,PTH,ViaDrill
T2C0.600
; #@! TA.AperFunction,Plated,PTH,ComponentDrill
T3C0.600
; #@! TA.AperFunction,Plated,PTH,ComponentDrill
T4C0.800
; #@! TA.AperFunction,Plated,PTH,ComponentDrill
T5C0.900
; #@! TA.AperFunction,Plated,PTH,ComponentDrill
T6C1.000
; #@! TA.AperFunction,Plated,PTH,ComponentDrill
T7C1.200
; #@! TA.AperFunction,Plated,PTH,ComponentDrill
T8C1.600
; #@! TA.AperFunction,Plated,PTH,ComponentDrill
T9C2.400
%
G90
G05
T1
X8.237Y14.764
X8.242Y15.785
X8.618Y53.372
X8.694Y12.605
X12.301Y32.544
X13.19Y4.223
X17.254Y30.004
X17.254Y23.273
X17.254Y22.003
X19.794Y1.175
X21.953Y11.335
X23.34Y21.912
X23.34Y20.884
X25.128Y24.67
X25.128Y4.096
X25.134Y1.804
X25.68Y48.292
X26.988Y48.292
X27.916Y21.47
X28.049Y57.563
X28.348Y49.579
X28.43Y18.712
X28.43Y17.684
X28.944Y21.47
X29.107Y16.152
X29.107Y15.124
X29.446Y57.563
X29.655Y49.579
X29.954Y4.477
X30.208Y11.843
X30.716Y3.461
X30.97Y57.563
X31.014Y49.689
X32.147Y17.432
X32.147Y16.404
X32.24Y49.689
X32.494Y57.563
X32.621Y58.833
X33.002Y11.843
X33.764Y49.689
X33.891Y59.214
X34.989Y49.689
X35.034Y58.579
X35.034Y3.842
X35.034Y1.556
X35.796Y57.557
X36.939Y57.182
X37.447Y55.023
X43.797Y46.768
X44.051Y35.611
X44.051Y34.303
X44.305Y50.832
X44.432Y27.864
X44.432Y26.556
X45.175Y37.878
X45.829Y25.813
X46.483Y37.878
X47.08Y26.575
X48.388Y26.575
X48.496Y47.657
X48.623Y30.131
X48.75Y32.925
X49.131Y49.435
X49.893Y30.131
X50.274Y46.895
X50.401Y22.257
X50.909Y34.83
X51.29Y30.131
X51.544Y39.783
X51.544Y38.64
X52.046Y27.577
X52.179Y40.799
X52.56Y49.435
X52.687Y30.131
X52.941Y43.339
X53.322Y40.418
X53.576Y38.64
X53.703Y26.321
X53.703Y22.638
X53.957Y44.228
X54.084Y36.989
X54.465Y39.529
X54.592Y38.005
X54.719Y20.86
X55.545Y8.033
X56.751Y3.969
X57.386Y26.956
X58.021Y20.479
X58.529Y26.956
X58.783Y49.435
X61.069Y46.895
X64.244Y40.799
X64.498Y18.828
X65.133Y37.116
X65.514Y26.321
X66.276Y37.751
X66.403Y32.671
X67.165Y36.989
X67.228Y39.719
X67.292Y31.655
X68.308Y38.767
X68.816Y14.51
X68.816Y11.97
X74.023Y17.177
X74.15Y15.78
X74.277Y44.482
X74.277Y41.942
X74.277Y39.402
X74.277Y37.37
X74.277Y33.941
X74.404Y11.97
X74.531Y19.082
T2
X4.935Y14.256
X5.316Y53.626
X8.999Y23.654
X10.777Y61.5
X11.031Y23.908
X11.285Y1.048
X11.539Y63.532
X11.92Y17.558
X12.301Y23.908
X12.682Y54.134
X12.809Y30.258
X13.317Y17.558
X13.698Y60.357
X13.698Y22.384
X14.333Y27.21
X14.46Y63.532
X14.714Y17.558
X15.476Y36.1
X15.476Y1.175
X15.603Y52.102
X15.857Y45.371
X16.492Y17.558
X16.746Y13.875
X16.873Y52.102
X17.254Y25.94
X17.254Y24.67
X17.889Y17.558
X18.016Y13.875
X18.397Y1.175
X19.286Y17.685
X19.54Y18.828
X22.715Y50.451
X22.715Y49.181
X23.096Y46.26
X23.731Y28.988
X23.731Y27.845
X23.731Y26.702
X23.985Y50.451
X23.985Y49.181
X25.001Y46.26
X25.763Y43.72
X26.525Y42.704
X26.779Y44.609
X27.922Y10.573
X27.922Y9.43
X28.303Y30.385
X28.303Y29.115
X28.938Y11.83
X29.065Y44.609
X29.192Y10.573
X29.192Y9.43
X29.573Y30.385
X29.573Y29.115
X31.097Y34.322
X31.224Y43.847
X31.224Y42.577
X31.224Y39.275
X31.859Y12.478
X32.113Y10.827
X32.142Y9.655
X32.367Y34.322
X32.494Y43.847
X32.494Y42.577
X32.494Y39.275
X32.875Y19.082
X33.256Y7.271
X33.256Y6.128
X33.891Y26.956
X35.034Y22.511
X36.304Y22.511
X36.812Y31.274
X36.812Y19.844
X37.32Y11.589
X38.082Y16.542
X38.463Y11.843
X38.59Y31.02
X38.717Y26.194
X38.971Y28.988
X39.098Y15.526
X39.479Y51.34
X42.527Y37.116
X42.527Y25.94
X43.797Y49.435
X45.702Y47.149
X46.972Y47.149
X46.972Y22.511
X47.099Y20.987
X51.671Y42.958
X53.195Y41.815
X55.354Y42.45
X55.989Y2.064
X56.37Y22.257
X58.021Y22.892
X58.402Y40.291
X58.656Y2.064
X59.418Y23.019
X59.799Y2.064
X59.926Y25.178
X61.069Y33.687
X61.069Y13.113
X61.069Y11.843
X61.323Y15.907
X61.958Y40.291
X61.958Y31.147
X61.958Y29.623
X62.72Y46.895
X62.847Y9.938
X63.482Y3.969
X63.482Y2.699
X63.736Y33.687
X63.99Y46.895
X64.117Y24.162
X65.514Y47.022
X66.784Y47.022
X68.054Y47.022
X69.451Y24.289
X69.832Y52.102
X69.832Y50.832
X70.721Y24.289
X71.102Y52.102
X71.102Y50.832
X74.023Y53.372
X74.023Y25.559
X74.023Y24.289
X77.071Y52.61
X77.071Y51.213
X77.071Y48.292
T3
X49.73Y33.7
X49.8Y31.3
X52.2Y33.7
X52.2Y31.3
T5
X4.286Y28.029
X4.288Y25.999
T6
X12.5Y8.62
X12.5Y6.0
X15.0Y8.62
X15.0Y6.0
X17.0Y8.62
X17.0Y6.0
X19.5Y8.62
X19.5Y6.0
X38.468Y39.75
X40.5Y8.62
X40.5Y6.0
X41.008Y39.75
X42.5Y60.0
X43.0Y8.62
X43.0Y6.0
X43.548Y39.75
X45.0Y8.62
X45.0Y6.0
X46.5Y60.0
X47.5Y8.62
X47.5Y6.0
X66.0Y60.0
X70.0Y60.0
X70.5Y1.5
T7
X51.0Y32.5
T8
X1.8Y51.65
X1.8Y38.35
X11.0Y49.8
X11.0Y45.0
X11.0Y40.2
T9
X9.43Y9.0
X9.43Y3.3
X22.57Y9.0
X22.57Y3.3
X37.43Y9.0
X37.43Y3.3
X50.57Y9.0
X50.57Y3.3
T4
G00X2.15Y19.32
M15
G01X1.55Y19.32
M16
G05
G00X2.15Y10.68
M15
G01X1.55Y10.68
M16
G05
G00X6.48Y19.32
M15
G01X5.58Y19.32
M16
G05
G00X6.48Y10.68
M15
G01X5.58Y10.68
M16
G05
G00X8.68Y63.1
M15
G01X8.68Y63.7
M16
G05
G00X8.68Y58.77
M15
G01X8.68Y59.67
M16
G05
G00X17.32Y63.1
M15
G01X17.32Y63.7
M16
G05
G00X17.32Y58.77
M15
G01X17.32Y59.67
M16
G05
G00X24.7Y63.45
M15
G01X24.7Y62.45
M16
G05
G00X24.7Y57.6
M15
G01X24.7Y56.2
M16
G05
G00X39.3Y63.45
M15
G01X39.3Y62.45
M16
G05
G00X39.3Y57.6
M15
G01X39.3Y56.2
M16
G05
T0
M30
