%TF.GenerationSoftware,KiCad,Pcbnew,7.0.9-7.0.9~ubuntu22.04.1*%
%TF.CreationDate,2024-07-19T15:24:13+03:00*%
%TF.ProjectId,RP2040pc_Rev_B,52503230-3430-4706-935f-5265765f422e,B*%
%TF.SameCoordinates,PX68e7780PY7735940*%
%TF.FileFunction,Paste,Top*%
%TF.FilePolarity,Positive*%
%FSLAX46Y46*%
G04 Gerber Fmt 4.6, Leading zero omitted, Abs format (unit mm)*
G04 Created by KiCad (PCBNEW 7.0.9-7.0.9~ubuntu22.04.1) date 2024-07-19 15:24:13*
%MOMM*%
%LPD*%
G01*
G04 APERTURE LIST*
G04 Aperture macros list*
%AMOutline4P*
0 Free polygon, 4 corners , with rotation*
0 The origin of the aperture is its center*
0 number of corners: always 4*
0 $1 to $8 corner X, Y*
0 $9 Rotation angle, in degrees counterclockwise*
0 create outline with 4 corners*
4,1,4,$1,$2,$3,$4,$5,$6,$7,$8,$1,$2,$9*%
G04 Aperture macros list end*
%ADD10R,0.550000X0.500000*%
%ADD11R,0.500000X0.550000*%
%ADD12C,1.000000*%
%ADD13R,1.016000X1.016000*%
%ADD14R,3.550000X2.850000*%
%ADD15R,3.550000X2.450000*%
%ADD16R,3.000000X2.500000*%
%ADD17R,3.000000X2.100000*%
%ADD18R,1.000000X1.400000*%
%ADD19R,1.200000X1.400000*%
%ADD20R,0.600000X2.200000*%
%ADD21R,0.886000X0.211000*%
%ADD22R,0.211000X0.886000*%
%ADD23R,0.800000X1.700000*%
%ADD24R,0.949200X0.800000*%
%ADD25R,1.800000X1.900000*%
%ADD26R,1.778000X1.524000*%
%ADD27R,2.400000X2.800000*%
%ADD28R,2.400000X3.200000*%
%ADD29R,0.230000X1.580000*%
%ADD30R,0.800000X0.800000*%
%ADD31R,0.230000X0.750000*%
%ADD32R,1.524000X1.270000*%
%ADD33Outline4P,-0.850000X-2.125000X0.850000X-2.125000X0.850000X2.125000X-0.850000X2.125000X270.000000*%
%ADD34R,1.270000X1.524000*%
%ADD35R,0.550000X1.200000*%
%ADD36R,2.000000X1.700000*%
%ADD37Outline4P,-0.850000X-2.275000X0.850000X-2.275000X0.850000X2.275000X-0.850000X2.275000X270.000000*%
%ADD38R,1.400000X1.000000*%
%ADD39R,1.500000X0.320000*%
%ADD40R,1.700000X2.000000*%
%ADD41R,1.400000X1.900000*%
%ADD42R,1.200000X0.550000*%
%ADD43R,3.200000X2.100000*%
%ADD44R,2.200000X1.100000*%
%ADD45R,2.000000X1.100000*%
%ADD46R,1.130000X0.280000*%
%ADD47R,1.130000X0.230000*%
%ADD48R,2.100000X3.200000*%
%ADD49R,2.100000X3.000000*%
%ADD50R,1.100000X2.200000*%
%ADD51R,1.100000X2.000000*%
%ADD52R,0.280000X1.130000*%
%ADD53R,0.230000X1.130000*%
%ADD54R,3.200000X6.000000*%
%ADD55R,3.900000X1.900000*%
%ADD56R,3.900000X1.400000*%
%ADD57R,1.600000X3.000000*%
G04 APERTURE END LIST*
D10*
X49766000Y23019000D03*
X49766000Y24035000D03*
D11*
X48115000Y23654000D03*
X47099000Y23654000D03*
D10*
X51925000Y47911000D03*
X51925000Y48927000D03*
X50655000Y47911000D03*
X50655000Y48927000D03*
D12*
X1500000Y58500000D03*
D13*
X54719000Y47530000D03*
X54719000Y49308000D03*
D10*
X53195000Y47911000D03*
X53195000Y48927000D03*
D14*
X61650000Y61700000D03*
D15*
X50850000Y59400000D03*
X61650000Y58600000D03*
X61650000Y55500000D03*
D14*
X50850000Y55200000D03*
D16*
X50950000Y55200000D03*
X61550000Y61700000D03*
D17*
X61550000Y55500000D03*
X61550000Y58600000D03*
X50950000Y59400000D03*
D11*
X41257000Y52229000D03*
X42273000Y52229000D03*
D18*
X41577040Y48200560D03*
X43479500Y48200560D03*
X42524460Y50410360D03*
D10*
X62466000Y32417000D03*
X62466000Y33433000D03*
D11*
X41130000Y26448000D03*
X40114000Y26448000D03*
D10*
X55481000Y40418000D03*
X55481000Y41434000D03*
X49639000Y40418000D03*
X49639000Y41434000D03*
D11*
X41130000Y30131000D03*
X40114000Y30131000D03*
X48115000Y25051000D03*
X47099000Y25051000D03*
D10*
X54846000Y24035000D03*
X54846000Y23019000D03*
D11*
X59672000Y31655000D03*
X60688000Y31655000D03*
X59672000Y30639000D03*
X60688000Y30639000D03*
D10*
X55862000Y24035000D03*
X55862000Y23019000D03*
X56878000Y24035000D03*
X56878000Y23019000D03*
X59037000Y24924000D03*
X59037000Y23908000D03*
D11*
X59672000Y32671000D03*
X60688000Y32671000D03*
X41130000Y31782000D03*
X40114000Y31782000D03*
X40114000Y37370000D03*
X41130000Y37370000D03*
D19*
X41422000Y33476000D03*
X39822000Y35676000D03*
X39822000Y33476000D03*
X41422000Y35676000D03*
D11*
X63228000Y45752000D03*
X62212000Y45752000D03*
X40114000Y25305000D03*
X41130000Y25305000D03*
X42908000Y32417000D03*
X43924000Y32417000D03*
D10*
X57386000Y27845000D03*
X57386000Y28861000D03*
X58529000Y27845000D03*
X58529000Y28861000D03*
D11*
X62212000Y44736000D03*
X63228000Y44736000D03*
D20*
X62085000Y42235000D03*
X60815000Y42235000D03*
X59545000Y42235000D03*
X58275000Y42235000D03*
X58275000Y35765000D03*
X59545000Y35765000D03*
X60815000Y35765000D03*
X62085000Y35765000D03*
D21*
X54437500Y29900000D03*
X54437500Y30300000D03*
X54437500Y30700000D03*
X54437500Y31100000D03*
X54437500Y31500000D03*
X54437500Y31900000D03*
X54437500Y32300000D03*
X54437500Y32700000D03*
X54437500Y33100000D03*
X54437500Y33500000D03*
X54437500Y33900000D03*
X54437500Y34300000D03*
X54437500Y34700000D03*
X54437500Y35100000D03*
D22*
X53600000Y29062500D03*
X53600000Y35937500D03*
X53200000Y29062500D03*
X53200000Y35937500D03*
X52800000Y29062500D03*
X52800000Y35937500D03*
X52400000Y29062500D03*
X52400000Y35937500D03*
D23*
X52193800Y32500000D03*
D22*
X52000000Y29062500D03*
X52000000Y35937500D03*
X51600000Y29062500D03*
X51600000Y35937500D03*
X51200000Y29062500D03*
X51200000Y35937500D03*
D24*
X51000000Y31306200D03*
X51000000Y33693800D03*
D22*
X50800000Y29062500D03*
X50800000Y35937500D03*
X50400000Y29062500D03*
X50400000Y35937500D03*
X50000000Y29062500D03*
X50000000Y35937500D03*
D23*
X49806200Y32500000D03*
D22*
X49600000Y29062500D03*
X49600000Y35937500D03*
X49200000Y29062500D03*
X49200000Y35937500D03*
X48800000Y29062500D03*
X48800000Y35937500D03*
X48400000Y29062500D03*
X48400000Y35937500D03*
D21*
X47562500Y29900000D03*
X47562500Y30300000D03*
X47562500Y30700000D03*
X47562500Y31100000D03*
X47562500Y31500000D03*
X47562500Y31900000D03*
X47562500Y32300000D03*
X47562500Y32700000D03*
X47562500Y33100000D03*
X47562500Y33500000D03*
X47562500Y33900000D03*
X47562500Y34300000D03*
X47562500Y34700000D03*
X47562500Y35100000D03*
D10*
X34907000Y50451000D03*
X34907000Y51467000D03*
X31097000Y50451000D03*
X31097000Y51467000D03*
X26906000Y50451000D03*
X26906000Y51467000D03*
X25763000Y50451000D03*
X25763000Y51467000D03*
D12*
X78500000Y58500000D03*
D25*
X65700000Y18100000D03*
X61300000Y18100000D03*
X65700000Y9900000D03*
X61300000Y9900000D03*
D26*
X46083000Y48673000D03*
X46083000Y51467000D03*
D27*
X24150000Y62950000D03*
D28*
X24150000Y56900000D03*
D27*
X39850000Y62950000D03*
D28*
X39850000Y56900000D03*
D29*
X27500000Y55950000D03*
X28000000Y55950000D03*
X28500000Y55950000D03*
X29000000Y55950000D03*
X29500000Y55950000D03*
X30000000Y55950000D03*
X30500000Y55950000D03*
X31000000Y55950000D03*
X31500000Y55950000D03*
X32000000Y55950000D03*
X32500000Y55950000D03*
X33000000Y55950000D03*
X33500000Y55950000D03*
X34000000Y55950000D03*
X34500000Y55950000D03*
X35000000Y55950000D03*
X35500000Y55950000D03*
X36000000Y55950000D03*
X36500000Y55950000D03*
D10*
X29573000Y50451000D03*
X29573000Y51467000D03*
X28430000Y50451000D03*
X28430000Y51467000D03*
X32240000Y50451000D03*
X32240000Y51467000D03*
X33764000Y50451000D03*
X33764000Y51467000D03*
D11*
X41130000Y29115000D03*
X40114000Y29115000D03*
D12*
X1500000Y6500000D03*
D18*
X46332000Y54007000D03*
X42532000Y54007000D03*
D13*
X26779000Y29115000D03*
X26779000Y27337000D03*
D11*
X26779000Y46260000D03*
X25763000Y46260000D03*
D30*
X34018000Y2191000D03*
X32494000Y2191000D03*
D11*
X3411000Y33306000D03*
X4427000Y33306000D03*
D31*
X21580000Y27197000D03*
X22080000Y27197000D03*
X22580000Y27197000D03*
X21580000Y28747000D03*
X22080000Y28747000D03*
X22580000Y28747000D03*
D11*
X62466000Y52356000D03*
X63482000Y52356000D03*
X33256000Y21622000D03*
X34272000Y21622000D03*
D10*
X60688000Y47911000D03*
X60688000Y48927000D03*
X55989000Y3969000D03*
X55989000Y2953000D03*
D32*
X15349000Y16034000D03*
X15349000Y14002000D03*
X13063000Y16034000D03*
X13063000Y14002000D03*
D10*
X44940000Y45117000D03*
X44940000Y46133000D03*
D33*
X77125000Y49620000D03*
X70875000Y49620000D03*
X77125000Y47080000D03*
X70875000Y47080000D03*
X77125000Y44540000D03*
X70875000Y44540000D03*
X77125000Y42000000D03*
X70875000Y42000000D03*
X77125000Y39460000D03*
X70875000Y39460000D03*
X77125000Y36920000D03*
X70875000Y36920000D03*
X77125000Y34380000D03*
X70875000Y34380000D03*
D34*
X28131000Y8160000D03*
X26099000Y8160000D03*
D13*
X19413000Y28861000D03*
X19413000Y27083000D03*
D10*
X20048000Y58706000D03*
X20048000Y59722000D03*
D30*
X34018000Y4985000D03*
X32494000Y4985000D03*
D35*
X15283000Y28510000D03*
X14333000Y28510000D03*
X13383000Y28510000D03*
X13383000Y25910000D03*
X15283000Y25910000D03*
D10*
X26525000Y11335000D03*
X26525000Y10319000D03*
D32*
X41892000Y14129000D03*
X41892000Y12097000D03*
D30*
X3157000Y35000000D03*
X4681000Y35000000D03*
D36*
X15182000Y53626000D03*
X10182000Y53626000D03*
D13*
X19159000Y42958000D03*
X19159000Y44736000D03*
D10*
X21572000Y58706000D03*
X21572000Y59722000D03*
D11*
X35923000Y23781000D03*
X36939000Y23781000D03*
D37*
X77125000Y23080000D03*
X70875000Y23080000D03*
X77125000Y20540000D03*
X70875000Y20540000D03*
X77125000Y18000000D03*
X70875000Y18000000D03*
X77125000Y15460000D03*
X70875000Y15460000D03*
X77125000Y12920000D03*
X70875000Y12920000D03*
D18*
X68430000Y54007000D03*
X64630000Y54007000D03*
D11*
X52687000Y24543000D03*
X53703000Y24543000D03*
D13*
X13444000Y23908000D03*
X15222000Y23908000D03*
D11*
X21826000Y19844000D03*
X20810000Y19844000D03*
X2522000Y8287000D03*
X3538000Y8287000D03*
D38*
X48714440Y44421040D03*
X48714440Y46323500D03*
X46504640Y45368460D03*
D39*
X30672000Y13398000D03*
X30672000Y14038000D03*
X30672000Y14678000D03*
X30672000Y15318000D03*
X30672000Y15958000D03*
X30672000Y16598000D03*
X30672000Y17238000D03*
X30672000Y17878000D03*
X30672000Y18518000D03*
X30672000Y19158000D03*
X30672000Y19798000D03*
X30672000Y20438000D03*
X30672000Y21078000D03*
X30672000Y21718000D03*
X25172000Y21718000D03*
X25172000Y21078000D03*
X25172000Y20438000D03*
X25172000Y19798000D03*
X25172000Y19158000D03*
X25172000Y18518000D03*
X25172000Y17878000D03*
X25172000Y17238000D03*
X25172000Y16598000D03*
X25172000Y15958000D03*
X25172000Y15318000D03*
X25172000Y14678000D03*
X25172000Y14038000D03*
X25172000Y13398000D03*
D40*
X28303000Y41013000D03*
X28303000Y36013000D03*
D41*
X61000000Y1200000D03*
X63500000Y1200000D03*
X66000000Y1200000D03*
X61000000Y6800000D03*
X63500000Y6800000D03*
X66000000Y6800000D03*
D42*
X24396100Y42897000D03*
X24396100Y43847000D03*
X24396100Y44797000D03*
X21795900Y44797000D03*
X21795900Y43847000D03*
X21795900Y42897000D03*
D38*
X41856440Y44421040D03*
X41856440Y46323500D03*
X39646640Y45368460D03*
D13*
X22080000Y16161000D03*
X22080000Y17939000D03*
D42*
X33413100Y8226000D03*
X33413100Y9176000D03*
X33413100Y10126000D03*
X30812900Y10126000D03*
X30812900Y9176000D03*
X30812900Y8226000D03*
D11*
X20937000Y20987000D03*
X19921000Y20987000D03*
D13*
X56624000Y47530000D03*
X56624000Y49308000D03*
D19*
X34996000Y15864000D03*
X36596000Y13664000D03*
X36596000Y15864000D03*
X34996000Y13664000D03*
D43*
X6030000Y10072400D03*
X6030000Y19927600D03*
D17*
X1850000Y10072400D03*
X1850000Y19927600D03*
D44*
X6030000Y10072400D03*
X6030000Y19927600D03*
D45*
X1850000Y10072400D03*
X1850000Y19927600D03*
D46*
X6932000Y18325000D03*
X6932000Y17525000D03*
D47*
X6932000Y16250000D03*
X6932000Y15250000D03*
X6932000Y14750000D03*
X6932000Y13750000D03*
D46*
X6932000Y12475000D03*
X6932000Y11675000D03*
X6932000Y11925000D03*
X6932000Y12725000D03*
D47*
X6932000Y13250000D03*
X6932000Y14250000D03*
X6932000Y15750000D03*
X6932000Y16750000D03*
D46*
X6932000Y17275000D03*
X6932000Y18075000D03*
D11*
X23350000Y13748000D03*
X22334000Y13748000D03*
D38*
X20892560Y52449960D03*
X20892560Y50547500D03*
X23102360Y51502540D03*
D10*
X50782000Y24035000D03*
X50782000Y23019000D03*
X38209000Y46768000D03*
X38209000Y47784000D03*
D11*
X34272000Y22765000D03*
X33256000Y22765000D03*
D10*
X59418000Y47911000D03*
X59418000Y48927000D03*
D13*
X33891000Y19590000D03*
X35669000Y19590000D03*
D11*
X21445000Y13748000D03*
X20429000Y13748000D03*
D10*
X33383000Y15018000D03*
X33383000Y16034000D03*
D13*
X17508000Y42958000D03*
X17508000Y44736000D03*
D11*
X53703000Y25559000D03*
X52687000Y25559000D03*
D10*
X20937000Y25686000D03*
X20937000Y24670000D03*
D40*
X18397000Y49983000D03*
X18397000Y54983000D03*
D11*
X18778000Y19844000D03*
X19794000Y19844000D03*
D13*
X20556000Y18574000D03*
X20556000Y16796000D03*
D11*
X15984000Y22384000D03*
X14968000Y22384000D03*
X34272000Y23781000D03*
X33256000Y23781000D03*
D48*
X8072400Y59220000D03*
X17927600Y59220000D03*
D49*
X8072400Y63400000D03*
X17927600Y63400000D03*
D50*
X8072400Y59220000D03*
X17927600Y59220000D03*
D51*
X8072400Y63400000D03*
X17927600Y63400000D03*
D52*
X16325000Y58318000D03*
X15525000Y58318000D03*
D53*
X14250000Y58318000D03*
X13250000Y58318000D03*
X12750000Y58318000D03*
X11750000Y58318000D03*
D52*
X10475000Y58318000D03*
X9675000Y58318000D03*
X9925000Y58318000D03*
X10725000Y58318000D03*
D53*
X11250000Y58318000D03*
X12250000Y58318000D03*
X13750000Y58318000D03*
X14750000Y58318000D03*
D52*
X15275000Y58318000D03*
X16075000Y58318000D03*
D10*
X21953000Y25686000D03*
X21953000Y24670000D03*
D36*
X16579000Y20098000D03*
X11579000Y20098000D03*
D10*
X58148000Y47911000D03*
X58148000Y48927000D03*
D13*
X30081000Y43212000D03*
X30081000Y44990000D03*
D36*
X16278000Y47149000D03*
X21278000Y47149000D03*
D13*
X25128000Y29115000D03*
X25128000Y27337000D03*
D38*
X38209000Y52986000D03*
X38209000Y49186000D03*
D13*
X17762000Y28861000D03*
X17762000Y27083000D03*
D32*
X39733000Y14129000D03*
X39733000Y12097000D03*
D11*
X3492000Y54250000D03*
X4508000Y54250000D03*
D30*
X27922000Y4985000D03*
X26398000Y4985000D03*
D11*
X53703000Y23527000D03*
X52687000Y23527000D03*
D10*
X22969000Y25686000D03*
X22969000Y24670000D03*
D11*
X30970000Y6382000D03*
X31986000Y6382000D03*
D40*
X31605000Y41013000D03*
X31605000Y36013000D03*
D13*
X28049000Y43212000D03*
X28049000Y44990000D03*
D10*
X31732000Y45244000D03*
X31732000Y46260000D03*
D18*
X62532040Y48454560D03*
X64434500Y48454560D03*
X63479460Y50664360D03*
D54*
X24599000Y38132000D03*
X18799000Y38132000D03*
D30*
X3238000Y56000000D03*
X4762000Y56000000D03*
D55*
X2400000Y30350000D03*
D56*
X8100000Y28000000D03*
X8100000Y26000000D03*
D55*
X2400000Y23650000D03*
D10*
X33383000Y14002000D03*
X33383000Y12986000D03*
D57*
X21515000Y31655000D03*
X23915000Y31655000D03*
D11*
X5824000Y8287000D03*
X4808000Y8287000D03*
D30*
X27922000Y2191000D03*
X26398000Y2191000D03*
D11*
X20937000Y54134000D03*
X21953000Y54134000D03*
D26*
X66657000Y48800000D03*
X66657000Y51594000D03*
D10*
X57513000Y2953000D03*
X57513000Y3969000D03*
M02*
