%TF.GenerationSoftware,KiCad,Pcbnew,7.0.9-7.0.9~ubuntu22.04.1*%
%TF.CreationDate,2024-07-19T15:24:13+03:00*%
%TF.ProjectId,RP2040pc_Rev_B,52503230-3430-4706-935f-5265765f422e,B*%
%TF.SameCoordinates,PX68e7780PY7735940*%
%TF.FileFunction,Soldermask,Top*%
%TF.FilePolarity,Negative*%
%FSLAX46Y46*%
G04 Gerber Fmt 4.6, Leading zero omitted, Abs format (unit mm)*
G04 Created by KiCad (PCBNEW 7.0.9-7.0.9~ubuntu22.04.1) date 2024-07-19 15:24:13*
%MOMM*%
%LPD*%
G01*
G04 APERTURE LIST*
G04 Aperture macros list*
%AMRoundRect*
0 Rectangle with rounded corners*
0 $1 Rounding radius*
0 $2 $3 $4 $5 $6 $7 $8 $9 X,Y pos of 4 corners*
0 Add a 4 corners polygon primitive as box body*
4,1,4,$2,$3,$4,$5,$6,$7,$8,$9,$2,$3,0*
0 Add four circle primitives for the rounded corners*
1,1,$1+$1,$2,$3*
1,1,$1+$1,$4,$5*
1,1,$1+$1,$6,$7*
1,1,$1+$1,$8,$9*
0 Add four rect primitives between the rounded corners*
20,1,$1+$1,$2,$3,$4,$5,0*
20,1,$1+$1,$4,$5,$6,$7,0*
20,1,$1+$1,$6,$7,$8,$9,0*
20,1,$1+$1,$8,$9,$2,$3,0*%
G04 Aperture macros list end*
%ADD10C,3.401601*%
%ADD11RoundRect,0.050800X-0.275000X0.250000X-0.275000X-0.250000X0.275000X-0.250000X0.275000X0.250000X0*%
%ADD12RoundRect,0.050800X0.275000X-0.250000X0.275000X0.250000X-0.275000X0.250000X-0.275000X-0.250000X0*%
%ADD13RoundRect,0.050800X-0.250000X-0.275000X0.250000X-0.275000X0.250000X0.275000X-0.250000X0.275000X0*%
%ADD14RoundRect,0.050800X0.250000X0.275000X-0.250000X0.275000X-0.250000X-0.275000X0.250000X-0.275000X0*%
%ADD15C,1.254000*%
%ADD16RoundRect,0.050800X0.508000X-0.508000X0.508000X0.508000X-0.508000X0.508000X-0.508000X-0.508000X0*%
%ADD17C,1.801600*%
%ADD18RoundRect,0.050800X-1.500000X1.250000X-1.500000X-1.250000X1.500000X-1.250000X1.500000X1.250000X0*%
%ADD19RoundRect,0.050800X-1.500000X1.050000X-1.500000X-1.050000X1.500000X-1.050000X1.500000X1.050000X0*%
%ADD20RoundRect,0.050800X-0.500000X0.700000X-0.500000X-0.700000X0.500000X-0.700000X0.500000X0.700000X0*%
%ADD21RoundRect,0.050800X0.600000X-0.700000X0.600000X0.700000X-0.600000X0.700000X-0.600000X-0.700000X0*%
%ADD22RoundRect,0.050800X0.300000X1.100000X-0.300000X1.100000X-0.300000X-1.100000X0.300000X-1.100000X0*%
%ADD23RoundRect,0.050800X-0.100000X0.437500X-0.100000X-0.437500X0.100000X-0.437500X0.100000X0.437500X0*%
%ADD24RoundRect,0.050800X-0.437500X0.100000X-0.437500X-0.100000X0.437500X-0.100000X0.437500X0.100000X0*%
%ADD25C,1.101600*%
%ADD26C,1.901600*%
%ADD27RoundRect,0.050800X-1.600000X1.600000X-1.600000X-1.600000X1.600000X-1.600000X1.600000X1.600000X0*%
%ADD28RoundRect,0.050800X-0.700000X0.750000X-0.700000X-0.750000X0.700000X-0.750000X0.700000X0.750000X0*%
%ADD29RoundRect,0.050800X0.889000X0.889000X-0.889000X0.889000X-0.889000X-0.889000X0.889000X-0.889000X0*%
%ADD30C,1.879600*%
%ADD31RoundRect,0.050800X0.889000X-0.762000X0.889000X0.762000X-0.889000X0.762000X-0.889000X-0.762000X0*%
%ADD32O,1.401600X2.401600*%
%ADD33O,1.401600X2.801600*%
%ADD34RoundRect,0.050800X0.125000X-0.800000X0.125000X0.800000X-0.125000X0.800000X-0.125000X-0.800000X0*%
%ADD35RoundRect,0.050800X1.000000X1.000000X-1.000000X1.000000X-1.000000X-1.000000X1.000000X-1.000000X0*%
%ADD36C,2.101600*%
%ADD37RoundRect,0.050800X0.500000X0.700000X-0.500000X0.700000X-0.500000X-0.700000X0.500000X-0.700000X0*%
%ADD38RoundRect,0.050800X-0.508000X0.508000X-0.508000X-0.508000X0.508000X-0.508000X0.508000X0.508000X0*%
%ADD39C,3.501600*%
%ADD40C,1.601600*%
%ADD41RoundRect,0.050800X-0.400000X-0.400000X0.400000X-0.400000X0.400000X0.400000X-0.400000X0.400000X0*%
%ADD42RoundRect,0.050800X-0.125000X0.350000X-0.125000X-0.350000X0.125000X-0.350000X0.125000X0.350000X0*%
%ADD43RoundRect,0.050800X-0.762000X-0.635000X0.762000X-0.635000X0.762000X0.635000X-0.762000X0.635000X0*%
%ADD44C,2.701600*%
%ADD45C,1.301600*%
%ADD46RoundRect,0.050800X-2.125000X-0.500000X2.125000X-0.500000X2.125000X0.500000X-2.125000X0.500000X0*%
%ADD47RoundRect,0.050800X-0.635000X0.762000X-0.635000X-0.762000X0.635000X-0.762000X0.635000X0.762000X0*%
%ADD48RoundRect,0.050800X0.275000X-0.600000X0.275000X0.600000X-0.275000X0.600000X-0.275000X-0.600000X0*%
%ADD49RoundRect,0.050800X0.400000X0.400000X-0.400000X0.400000X-0.400000X-0.400000X0.400000X-0.400000X0*%
%ADD50RoundRect,0.050800X1.000000X0.850000X-1.000000X0.850000X-1.000000X-0.850000X1.000000X-0.850000X0*%
%ADD51RoundRect,0.050800X-0.889000X0.889000X-0.889000X-0.889000X0.889000X-0.889000X0.889000X0.889000X0*%
%ADD52RoundRect,0.050800X-0.508000X-0.508000X0.508000X-0.508000X0.508000X0.508000X-0.508000X0.508000X0*%
%ADD53RoundRect,0.050800X-0.700000X-0.500000X0.700000X-0.500000X0.700000X0.500000X-0.700000X0.500000X0*%
%ADD54RoundRect,0.050800X0.750000X0.160000X-0.750000X0.160000X-0.750000X-0.160000X0.750000X-0.160000X0*%
%ADD55RoundRect,0.050800X-0.850000X1.000000X-0.850000X-1.000000X0.850000X-1.000000X0.850000X1.000000X0*%
%ADD56C,1.001600*%
%ADD57RoundRect,0.101600X0.500000X-0.750000X0.500000X0.750000X-0.500000X0.750000X-0.500000X-0.750000X0*%
%ADD58RoundRect,0.050800X0.600000X-0.275000X0.600000X0.275000X-0.600000X0.275000X-0.600000X-0.275000X0*%
%ADD59RoundRect,0.050800X-0.600000X0.700000X-0.600000X-0.700000X0.600000X-0.700000X0.600000X0.700000X0*%
%ADD60C,0.701600*%
%ADD61RoundRect,0.050800X-1.100000X0.550000X-1.100000X-0.550000X1.100000X-0.550000X1.100000X0.550000X0*%
%ADD62O,2.301600X1.301600*%
%ADD63RoundRect,0.050800X-1.000000X0.550000X-1.000000X-0.550000X1.000000X-0.550000X1.000000X0.550000X0*%
%ADD64O,2.101600X1.401600*%
%ADD65RoundRect,0.050800X-0.575000X0.150000X-0.575000X-0.150000X0.575000X-0.150000X0.575000X0.150000X0*%
%ADD66RoundRect,0.050800X-0.575000X0.125000X-0.575000X-0.125000X0.575000X-0.125000X0.575000X0.125000X0*%
%ADD67RoundRect,0.050800X0.700000X0.500000X-0.700000X0.500000X-0.700000X-0.500000X0.700000X-0.500000X0*%
%ADD68RoundRect,0.050800X-0.700000X0.700000X-0.700000X-0.700000X0.700000X-0.700000X0.700000X0.700000X0*%
%ADD69C,1.501600*%
%ADD70RoundRect,0.050800X0.850000X-1.000000X0.850000X1.000000X-0.850000X1.000000X-0.850000X-1.000000X0*%
%ADD71RoundRect,0.050800X0.550000X1.100000X-0.550000X1.100000X-0.550000X-1.100000X0.550000X-1.100000X0*%
%ADD72O,1.301600X2.301600*%
%ADD73RoundRect,0.050800X0.550000X1.000000X-0.550000X1.000000X-0.550000X-1.000000X0.550000X-1.000000X0*%
%ADD74O,1.401600X2.101600*%
%ADD75RoundRect,0.050800X0.150000X0.575000X-0.150000X0.575000X-0.150000X-0.575000X0.150000X-0.575000X0*%
%ADD76RoundRect,0.050800X0.125000X0.575000X-0.125000X0.575000X-0.125000X-0.575000X0.125000X-0.575000X0*%
%ADD77RoundRect,0.050800X-1.000000X-0.850000X1.000000X-0.850000X1.000000X0.850000X-1.000000X0.850000X0*%
%ADD78RoundRect,0.050800X-0.700000X0.500000X-0.700000X-0.500000X0.700000X-0.500000X0.700000X0.500000X0*%
%ADD79RoundRect,0.050800X1.600000X3.000000X-1.600000X3.000000X-1.600000X-3.000000X1.600000X-3.000000X0*%
%ADD80RoundRect,0.050800X-1.750000X0.750000X-1.750000X-0.750000X1.750000X-0.750000X1.750000X0.750000X0*%
%ADD81RoundRect,0.050800X-1.750000X0.500000X-1.750000X-0.500000X1.750000X-0.500000X1.750000X0.500000X0*%
%ADD82RoundRect,0.050800X0.800000X1.500000X-0.800000X1.500000X-0.800000X-1.500000X0.800000X-1.500000X0*%
G04 APERTURE END LIST*
D10*
X4000000Y4000000D03*
X76000000Y61000000D03*
D11*
X49766000Y23019000D03*
D12*
X49766000Y24035000D03*
D13*
X48115000Y23654000D03*
D14*
X47099000Y23654000D03*
D11*
X51925000Y47911000D03*
D12*
X51925000Y48927000D03*
D11*
X50655000Y47911000D03*
D12*
X50655000Y48927000D03*
D15*
X1500000Y63500000D03*
X1500000Y58500000D03*
D16*
X54719000Y47530000D03*
X54719000Y49308000D03*
D11*
X53195000Y47911000D03*
D12*
X53195000Y48927000D03*
D17*
X56250000Y61500000D03*
X56250000Y55500000D03*
D18*
X50950000Y55200000D03*
X61550000Y61700000D03*
D19*
X61550000Y55500000D03*
X61550000Y58600000D03*
X50950000Y59400000D03*
D14*
X41257000Y52229000D03*
D13*
X42273000Y52229000D03*
D20*
X41577040Y48200560D03*
X43479500Y48200560D03*
X42524460Y50410360D03*
D10*
X76000000Y4000000D03*
D11*
X62466000Y32417000D03*
D12*
X62466000Y33433000D03*
D13*
X41130000Y26448000D03*
D14*
X40114000Y26448000D03*
D11*
X55481000Y40418000D03*
D12*
X55481000Y41434000D03*
D11*
X49639000Y40418000D03*
D12*
X49639000Y41434000D03*
D13*
X41130000Y30131000D03*
D14*
X40114000Y30131000D03*
D13*
X48115000Y25051000D03*
D14*
X47099000Y25051000D03*
D12*
X54846000Y24035000D03*
D11*
X54846000Y23019000D03*
D14*
X59672000Y31655000D03*
D13*
X60688000Y31655000D03*
D14*
X59672000Y30639000D03*
D13*
X60688000Y30639000D03*
D12*
X55862000Y24035000D03*
D11*
X55862000Y23019000D03*
D12*
X56878000Y24035000D03*
D11*
X56878000Y23019000D03*
D12*
X59037000Y24924000D03*
D11*
X59037000Y23908000D03*
D14*
X59672000Y32671000D03*
D13*
X60688000Y32671000D03*
X41130000Y31782000D03*
D14*
X40114000Y31782000D03*
X40114000Y37370000D03*
D13*
X41130000Y37370000D03*
D21*
X41422000Y33476000D03*
X39822000Y35676000D03*
X39822000Y33476000D03*
X41422000Y35676000D03*
D13*
X63228000Y45752000D03*
D14*
X62212000Y45752000D03*
X40114000Y25305000D03*
D13*
X41130000Y25305000D03*
D14*
X42908000Y32417000D03*
D13*
X43924000Y32417000D03*
D11*
X57386000Y27845000D03*
D12*
X57386000Y28861000D03*
D11*
X58529000Y27845000D03*
D12*
X58529000Y28861000D03*
D14*
X62212000Y44736000D03*
D13*
X63228000Y44736000D03*
D22*
X62085000Y42235000D03*
X60815000Y42235000D03*
X59545000Y42235000D03*
X58275000Y42235000D03*
X58275000Y35765000D03*
X59545000Y35765000D03*
X60815000Y35765000D03*
X62085000Y35765000D03*
D23*
X53600000Y35937500D03*
X53200000Y35937500D03*
X52800000Y35937500D03*
X52400000Y35937500D03*
X52000000Y35937500D03*
X51600000Y35937500D03*
X51200000Y35937500D03*
X50800000Y35937500D03*
X50400000Y35937500D03*
X50000000Y35937500D03*
X49600000Y35937500D03*
X49200000Y35937500D03*
X48800000Y35937500D03*
X48400000Y35937500D03*
D24*
X47562500Y35100000D03*
X47562500Y34700000D03*
X47562500Y34300000D03*
X47562500Y33900000D03*
X47562500Y33500000D03*
X47562500Y33100000D03*
X47562500Y32700000D03*
X47562500Y32300000D03*
X47562500Y31900000D03*
X47562500Y31500000D03*
X47562500Y31100000D03*
X47562500Y30700000D03*
X47562500Y30300000D03*
X47562500Y29900000D03*
D23*
X48400000Y29062500D03*
X48800000Y29062500D03*
X49200000Y29062500D03*
X49600000Y29062500D03*
X50000000Y29062500D03*
X50400000Y29062500D03*
X50800000Y29062500D03*
X51200000Y29062500D03*
X51600000Y29062500D03*
X52000000Y29062500D03*
X52400000Y29062500D03*
X52800000Y29062500D03*
X53200000Y29062500D03*
X53600000Y29062500D03*
D24*
X54437500Y29900000D03*
X54437500Y30300000D03*
X54437500Y30700000D03*
X54437500Y31100000D03*
X54437500Y31500000D03*
X54437500Y31900000D03*
X54437500Y32300000D03*
X54437500Y32700000D03*
X54437500Y33100000D03*
X54437500Y33500000D03*
X54437500Y33900000D03*
X54437500Y34300000D03*
X54437500Y34700000D03*
X54437500Y35100000D03*
D25*
X52200000Y31300000D03*
X52200000Y33700000D03*
D26*
X51000000Y32500000D03*
D27*
X51000000Y32500000D03*
D25*
X49800000Y31300000D03*
X49730000Y33700000D03*
D11*
X34907000Y50451000D03*
D12*
X34907000Y51467000D03*
D11*
X31097000Y50451000D03*
D12*
X31097000Y51467000D03*
D11*
X26906000Y50451000D03*
D12*
X26906000Y51467000D03*
D11*
X25763000Y50451000D03*
D12*
X25763000Y51467000D03*
D15*
X78500000Y58500000D03*
D10*
X4000000Y61000000D03*
D15*
X78500000Y63500000D03*
D28*
X65700000Y18100000D03*
X65700000Y9900000D03*
X61300000Y18100000D03*
X61300000Y9900000D03*
D29*
X43548000Y39750000D03*
D30*
X41008000Y39750000D03*
X38468000Y39750000D03*
D31*
X46083000Y48673000D03*
X46083000Y51467000D03*
D32*
X24700000Y62950000D03*
D33*
X24700000Y56900000D03*
D32*
X39300000Y62950000D03*
D33*
X39300000Y56900000D03*
D34*
X27500000Y55950000D03*
X28000000Y55950000D03*
X28500000Y55950000D03*
X29000000Y55950000D03*
X29500000Y55950000D03*
X30000000Y55950000D03*
X30500000Y55950000D03*
X31000000Y55950000D03*
X31500000Y55950000D03*
X32000000Y55950000D03*
X32500000Y55950000D03*
X33000000Y55950000D03*
X33500000Y55950000D03*
X34000000Y55950000D03*
X34500000Y55950000D03*
X35000000Y55950000D03*
X35500000Y55950000D03*
X36000000Y55950000D03*
X36500000Y55950000D03*
D11*
X29573000Y50451000D03*
D12*
X29573000Y51467000D03*
D11*
X28430000Y50451000D03*
D12*
X28430000Y51467000D03*
D11*
X32240000Y50451000D03*
D12*
X32240000Y51467000D03*
D11*
X33764000Y50451000D03*
D12*
X33764000Y51467000D03*
D13*
X41130000Y29115000D03*
D14*
X40114000Y29115000D03*
D35*
X46500000Y60000000D03*
D36*
X42500000Y60000000D03*
D15*
X1500000Y6500000D03*
D37*
X46332000Y54007000D03*
X42532000Y54007000D03*
D15*
X1500000Y1500000D03*
D38*
X26779000Y29115000D03*
X26779000Y27337000D03*
D13*
X26779000Y46260000D03*
D14*
X25763000Y46260000D03*
D39*
X9430000Y9000000D03*
X9430000Y3300000D03*
X22570000Y9000000D03*
X22570000Y3300000D03*
D40*
X12500000Y8620000D03*
X15000000Y8620000D03*
X17000000Y8620000D03*
X19500000Y8620000D03*
X12500000Y6000000D03*
X15000000Y6000000D03*
X17000000Y6000000D03*
X19500000Y6000000D03*
D41*
X34018000Y2191000D03*
X32494000Y2191000D03*
D14*
X3411000Y33306000D03*
D13*
X4427000Y33306000D03*
D42*
X22580000Y28722000D03*
X22080000Y28722000D03*
X21580000Y28722000D03*
X21580000Y27222000D03*
X22080000Y27222000D03*
X22580000Y27222000D03*
D14*
X62466000Y52356000D03*
D13*
X63482000Y52356000D03*
D14*
X33256000Y21622000D03*
D13*
X34272000Y21622000D03*
D11*
X60688000Y47911000D03*
D12*
X60688000Y48927000D03*
X55989000Y3969000D03*
D11*
X55989000Y2953000D03*
D43*
X15349000Y16034000D03*
X15349000Y14002000D03*
X13063000Y16034000D03*
X13063000Y14002000D03*
D11*
X44940000Y45117000D03*
D12*
X44940000Y46133000D03*
D44*
X1800000Y38350000D03*
X1800000Y51650000D03*
X11000000Y40200000D03*
X11000000Y45000000D03*
X11000000Y49800000D03*
D45*
X74000000Y48350000D03*
X74000000Y35650000D03*
D46*
X70875000Y49620000D03*
X77125000Y49620000D03*
X70875000Y47080000D03*
X77125000Y47080000D03*
X70875000Y44540000D03*
X77125000Y44540000D03*
X70875000Y42000000D03*
X77125000Y42000000D03*
X70875000Y39460000D03*
X77125000Y39460000D03*
X70875000Y36920000D03*
X77125000Y36920000D03*
X70875000Y34380000D03*
X77125000Y34380000D03*
D47*
X28131000Y8160000D03*
X26099000Y8160000D03*
D38*
X19413000Y28861000D03*
X19413000Y27083000D03*
D11*
X20048000Y58706000D03*
D12*
X20048000Y59722000D03*
D41*
X34018000Y4985000D03*
X32494000Y4985000D03*
D48*
X15283000Y28510000D03*
X14333000Y28510000D03*
X13383000Y28510000D03*
X13383000Y25910000D03*
X15283000Y25910000D03*
D39*
X37430000Y9000000D03*
X37430000Y3300000D03*
X50570000Y9000000D03*
X50570000Y3300000D03*
D40*
X40500000Y8620000D03*
X43000000Y8620000D03*
X45000000Y8620000D03*
X47500000Y8620000D03*
X40500000Y6000000D03*
X43000000Y6000000D03*
X45000000Y6000000D03*
X47500000Y6000000D03*
D12*
X26525000Y11335000D03*
D11*
X26525000Y10319000D03*
D43*
X41892000Y14129000D03*
X41892000Y12097000D03*
D49*
X3157000Y35000000D03*
X4681000Y35000000D03*
D50*
X15182000Y53626000D03*
X10182000Y53626000D03*
D16*
X19159000Y42958000D03*
X19159000Y44736000D03*
D11*
X21572000Y58706000D03*
D12*
X21572000Y59722000D03*
D14*
X35923000Y23781000D03*
D13*
X36939000Y23781000D03*
D45*
X74000000Y21810000D03*
X74000000Y14190000D03*
D46*
X70875000Y23080000D03*
X77125000Y23080000D03*
X70875000Y20540000D03*
X77125000Y20540000D03*
X70875000Y18000000D03*
X77125000Y18000000D03*
X70875000Y15460000D03*
X77125000Y15460000D03*
X70875000Y12920000D03*
X77125000Y12920000D03*
D37*
X68430000Y54007000D03*
X64630000Y54007000D03*
D14*
X52687000Y24543000D03*
D13*
X53703000Y24543000D03*
D51*
X70500000Y1500000D03*
D52*
X13444000Y23908000D03*
X15222000Y23908000D03*
D13*
X21826000Y19844000D03*
D14*
X20810000Y19844000D03*
X2522000Y8287000D03*
D13*
X3538000Y8287000D03*
D53*
X48714440Y44421040D03*
X48714440Y46323500D03*
X46504640Y45368460D03*
D54*
X30672000Y13398000D03*
X30672000Y14038000D03*
X30672000Y14678000D03*
X30672000Y15318000D03*
X30672000Y15958000D03*
X30672000Y16598000D03*
X30672000Y17238000D03*
X30672000Y17878000D03*
X30672000Y18518000D03*
X30672000Y19158000D03*
X30672000Y19798000D03*
X30672000Y20438000D03*
X30672000Y21078000D03*
X30672000Y21718000D03*
X25172000Y21718000D03*
X25172000Y21078000D03*
X25172000Y20438000D03*
X25172000Y19798000D03*
X25172000Y19158000D03*
X25172000Y18518000D03*
X25172000Y17878000D03*
X25172000Y17238000D03*
X25172000Y16598000D03*
X25172000Y15958000D03*
X25172000Y15318000D03*
X25172000Y14678000D03*
X25172000Y14038000D03*
X25172000Y13398000D03*
D55*
X28303000Y41013000D03*
X28303000Y36013000D03*
D56*
X62000000Y4000000D03*
X65000000Y4000000D03*
D57*
X61000000Y1200000D03*
X63500000Y1200000D03*
X66000000Y1200000D03*
X61000000Y6800000D03*
X63500000Y6800000D03*
X66000000Y6800000D03*
D58*
X24396100Y42897000D03*
X24396100Y43847000D03*
X24396100Y44797000D03*
X21795900Y44797000D03*
X21795900Y43847000D03*
X21795900Y42897000D03*
D53*
X41856440Y44421040D03*
X41856440Y46323500D03*
X39646640Y45368460D03*
D16*
X22080000Y16161000D03*
X22080000Y17939000D03*
D58*
X33413100Y8226000D03*
X33413100Y9176000D03*
X33413100Y10126000D03*
X30812900Y10126000D03*
X30812900Y9176000D03*
X30812900Y8226000D03*
D13*
X20937000Y20987000D03*
D14*
X19921000Y20987000D03*
D16*
X56624000Y47530000D03*
X56624000Y49308000D03*
D59*
X34996000Y15864000D03*
X36596000Y13664000D03*
X36596000Y15864000D03*
X34996000Y13664000D03*
D60*
X5530000Y12110000D03*
X5530000Y17890000D03*
D61*
X6030000Y10072400D03*
D62*
X6030000Y10680000D03*
X6030000Y19320000D03*
D61*
X6030000Y19927600D03*
D63*
X1850000Y10072400D03*
D64*
X1850000Y10680000D03*
X1850000Y19320000D03*
D63*
X1850000Y19927600D03*
D65*
X6932000Y18325000D03*
X6932000Y17525000D03*
D66*
X6932000Y16250000D03*
X6932000Y15250000D03*
X6932000Y14750000D03*
X6932000Y13750000D03*
D65*
X6932000Y12475000D03*
X6932000Y11675000D03*
X6932000Y11925000D03*
X6932000Y12725000D03*
D66*
X6932000Y13250000D03*
X6932000Y14250000D03*
X6932000Y15750000D03*
X6932000Y16750000D03*
D65*
X6932000Y17275000D03*
X6932000Y18075000D03*
D13*
X23350000Y13748000D03*
D14*
X22334000Y13748000D03*
D67*
X20892560Y52449960D03*
X20892560Y50547500D03*
X23102360Y51502540D03*
D12*
X50782000Y24035000D03*
D11*
X50782000Y23019000D03*
X38209000Y46768000D03*
D12*
X38209000Y47784000D03*
D13*
X34272000Y22765000D03*
D14*
X33256000Y22765000D03*
D11*
X59418000Y47911000D03*
D12*
X59418000Y48927000D03*
D52*
X33891000Y19590000D03*
X35669000Y19590000D03*
D13*
X21445000Y13748000D03*
D14*
X20429000Y13748000D03*
D11*
X33383000Y15018000D03*
D12*
X33383000Y16034000D03*
D16*
X17508000Y42958000D03*
X17508000Y44736000D03*
D13*
X53703000Y25559000D03*
D14*
X52687000Y25559000D03*
D68*
X4285680Y28028700D03*
D69*
X4288220Y25999240D03*
D12*
X20937000Y25686000D03*
D11*
X20937000Y24670000D03*
D70*
X18397000Y49983000D03*
X18397000Y54983000D03*
D14*
X18778000Y19844000D03*
D13*
X19794000Y19844000D03*
D38*
X20556000Y18574000D03*
X20556000Y16796000D03*
D13*
X15984000Y22384000D03*
D14*
X14968000Y22384000D03*
D13*
X34272000Y23781000D03*
D14*
X33256000Y23781000D03*
D60*
X10110000Y59720000D03*
X15890000Y59720000D03*
D71*
X8072400Y59220000D03*
D72*
X8680000Y59220000D03*
X17320000Y59220000D03*
D71*
X17927600Y59220000D03*
D73*
X8072400Y63400000D03*
D74*
X8680000Y63400000D03*
X17320000Y63400000D03*
D73*
X17927600Y63400000D03*
D75*
X16325000Y58318000D03*
X15525000Y58318000D03*
D76*
X14250000Y58318000D03*
X13250000Y58318000D03*
X12750000Y58318000D03*
X11750000Y58318000D03*
D75*
X10475000Y58318000D03*
X9675000Y58318000D03*
X9925000Y58318000D03*
X10725000Y58318000D03*
D76*
X11250000Y58318000D03*
X12250000Y58318000D03*
X13750000Y58318000D03*
X14750000Y58318000D03*
D75*
X15275000Y58318000D03*
X16075000Y58318000D03*
D12*
X21953000Y25686000D03*
D11*
X21953000Y24670000D03*
D50*
X16579000Y20098000D03*
X11579000Y20098000D03*
D11*
X58148000Y47911000D03*
D12*
X58148000Y48927000D03*
D16*
X30081000Y43212000D03*
X30081000Y44990000D03*
D35*
X70000000Y60000000D03*
D36*
X66000000Y60000000D03*
D77*
X16278000Y47149000D03*
X21278000Y47149000D03*
D38*
X25128000Y29115000D03*
X25128000Y27337000D03*
D78*
X38209000Y52986000D03*
X38209000Y49186000D03*
D38*
X17762000Y28861000D03*
X17762000Y27083000D03*
D43*
X39733000Y14129000D03*
X39733000Y12097000D03*
D14*
X3492000Y54250000D03*
D13*
X4508000Y54250000D03*
D41*
X27922000Y4985000D03*
X26398000Y4985000D03*
D13*
X53703000Y23527000D03*
D14*
X52687000Y23527000D03*
D12*
X22969000Y25686000D03*
D11*
X22969000Y24670000D03*
D14*
X30970000Y6382000D03*
D13*
X31986000Y6382000D03*
D55*
X31605000Y41013000D03*
X31605000Y36013000D03*
D16*
X28049000Y43212000D03*
X28049000Y44990000D03*
D11*
X31732000Y45244000D03*
D12*
X31732000Y46260000D03*
D20*
X62532040Y48454560D03*
X64434500Y48454560D03*
X63479460Y50664360D03*
D79*
X24599000Y38132000D03*
X18799000Y38132000D03*
D49*
X3238000Y56000000D03*
X4762000Y56000000D03*
D80*
X2400000Y30350000D03*
X2400000Y23650000D03*
D81*
X8100000Y28000000D03*
X8100000Y26000000D03*
D12*
X33383000Y14002000D03*
D11*
X33383000Y12986000D03*
D82*
X21515000Y31655000D03*
X23915000Y31655000D03*
D13*
X5824000Y8287000D03*
D14*
X4808000Y8287000D03*
D41*
X27922000Y2191000D03*
X26398000Y2191000D03*
D14*
X20937000Y54134000D03*
D13*
X21953000Y54134000D03*
D31*
X66657000Y48800000D03*
X66657000Y51594000D03*
D11*
X57513000Y2953000D03*
D12*
X57513000Y3969000D03*
G36*
X2692121Y48979998D02*
G01*
X2738614Y48926342D01*
X2750000Y48874000D01*
X2750000Y41126000D01*
X2729998Y41057879D01*
X2676342Y41011386D01*
X2624000Y41000000D01*
X1376000Y41000000D01*
X1307879Y41020002D01*
X1261386Y41073658D01*
X1250000Y41126000D01*
X1250000Y48874000D01*
X1270002Y48942121D01*
X1323658Y48988614D01*
X1376000Y49000000D01*
X2624000Y49000000D01*
X2692121Y48979998D01*
G37*
M02*
