%TF.GenerationSoftware,KiCad,Pcbnew,7.0.9-7.0.9~ubuntu22.04.1*%
%TF.CreationDate,2024-07-19T15:24:13+03:00*%
%TF.ProjectId,RP2040pc_Rev_B,52503230-3430-4706-935f-5265765f422e,B*%
%TF.SameCoordinates,PX68e7780PY7735940*%
%TF.FileFunction,Legend,Bot*%
%TF.FilePolarity,Positive*%
%FSLAX46Y46*%
G04 Gerber Fmt 4.6, Leading zero omitted, Abs format (unit mm)*
G04 Created by KiCad (PCBNEW 7.0.9-7.0.9~ubuntu22.04.1) date 2024-07-19 15:24:13*
%MOMM*%
%LPD*%
G01*
G04 APERTURE LIST*
%ADD10C,0.317500*%
%ADD11C,0.254000*%
%ADD12C,0.381000*%
%ADD13C,1.270000*%
%ADD14C,0.500000*%
%ADD15C,0.350000*%
%ADD16C,0.222250*%
%ADD17C,0.300000*%
%ADD18C,0.200000*%
%ADD19C,0.150000*%
%ADD20C,0.127000*%
%ADD21C,0.370000*%
%ADD22C,0.380000*%
%ADD23C,1.000000*%
%ADD24C,0.400000*%
%ADD25C,0.420000*%
%ADD26C,0.508000*%
%ADD27C,0.700000*%
%ADD28C,0.100000*%
G04 APERTURE END LIST*
D10*
X72368738Y59996744D02*
X71401119Y59996744D01*
X71884928Y59512934D02*
X71884928Y60480553D01*
X49000738Y59996744D02*
X48033119Y59996744D01*
X48516928Y59512934D02*
X48516928Y60480553D01*
D11*
X31478000Y7017000D02*
X31224000Y7271000D01*
X30970000Y7017000D02*
X31478000Y7017000D01*
X31224000Y7271000D02*
X30970000Y7017000D01*
X31224000Y5651750D02*
X31224000Y7271000D01*
D12*
G36*
X44843433Y41274698D02*
G01*
X42503005Y41274698D01*
X42503005Y41972000D01*
X42720719Y41972000D01*
X42727523Y41942189D01*
X42730495Y41911759D01*
X42803066Y41694044D01*
X42803817Y41692807D01*
X42803980Y41691368D01*
X42825786Y41656663D01*
X42847100Y41621597D01*
X42848315Y41620808D01*
X42849086Y41619582D01*
X42921658Y41547010D01*
X42993443Y41501904D01*
X43077691Y41492412D01*
X43157714Y41520413D01*
X43217663Y41580362D01*
X43245664Y41660385D01*
X43236172Y41744633D01*
X43191066Y41816418D01*
X43150292Y41857192D01*
X43101719Y42002913D01*
X43101719Y42086231D01*
X43150292Y42231952D01*
X43241777Y42323437D01*
X43340565Y42372831D01*
X43587813Y42434643D01*
X43758625Y42434643D01*
X44005869Y42372832D01*
X44104660Y42323437D01*
X44196145Y42231952D01*
X44244719Y42086230D01*
X44244719Y42002914D01*
X44196145Y41857192D01*
X44155372Y41816418D01*
X44110266Y41744632D01*
X44100774Y41660385D01*
X44128775Y41580362D01*
X44188724Y41520413D01*
X44268747Y41492412D01*
X44352994Y41501904D01*
X44424780Y41547010D01*
X44497352Y41619582D01*
X44498122Y41620808D01*
X44499338Y41621597D01*
X44520632Y41656633D01*
X44542458Y41691367D01*
X44542620Y41692809D01*
X44543372Y41694045D01*
X44615943Y41911759D01*
X44618914Y41942189D01*
X44625719Y41972000D01*
X44625719Y42117143D01*
X44618914Y42146955D01*
X44615943Y42177384D01*
X44543372Y42395098D01*
X44542620Y42396335D01*
X44542458Y42397776D01*
X44520632Y42432511D01*
X44499338Y42467546D01*
X44498122Y42468336D01*
X44497352Y42469561D01*
X44352209Y42614704D01*
X44326317Y42630973D01*
X44302699Y42650388D01*
X44157556Y42722960D01*
X44137225Y42727919D01*
X44118565Y42737383D01*
X43828279Y42809955D01*
X43804887Y42810437D01*
X43782076Y42815643D01*
X43564362Y42815643D01*
X43541550Y42810437D01*
X43518159Y42809955D01*
X43227873Y42737383D01*
X43209213Y42727920D01*
X43188883Y42722960D01*
X43043739Y42650389D01*
X43020118Y42630972D01*
X42994229Y42614704D01*
X42849086Y42469561D01*
X42848315Y42468336D01*
X42847100Y42467546D01*
X42825786Y42432481D01*
X42803980Y42397775D01*
X42803817Y42396337D01*
X42803066Y42395099D01*
X42730495Y42177384D01*
X42727523Y42146955D01*
X42720719Y42117143D01*
X42720719Y41972000D01*
X42503005Y41972000D01*
X42503005Y43131362D01*
X42720727Y43131362D01*
X42740364Y43048887D01*
X42793841Y42983100D01*
X42870566Y42947030D01*
X42955343Y42947822D01*
X44479343Y43310680D01*
X44513569Y43327559D01*
X44548525Y43342859D01*
X44551408Y43346219D01*
X44555381Y43348177D01*
X44578899Y43378240D01*
X44603750Y43407187D01*
X44604890Y43411465D01*
X44607619Y43414952D01*
X44615764Y43452242D01*
X44625594Y43489105D01*
X44624765Y43493454D01*
X44625711Y43497780D01*
X44616871Y43534906D01*
X44609733Y43572389D01*
X44607099Y43575949D01*
X44606074Y43580255D01*
X44582010Y43609858D01*
X44559307Y43640543D01*
X44555388Y43642609D01*
X44552597Y43646042D01*
X44518073Y43662273D01*
X44484304Y43680068D01*
X44085988Y43786286D01*
X44484304Y43892503D01*
X44518073Y43910299D01*
X44552597Y43926529D01*
X44555388Y43929963D01*
X44559307Y43932028D01*
X44582010Y43962714D01*
X44606074Y43992316D01*
X44607099Y43996623D01*
X44609733Y44000182D01*
X44616871Y44037666D01*
X44625711Y44074791D01*
X44624765Y44079118D01*
X44625594Y44083466D01*
X44615766Y44120321D01*
X44607619Y44157619D01*
X44604889Y44161109D01*
X44603749Y44165384D01*
X44578904Y44194325D01*
X44555381Y44224394D01*
X44551408Y44226353D01*
X44548525Y44229712D01*
X44513569Y44245013D01*
X44479343Y44261891D01*
X42955343Y44624748D01*
X42870566Y44625540D01*
X42793841Y44589470D01*
X42740364Y44523683D01*
X42720727Y44441208D01*
X42738819Y44358380D01*
X42791058Y44291605D01*
X42867095Y44254108D01*
X43656668Y44066115D01*
X43297563Y43970353D01*
X43266012Y43953727D01*
X43233342Y43939426D01*
X43228770Y43934101D01*
X43222560Y43930828D01*
X43201348Y43902159D01*
X43178117Y43875098D01*
X43176308Y43868315D01*
X43172134Y43862673D01*
X43165462Y43827643D01*
X43156273Y43793180D01*
X43157586Y43786285D01*
X43156273Y43779389D01*
X43165462Y43744929D01*
X43172134Y43709896D01*
X43176308Y43704254D01*
X43178117Y43697472D01*
X43201346Y43670414D01*
X43222560Y43641742D01*
X43228770Y43638470D01*
X43233342Y43633144D01*
X43266012Y43618844D01*
X43297563Y43602217D01*
X43656667Y43506456D01*
X42867095Y43318462D01*
X42791057Y43280965D01*
X42738819Y43214190D01*
X42720727Y43131362D01*
X42503005Y43131362D01*
X42503005Y45165143D01*
X42720719Y45165143D01*
X42727523Y45135332D01*
X42730495Y45104902D01*
X42803066Y44887187D01*
X42847100Y44814740D01*
X42918209Y44768573D01*
X43002306Y44757830D01*
X43082736Y44784640D01*
X43143568Y44843692D01*
X43172755Y44923291D01*
X43164514Y45007670D01*
X43101719Y45196056D01*
X43101719Y45483029D01*
X43140353Y45560299D01*
X43169205Y45589151D01*
X43246476Y45627786D01*
X43301676Y45627786D01*
X43378945Y45589152D01*
X43407798Y45560299D01*
X43457192Y45461511D01*
X43524693Y45191511D01*
X43534157Y45172851D01*
X43539116Y45152520D01*
X43611688Y45007377D01*
X43631102Y44983760D01*
X43647373Y44957866D01*
X43719945Y44885295D01*
X43745837Y44869026D01*
X43769454Y44849612D01*
X43914596Y44777040D01*
X43916002Y44776697D01*
X43917135Y44775794D01*
X43957087Y44766676D01*
X43996962Y44756949D01*
X43998380Y44757251D01*
X43999790Y44756929D01*
X44144933Y44756929D01*
X44146344Y44757252D01*
X44147761Y44756950D01*
X44187602Y44766668D01*
X44227588Y44775794D01*
X44228720Y44776697D01*
X44230127Y44777040D01*
X44375270Y44849612D01*
X44398886Y44869026D01*
X44424779Y44885295D01*
X44497351Y44957867D01*
X44513616Y44983754D01*
X44533037Y45007377D01*
X44605608Y45152521D01*
X44605950Y45153927D01*
X44606854Y45155059D01*
X44615974Y45195019D01*
X44625699Y45234886D01*
X44625397Y45236305D01*
X44625719Y45237714D01*
X44625719Y45600571D01*
X44618914Y45630383D01*
X44615943Y45660811D01*
X44543372Y45878527D01*
X44499338Y45950975D01*
X44428230Y45997142D01*
X44344132Y46007884D01*
X44263703Y45981075D01*
X44202870Y45922022D01*
X44173683Y45842424D01*
X44181924Y45758045D01*
X44244719Y45569659D01*
X44244719Y45282685D01*
X44206084Y45205416D01*
X44177231Y45176564D01*
X44099962Y45137929D01*
X44044760Y45137929D01*
X43967492Y45176563D01*
X43938639Y45205416D01*
X43889244Y45304207D01*
X43821745Y45574203D01*
X43812281Y45592863D01*
X43807322Y45613193D01*
X43734751Y45758337D01*
X43715330Y45781961D01*
X43699065Y45807847D01*
X43626493Y45880419D01*
X43600602Y45896687D01*
X43576985Y45916102D01*
X43431843Y45988674D01*
X43430436Y45989018D01*
X43429303Y45989921D01*
X43389310Y45999049D01*
X43349478Y46008765D01*
X43348060Y46008464D01*
X43346648Y46008786D01*
X43201505Y46008786D01*
X43200092Y46008464D01*
X43198676Y46008765D01*
X43158850Y45999051D01*
X43118850Y45989921D01*
X43117716Y45989018D01*
X43116310Y45988674D01*
X42971167Y45916102D01*
X42947549Y45896687D01*
X42921659Y45880419D01*
X42849087Y45807848D01*
X42832816Y45781955D01*
X42813402Y45758337D01*
X42740830Y45613194D01*
X42740486Y45611788D01*
X42739584Y45610655D01*
X42730457Y45570670D01*
X42720740Y45530828D01*
X42721041Y45529412D01*
X42720719Y45528000D01*
X42720719Y45165143D01*
X42503005Y45165143D01*
X42503005Y46226500D01*
X44843433Y46226500D01*
X44843433Y41274698D01*
G37*
G36*
X41494719Y42256914D02*
G01*
X41446145Y42111192D01*
X41354660Y42019707D01*
X41255869Y41970312D01*
X41008625Y41908500D01*
X40837813Y41908500D01*
X40590565Y41970313D01*
X40491777Y42019707D01*
X40400292Y42111192D01*
X40351719Y42256913D01*
X40351719Y42398357D01*
X41494719Y42398357D01*
X41494719Y42256914D01*
G37*
G36*
X42093433Y41309786D02*
G01*
X39753005Y41309786D01*
X39753005Y42226000D01*
X39970719Y42226000D01*
X39977523Y42196189D01*
X39980495Y42165759D01*
X40053066Y41948044D01*
X40053817Y41946807D01*
X40053980Y41945368D01*
X40075786Y41910663D01*
X40097100Y41875597D01*
X40098315Y41874808D01*
X40099086Y41873582D01*
X40244229Y41728439D01*
X40270118Y41712172D01*
X40293739Y41692754D01*
X40438883Y41620183D01*
X40459213Y41615224D01*
X40477873Y41605760D01*
X40768159Y41533188D01*
X40791550Y41532707D01*
X40814362Y41527500D01*
X41032076Y41527500D01*
X41054887Y41532707D01*
X41078279Y41533188D01*
X41368565Y41605760D01*
X41387225Y41615225D01*
X41407556Y41620183D01*
X41552699Y41692755D01*
X41576317Y41712171D01*
X41602209Y41728439D01*
X41747352Y41873582D01*
X41748122Y41874808D01*
X41749338Y41875597D01*
X41770632Y41910633D01*
X41792458Y41945367D01*
X41792620Y41946809D01*
X41793372Y41948045D01*
X41865943Y42165759D01*
X41868914Y42196189D01*
X41875719Y42226000D01*
X41875719Y42588857D01*
X41870943Y42609783D01*
X41870943Y42631247D01*
X41861630Y42650585D01*
X41856854Y42671512D01*
X41843470Y42688295D01*
X41834158Y42707632D01*
X41817376Y42721015D01*
X41803994Y42737796D01*
X41784656Y42747109D01*
X41767874Y42760492D01*
X41746946Y42765269D01*
X41727609Y42774581D01*
X41706145Y42774581D01*
X41685219Y42779357D01*
X40161219Y42779357D01*
X40140293Y42774581D01*
X40118829Y42774581D01*
X40099491Y42765269D01*
X40078564Y42760492D01*
X40061781Y42747109D01*
X40042444Y42737796D01*
X40029061Y42721015D01*
X40012280Y42707632D01*
X40002967Y42688295D01*
X39989584Y42671512D01*
X39984807Y42650585D01*
X39975495Y42631247D01*
X39975495Y42609783D01*
X39970719Y42588857D01*
X39970719Y42226000D01*
X39753005Y42226000D01*
X39753005Y44156197D01*
X39972975Y44156197D01*
X39975495Y44149860D01*
X39975495Y44143038D01*
X39991052Y44110734D01*
X40004300Y44077415D01*
X40009320Y44072798D01*
X40012280Y44066653D01*
X40040317Y44044295D01*
X40066705Y44020028D01*
X40967879Y43505071D01*
X40161219Y43505071D01*
X40078564Y43486206D01*
X40012280Y43433346D01*
X39975495Y43356961D01*
X39975495Y43272181D01*
X40012280Y43195796D01*
X40078564Y43142936D01*
X40161219Y43124071D01*
X41685219Y43124071D01*
X41720174Y43132050D01*
X41755606Y43137551D01*
X41761224Y43141419D01*
X41767874Y43142936D01*
X41795903Y43165289D01*
X41825442Y43185621D01*
X41828826Y43191545D01*
X41834158Y43195796D01*
X41849712Y43228095D01*
X41867504Y43259231D01*
X41867983Y43266036D01*
X41870943Y43272181D01*
X41870943Y43308038D01*
X41873463Y43343802D01*
X41870943Y43350140D01*
X41870943Y43356961D01*
X41855387Y43389262D01*
X41842139Y43422583D01*
X41837117Y43427202D01*
X41834158Y43433346D01*
X41806124Y43455702D01*
X41779734Y43479971D01*
X40878559Y43994928D01*
X41685219Y43994928D01*
X41767874Y44013793D01*
X41834158Y44066653D01*
X41870943Y44143038D01*
X41870943Y44227818D01*
X41834158Y44304203D01*
X41767874Y44357063D01*
X41685219Y44375928D01*
X40161219Y44375928D01*
X40126262Y44367950D01*
X40090833Y44362448D01*
X40085215Y44358582D01*
X40078564Y44357063D01*
X40050528Y44334706D01*
X40020997Y44314378D01*
X40017612Y44308456D01*
X40012280Y44304203D01*
X39996723Y44271900D01*
X39978934Y44240768D01*
X39978454Y44233964D01*
X39975495Y44227818D01*
X39975495Y44191962D01*
X39972975Y44156197D01*
X39753005Y44156197D01*
X39753005Y45056285D01*
X39970719Y45056285D01*
X39971041Y45054873D01*
X39970740Y45053456D01*
X39980452Y45013639D01*
X39989584Y44973630D01*
X39990488Y44972497D01*
X39990831Y44971091D01*
X40063402Y44825949D01*
X40117240Y44760456D01*
X40194162Y44724810D01*
X40278934Y44726069D01*
X40354763Y44763984D01*
X40406633Y44831045D01*
X40424270Y44913971D01*
X40404179Y44996337D01*
X40351719Y45101256D01*
X40351719Y45243088D01*
X40400292Y45388809D01*
X40491777Y45480294D01*
X40590565Y45529688D01*
X40837813Y45591500D01*
X41008625Y45591500D01*
X41255869Y45529689D01*
X41354660Y45480294D01*
X41446145Y45388809D01*
X41494719Y45243087D01*
X41494719Y45159771D01*
X41451153Y45029071D01*
X41222576Y45029071D01*
X41222576Y45128857D01*
X41203711Y45211512D01*
X41150851Y45277796D01*
X41074466Y45314581D01*
X40989686Y45314581D01*
X40913301Y45277796D01*
X40860441Y45211512D01*
X40841576Y45128857D01*
X40841576Y44838571D01*
X40846352Y44817646D01*
X40846352Y44796181D01*
X40855664Y44776844D01*
X40860441Y44755916D01*
X40873824Y44739134D01*
X40883137Y44719796D01*
X40899918Y44706414D01*
X40913301Y44689632D01*
X40932638Y44680320D01*
X40949421Y44666936D01*
X40970348Y44662160D01*
X40989686Y44652847D01*
X41011150Y44652847D01*
X41032076Y44648071D01*
X41540076Y44648071D01*
X41571235Y44655183D01*
X41602994Y44658761D01*
X41612167Y44664525D01*
X41622731Y44666936D01*
X41647719Y44686864D01*
X41674780Y44703867D01*
X41747352Y44776439D01*
X41748122Y44777665D01*
X41749338Y44778454D01*
X41770632Y44813490D01*
X41792458Y44848224D01*
X41792620Y44849666D01*
X41793372Y44850902D01*
X41865943Y45068616D01*
X41868914Y45099046D01*
X41875719Y45128857D01*
X41875719Y45274000D01*
X41868914Y45303812D01*
X41865943Y45334241D01*
X41793372Y45551955D01*
X41792620Y45553192D01*
X41792458Y45554633D01*
X41770632Y45589368D01*
X41749338Y45624403D01*
X41748122Y45625193D01*
X41747352Y45626418D01*
X41602209Y45771561D01*
X41576317Y45787830D01*
X41552699Y45807245D01*
X41407556Y45879817D01*
X41387225Y45884776D01*
X41368565Y45894240D01*
X41078279Y45966812D01*
X41054887Y45967294D01*
X41032076Y45972500D01*
X40814362Y45972500D01*
X40791550Y45967294D01*
X40768159Y45966812D01*
X40477873Y45894240D01*
X40459213Y45884777D01*
X40438883Y45879817D01*
X40293739Y45807246D01*
X40270118Y45787829D01*
X40244229Y45771561D01*
X40099086Y45626418D01*
X40098315Y45625193D01*
X40097100Y45624403D01*
X40075786Y45589338D01*
X40053980Y45554632D01*
X40053817Y45553194D01*
X40053066Y45551956D01*
X39980495Y45334241D01*
X39977523Y45303812D01*
X39970719Y45274000D01*
X39970719Y45056285D01*
X39753005Y45056285D01*
X39753005Y46190214D01*
X42093433Y46190214D01*
X42093433Y41309786D01*
G37*
G36*
X38744719Y42220628D02*
G01*
X38696145Y42074906D01*
X38604660Y41983421D01*
X38505869Y41934026D01*
X38258625Y41872214D01*
X38087813Y41872214D01*
X37840565Y41934027D01*
X37741777Y41983421D01*
X37650292Y42074906D01*
X37601719Y42220627D01*
X37601719Y42362071D01*
X38744719Y42362071D01*
X38744719Y42220628D01*
G37*
G36*
X39343433Y41273500D02*
G01*
X37003005Y41273500D01*
X37003005Y42189714D01*
X37220719Y42189714D01*
X37227523Y42159903D01*
X37230495Y42129473D01*
X37303066Y41911758D01*
X37303817Y41910521D01*
X37303980Y41909082D01*
X37325786Y41874377D01*
X37347100Y41839311D01*
X37348315Y41838522D01*
X37349086Y41837296D01*
X37494229Y41692153D01*
X37520118Y41675886D01*
X37543739Y41656468D01*
X37688883Y41583897D01*
X37709213Y41578938D01*
X37727873Y41569474D01*
X38018159Y41496902D01*
X38041550Y41496421D01*
X38064362Y41491214D01*
X38282076Y41491214D01*
X38304887Y41496421D01*
X38328279Y41496902D01*
X38618565Y41569474D01*
X38637225Y41578939D01*
X38657556Y41583897D01*
X38802699Y41656469D01*
X38826317Y41675885D01*
X38852209Y41692153D01*
X38997352Y41837296D01*
X38998122Y41838522D01*
X38999338Y41839311D01*
X39020632Y41874347D01*
X39042458Y41909081D01*
X39042620Y41910523D01*
X39043372Y41911759D01*
X39115943Y42129473D01*
X39118914Y42159903D01*
X39125719Y42189714D01*
X39125719Y42552571D01*
X39120943Y42573497D01*
X39120943Y42594961D01*
X39111630Y42614299D01*
X39106854Y42635226D01*
X39093470Y42652009D01*
X39084158Y42671346D01*
X39067376Y42684729D01*
X39053994Y42701510D01*
X39034656Y42710823D01*
X39017874Y42724206D01*
X38996946Y42728983D01*
X38977609Y42738295D01*
X38956145Y42738295D01*
X38935219Y42743071D01*
X37411219Y42743071D01*
X37390293Y42738295D01*
X37368829Y42738295D01*
X37349491Y42728983D01*
X37328564Y42724206D01*
X37311781Y42710823D01*
X37292444Y42701510D01*
X37279061Y42684729D01*
X37262280Y42671346D01*
X37252967Y42652009D01*
X37239584Y42635226D01*
X37234807Y42614299D01*
X37225495Y42594961D01*
X37225495Y42573497D01*
X37220719Y42552571D01*
X37220719Y42189714D01*
X37003005Y42189714D01*
X37003005Y43131362D01*
X37220727Y43131362D01*
X37240364Y43048887D01*
X37293841Y42983100D01*
X37370566Y42947030D01*
X37455343Y42947822D01*
X38979343Y43310680D01*
X39013569Y43327559D01*
X39048525Y43342859D01*
X39051408Y43346219D01*
X39055381Y43348177D01*
X39078899Y43378240D01*
X39103750Y43407187D01*
X39104890Y43411465D01*
X39107619Y43414952D01*
X39115764Y43452242D01*
X39125594Y43489105D01*
X39124765Y43493454D01*
X39125711Y43497780D01*
X39116871Y43534906D01*
X39109733Y43572389D01*
X39107099Y43575949D01*
X39106074Y43580255D01*
X39082010Y43609858D01*
X39059307Y43640543D01*
X39055388Y43642609D01*
X39052597Y43646042D01*
X39018073Y43662273D01*
X38984304Y43680068D01*
X38585988Y43786286D01*
X38984304Y43892503D01*
X39018073Y43910299D01*
X39052597Y43926529D01*
X39055388Y43929963D01*
X39059307Y43932028D01*
X39082010Y43962714D01*
X39106074Y43992316D01*
X39107099Y43996623D01*
X39109733Y44000182D01*
X39116871Y44037666D01*
X39125711Y44074791D01*
X39124765Y44079118D01*
X39125594Y44083466D01*
X39115766Y44120321D01*
X39107619Y44157619D01*
X39104889Y44161109D01*
X39103749Y44165384D01*
X39078904Y44194325D01*
X39055381Y44224394D01*
X39051408Y44226353D01*
X39048525Y44229712D01*
X39013569Y44245013D01*
X38979343Y44261891D01*
X37455343Y44624748D01*
X37370566Y44625540D01*
X37293841Y44589470D01*
X37240364Y44523683D01*
X37220727Y44441208D01*
X37238819Y44358380D01*
X37291058Y44291605D01*
X37367095Y44254108D01*
X38156668Y44066115D01*
X37797563Y43970353D01*
X37766012Y43953727D01*
X37733342Y43939426D01*
X37728770Y43934101D01*
X37722560Y43930828D01*
X37701348Y43902159D01*
X37678117Y43875098D01*
X37676308Y43868315D01*
X37672134Y43862673D01*
X37665462Y43827643D01*
X37656273Y43793180D01*
X37657586Y43786285D01*
X37656273Y43779389D01*
X37665462Y43744929D01*
X37672134Y43709896D01*
X37676308Y43704254D01*
X37678117Y43697472D01*
X37701346Y43670414D01*
X37722560Y43641742D01*
X37728770Y43638470D01*
X37733342Y43633144D01*
X37766012Y43618844D01*
X37797563Y43602217D01*
X38156667Y43506456D01*
X37367095Y43318462D01*
X37291057Y43280965D01*
X37238819Y43214190D01*
X37220727Y43131362D01*
X37003005Y43131362D01*
X37003005Y45165143D01*
X37220719Y45165143D01*
X37227523Y45135332D01*
X37230495Y45104902D01*
X37303066Y44887187D01*
X37347100Y44814740D01*
X37418209Y44768573D01*
X37502306Y44757830D01*
X37582736Y44784640D01*
X37643568Y44843692D01*
X37672755Y44923291D01*
X37664514Y45007670D01*
X37601719Y45196056D01*
X37601719Y45483029D01*
X37640353Y45560299D01*
X37669205Y45589151D01*
X37746476Y45627786D01*
X37801676Y45627786D01*
X37878945Y45589152D01*
X37907798Y45560299D01*
X37957192Y45461511D01*
X38024693Y45191511D01*
X38034157Y45172851D01*
X38039116Y45152520D01*
X38111688Y45007377D01*
X38131102Y44983760D01*
X38147373Y44957866D01*
X38219945Y44885295D01*
X38245837Y44869026D01*
X38269454Y44849612D01*
X38414596Y44777040D01*
X38416002Y44776697D01*
X38417135Y44775794D01*
X38457087Y44766676D01*
X38496962Y44756949D01*
X38498380Y44757251D01*
X38499790Y44756929D01*
X38644933Y44756929D01*
X38646344Y44757252D01*
X38647761Y44756950D01*
X38687602Y44766668D01*
X38727588Y44775794D01*
X38728720Y44776697D01*
X38730127Y44777040D01*
X38875270Y44849612D01*
X38898886Y44869026D01*
X38924779Y44885295D01*
X38997351Y44957867D01*
X39013616Y44983754D01*
X39033037Y45007377D01*
X39105608Y45152521D01*
X39105950Y45153927D01*
X39106854Y45155059D01*
X39115974Y45195019D01*
X39125699Y45234886D01*
X39125397Y45236305D01*
X39125719Y45237714D01*
X39125719Y45600571D01*
X39118914Y45630383D01*
X39115943Y45660811D01*
X39043372Y45878527D01*
X38999338Y45950975D01*
X38928230Y45997142D01*
X38844132Y46007884D01*
X38763703Y45981075D01*
X38702870Y45922022D01*
X38673683Y45842424D01*
X38681924Y45758045D01*
X38744719Y45569659D01*
X38744719Y45282685D01*
X38706084Y45205416D01*
X38677231Y45176564D01*
X38599962Y45137929D01*
X38544760Y45137929D01*
X38467492Y45176563D01*
X38438639Y45205416D01*
X38389244Y45304207D01*
X38321745Y45574203D01*
X38312281Y45592863D01*
X38307322Y45613193D01*
X38234751Y45758337D01*
X38215330Y45781961D01*
X38199065Y45807847D01*
X38126493Y45880419D01*
X38100602Y45896687D01*
X38076985Y45916102D01*
X37931843Y45988674D01*
X37930436Y45989018D01*
X37929303Y45989921D01*
X37889310Y45999049D01*
X37849478Y46008765D01*
X37848060Y46008464D01*
X37846648Y46008786D01*
X37701505Y46008786D01*
X37700092Y46008464D01*
X37698676Y46008765D01*
X37658850Y45999051D01*
X37618850Y45989921D01*
X37617716Y45989018D01*
X37616310Y45988674D01*
X37471167Y45916102D01*
X37447549Y45896687D01*
X37421659Y45880419D01*
X37349087Y45807848D01*
X37332816Y45781955D01*
X37313402Y45758337D01*
X37240830Y45613194D01*
X37240486Y45611788D01*
X37239584Y45610655D01*
X37230457Y45570670D01*
X37220740Y45530828D01*
X37221041Y45529412D01*
X37220719Y45528000D01*
X37220719Y45165143D01*
X37003005Y45165143D01*
X37003005Y46226500D01*
X39343433Y46226500D01*
X39343433Y41273500D01*
G37*
D13*
G36*
X13874524Y30850936D02*
G01*
X13207997Y30850936D01*
X12950434Y30979718D01*
X12854258Y31075894D01*
X12725476Y31333458D01*
X12725476Y32485080D01*
X12854258Y32742644D01*
X12950434Y32838821D01*
X13207997Y32967602D01*
X13874524Y32967602D01*
X13874524Y30850936D01*
G37*
G36*
X18487659Y34532155D02*
G01*
X18583837Y34435977D01*
X18748483Y34106685D01*
X18954523Y33282525D01*
X18954523Y32229348D01*
X18748483Y31405187D01*
X18583837Y31075894D01*
X18487661Y30979719D01*
X18230096Y30850936D01*
X18046092Y30850936D01*
X17788529Y30979718D01*
X17692353Y31075894D01*
X17527704Y31405192D01*
X17321666Y32229345D01*
X17321666Y33282528D01*
X17527704Y34106681D01*
X17692352Y34435977D01*
X17788530Y34532155D01*
X18046093Y34660936D01*
X18230097Y34660936D01*
X18487659Y34532155D01*
G37*
G36*
X28163849Y34532155D02*
G01*
X28260027Y34435977D01*
X28424673Y34106685D01*
X28630713Y33282525D01*
X28630713Y32229348D01*
X28424673Y31405187D01*
X28260027Y31075894D01*
X28163851Y30979719D01*
X27906286Y30850936D01*
X27722282Y30850936D01*
X27464719Y30979718D01*
X27368543Y31075894D01*
X27203894Y31405192D01*
X26997856Y32229345D01*
X26997856Y33282528D01*
X27203894Y34106681D01*
X27368542Y34435977D01*
X27464720Y34532155D01*
X27722283Y34660936D01*
X27906287Y34660936D01*
X28163849Y34532155D01*
G37*
G36*
X38306904Y33269983D02*
G01*
X37156569Y33269983D01*
X36899005Y33398765D01*
X36802829Y33494941D01*
X36674047Y33752506D01*
X36674047Y34178414D01*
X36802829Y34435979D01*
X36899005Y34532154D01*
X37156569Y34660936D01*
X38306904Y34660936D01*
X38306904Y33269983D01*
G37*
G36*
X43386904Y33269983D02*
G01*
X42236569Y33269983D01*
X41979005Y33398765D01*
X41882829Y33494941D01*
X41754047Y33752506D01*
X41754047Y34178414D01*
X41882829Y34435979D01*
X41979005Y34532154D01*
X42236569Y34660936D01*
X43386904Y34660936D01*
X43386904Y33269983D01*
G37*
G36*
X45382618Y27163141D02*
G01*
X6375657Y27163141D01*
X6375657Y30472966D01*
X7101371Y30472966D01*
X7117553Y30314618D01*
X7172606Y30165269D01*
X7263072Y30034303D01*
X7383265Y29929949D01*
X7452211Y29889878D01*
X7936020Y29647974D01*
X7962058Y29638823D01*
X7986241Y29625528D01*
X8036870Y29612529D01*
X8086188Y29595195D01*
X8113682Y29592807D01*
X8140413Y29585943D01*
X8220000Y29580936D01*
X9187619Y29580936D01*
X9215000Y29584396D01*
X9242576Y29583319D01*
X9293678Y29594335D01*
X9345537Y29600886D01*
X9371192Y29611044D01*
X9398175Y29616860D01*
X9471599Y29647974D01*
X9955409Y29889878D01*
X10007099Y29924437D01*
X10060625Y29956091D01*
X10080012Y29973184D01*
X10087733Y29978345D01*
X10094720Y29986151D01*
X10120442Y30008827D01*
X10362347Y30250732D01*
X10400458Y30299866D01*
X10441225Y30346820D01*
X10454210Y30369164D01*
X10459905Y30376504D01*
X10464066Y30386121D01*
X10481296Y30415765D01*
X10723200Y30899576D01*
X10732350Y30925612D01*
X10745646Y30949796D01*
X10758646Y31000430D01*
X10775979Y31049744D01*
X10778367Y31077237D01*
X10785231Y31103968D01*
X10790238Y31183555D01*
X11455476Y31183555D01*
X11458935Y31156174D01*
X11457859Y31128597D01*
X11468874Y31077498D01*
X11475426Y31025637D01*
X11485585Y30999978D01*
X11491401Y30972998D01*
X11522515Y30899574D01*
X11764420Y30415764D01*
X11798974Y30364079D01*
X11830632Y30310549D01*
X11847725Y30291161D01*
X11852887Y30283440D01*
X11860691Y30276454D01*
X11883368Y30250732D01*
X12125273Y30008827D01*
X12174401Y29970720D01*
X12221360Y29929949D01*
X12243706Y29916962D01*
X12251045Y29911269D01*
X12260659Y29907109D01*
X12290306Y29889878D01*
X12774115Y29647974D01*
X12800153Y29638823D01*
X12824336Y29625528D01*
X12874965Y29612529D01*
X12924283Y29595195D01*
X12951777Y29592807D01*
X12978508Y29585943D01*
X13058095Y29580936D01*
X13874524Y29580936D01*
X13874524Y28522602D01*
X13894474Y28364684D01*
X13953069Y28216688D01*
X14046629Y28087915D01*
X14169274Y27986454D01*
X14313298Y27918681D01*
X14469652Y27888855D01*
X14628511Y27898850D01*
X14779894Y27948037D01*
X14914288Y28033326D01*
X15023250Y28149358D01*
X15099932Y28288843D01*
X15139517Y28443015D01*
X15144524Y28522602D01*
X15144524Y32151174D01*
X16051666Y32151174D01*
X16056421Y32113535D01*
X16056180Y32075589D01*
X16070626Y31997164D01*
X16312531Y31029545D01*
X16323255Y31001948D01*
X16329496Y30972998D01*
X16360610Y30899574D01*
X16602515Y30415764D01*
X16637069Y30364079D01*
X16668727Y30310549D01*
X16685820Y30291161D01*
X16690982Y30283440D01*
X16698786Y30276454D01*
X16721463Y30250732D01*
X16963368Y30008827D01*
X17012496Y29970720D01*
X17059455Y29929949D01*
X17081801Y29916962D01*
X17089140Y29911269D01*
X17098754Y29907109D01*
X17128401Y29889878D01*
X17612210Y29647974D01*
X17638248Y29638823D01*
X17662431Y29625528D01*
X17713060Y29612529D01*
X17762378Y29595195D01*
X17789872Y29592807D01*
X17816603Y29585943D01*
X17896190Y29580936D01*
X18380000Y29580936D01*
X18407381Y29584396D01*
X18434958Y29583319D01*
X18486057Y29594335D01*
X18537918Y29600886D01*
X18563578Y29611046D01*
X18590556Y29616861D01*
X18663980Y29647974D01*
X19147789Y29889879D01*
X19199475Y29924434D01*
X19253005Y29956091D01*
X19272389Y29973181D01*
X19280114Y29978345D01*
X19287104Y29986155D01*
X19312822Y30008827D01*
X19554727Y30250732D01*
X19592839Y30299868D01*
X19633604Y30346819D01*
X19646589Y30369161D01*
X19652285Y30376504D01*
X19656447Y30386123D01*
X19673675Y30415764D01*
X19915580Y30899574D01*
X19925399Y30927512D01*
X19939499Y30953549D01*
X19963660Y31029545D01*
X20193558Y31949141D01*
X20649110Y31949141D01*
X20659105Y31790282D01*
X20708292Y31638899D01*
X20793581Y31504505D01*
X20909613Y31395543D01*
X21049098Y31318861D01*
X21203270Y31279276D01*
X21282857Y31274269D01*
X21373571Y31274269D01*
X21373571Y30215936D01*
X21393521Y30058018D01*
X21452116Y29910022D01*
X21545676Y29781249D01*
X21668321Y29679788D01*
X21812345Y29612015D01*
X21968699Y29582189D01*
X22127558Y29592184D01*
X22278941Y29641371D01*
X22413335Y29726660D01*
X22522297Y29842692D01*
X22598979Y29982177D01*
X22638564Y30136349D01*
X22643571Y30215936D01*
X22643571Y31274269D01*
X24427618Y31274269D01*
X24430029Y31274574D01*
X24432438Y31274288D01*
X24508865Y31284534D01*
X24585536Y31294219D01*
X24587795Y31295114D01*
X24590200Y31295436D01*
X24661646Y31324354D01*
X24733532Y31352814D01*
X24735500Y31354245D01*
X24737746Y31355153D01*
X24799762Y31400934D01*
X24862305Y31446374D01*
X24863853Y31448247D01*
X24865807Y31449688D01*
X24914536Y31509511D01*
X24963766Y31569019D01*
X24964800Y31571218D01*
X24966333Y31573099D01*
X24998652Y31643157D01*
X25031539Y31713043D01*
X25031994Y31715429D01*
X25033011Y31717633D01*
X25046893Y31793534D01*
X25061365Y31869397D01*
X25061212Y31871823D01*
X25061649Y31874209D01*
X25056217Y31951203D01*
X25051370Y32028256D01*
X25050619Y32030565D01*
X25050449Y32032988D01*
X25030032Y32110074D01*
X25016332Y32151174D01*
X25727856Y32151174D01*
X25732611Y32113535D01*
X25732370Y32075589D01*
X25746816Y31997164D01*
X25988721Y31029545D01*
X25999445Y31001948D01*
X26005686Y30972998D01*
X26036800Y30899574D01*
X26278705Y30415764D01*
X26313259Y30364079D01*
X26344917Y30310549D01*
X26362010Y30291161D01*
X26367172Y30283440D01*
X26374976Y30276454D01*
X26397653Y30250732D01*
X26639558Y30008827D01*
X26688686Y29970720D01*
X26735645Y29929949D01*
X26757991Y29916962D01*
X26765330Y29911269D01*
X26774944Y29907109D01*
X26804591Y29889878D01*
X27288400Y29647974D01*
X27314438Y29638823D01*
X27338621Y29625528D01*
X27389250Y29612529D01*
X27438568Y29595195D01*
X27466062Y29592807D01*
X27492793Y29585943D01*
X27572380Y29580936D01*
X28056190Y29580936D01*
X28083571Y29584396D01*
X28111148Y29583319D01*
X28162247Y29594335D01*
X28214108Y29600886D01*
X28239768Y29611046D01*
X28266746Y29616861D01*
X28340170Y29647974D01*
X28823979Y29889879D01*
X28875665Y29924434D01*
X28929195Y29956091D01*
X28948579Y29973181D01*
X28956304Y29978345D01*
X28963294Y29986155D01*
X28989012Y30008827D01*
X29230917Y30250732D01*
X29269029Y30299868D01*
X29309794Y30346819D01*
X29322779Y30369161D01*
X29328475Y30376504D01*
X29332637Y30386123D01*
X29349865Y30415764D01*
X29591770Y30899574D01*
X29601589Y30927512D01*
X29615689Y30953549D01*
X29639850Y31029545D01*
X29881754Y31997165D01*
X29886270Y32034838D01*
X29895706Y32071587D01*
X29900713Y32151174D01*
X29900713Y33360698D01*
X29895957Y33398338D01*
X29896199Y33436282D01*
X29881754Y33514707D01*
X29799304Y33844507D01*
X30565951Y33844507D01*
X30573744Y33782814D01*
X30578120Y33720788D01*
X30584736Y33695807D01*
X30585901Y33686589D01*
X30589758Y33676846D01*
X30598537Y33643702D01*
X30840442Y32917988D01*
X30852382Y32893107D01*
X30860082Y32866604D01*
X30886694Y32821605D01*
X30909307Y32774483D01*
X30927055Y32753358D01*
X30941107Y32729597D01*
X30993843Y32669780D01*
X32812687Y30850936D01*
X31200951Y30850936D01*
X31043033Y30830986D01*
X30895037Y30772391D01*
X30766264Y30678831D01*
X30664803Y30556186D01*
X30597030Y30412162D01*
X30567204Y30255808D01*
X30577199Y30096949D01*
X30626386Y29945566D01*
X30711675Y29811172D01*
X30827707Y29702210D01*
X30967192Y29625528D01*
X31121364Y29585943D01*
X31200951Y29580936D01*
X34345713Y29580936D01*
X34414847Y29589670D01*
X34484234Y29596229D01*
X34493676Y29599629D01*
X34503631Y29600886D01*
X34568414Y29626536D01*
X34633997Y29650146D01*
X34642298Y29655788D01*
X34651627Y29659481D01*
X34707996Y29700437D01*
X34765646Y29739615D01*
X34772283Y29747145D01*
X34780400Y29753041D01*
X34824814Y29806730D01*
X34870909Y29859013D01*
X34875464Y29867955D01*
X34881861Y29875686D01*
X34911534Y29938745D01*
X34943172Y30000837D01*
X34945360Y30010630D01*
X34949634Y30019710D01*
X34962692Y30088168D01*
X34977895Y30156177D01*
X34977579Y30166208D01*
X34979460Y30176064D01*
X34975085Y30245593D01*
X34972896Y30315272D01*
X34970094Y30324914D01*
X34969465Y30334923D01*
X34947935Y30401184D01*
X34928487Y30468125D01*
X34923378Y30476763D01*
X34920278Y30486306D01*
X34882941Y30545140D01*
X34847462Y30605132D01*
X34838205Y30615631D01*
X34834989Y30620700D01*
X34827713Y30627533D01*
X34794726Y30664949D01*
X31997866Y33461809D01*
X31950935Y33602602D01*
X35404047Y33602602D01*
X35407506Y33575221D01*
X35406430Y33547644D01*
X35417445Y33496545D01*
X35423997Y33444684D01*
X35434156Y33419024D01*
X35439972Y33392046D01*
X35471085Y33318622D01*
X35712990Y32834813D01*
X35747544Y32783127D01*
X35779202Y32729597D01*
X35796291Y32710213D01*
X35801456Y32702488D01*
X35809265Y32695498D01*
X35831938Y32669780D01*
X36073843Y32427875D01*
X36122978Y32389763D01*
X36169930Y32348998D01*
X36192271Y32336013D01*
X36199615Y32330317D01*
X36209233Y32326155D01*
X36238875Y32308927D01*
X36722685Y32067022D01*
X36748722Y32057871D01*
X36772907Y32044575D01*
X36823536Y32031576D01*
X36872853Y32014242D01*
X36900347Y32011854D01*
X36927079Y32004990D01*
X37006666Y31999983D01*
X38306904Y31999983D01*
X38306904Y30215936D01*
X38326854Y30058018D01*
X38385449Y29910022D01*
X38479009Y29781249D01*
X38601654Y29679788D01*
X38745678Y29612015D01*
X38902032Y29582189D01*
X39060891Y29592184D01*
X39212274Y29641371D01*
X39346668Y29726660D01*
X39455630Y29842692D01*
X39532312Y29982177D01*
X39571897Y30136349D01*
X39576904Y30215936D01*
X39576904Y33602602D01*
X40484047Y33602602D01*
X40487506Y33575221D01*
X40486430Y33547644D01*
X40497445Y33496545D01*
X40503997Y33444684D01*
X40514156Y33419024D01*
X40519972Y33392046D01*
X40551085Y33318622D01*
X40792990Y32834813D01*
X40827544Y32783127D01*
X40859202Y32729597D01*
X40876291Y32710213D01*
X40881456Y32702488D01*
X40889265Y32695498D01*
X40911938Y32669780D01*
X41153843Y32427875D01*
X41202978Y32389763D01*
X41249930Y32348998D01*
X41272271Y32336013D01*
X41279615Y32330317D01*
X41289233Y32326155D01*
X41318875Y32308927D01*
X41681949Y32127390D01*
X40598835Y30580085D01*
X40524618Y30439273D01*
X40487751Y30284427D01*
X40490552Y30125279D01*
X40532843Y29971827D01*
X40611966Y29833713D01*
X40722953Y29719615D01*
X40858827Y29636704D01*
X41011051Y29590187D01*
X41170061Y29582989D01*
X41325866Y29615560D01*
X41468676Y29685856D01*
X41589517Y29789459D01*
X41639259Y29851787D01*
X43142996Y31999983D01*
X43386904Y31999983D01*
X43386904Y30215936D01*
X43406854Y30058018D01*
X43465449Y29910022D01*
X43559009Y29781249D01*
X43681654Y29679788D01*
X43825678Y29612015D01*
X43982032Y29582189D01*
X44140891Y29592184D01*
X44292274Y29641371D01*
X44426668Y29726660D01*
X44535630Y29842692D01*
X44612312Y29982177D01*
X44651897Y30136349D01*
X44656904Y30215936D01*
X44656904Y35295936D01*
X44649410Y35355255D01*
X44645656Y35414923D01*
X44639465Y35433977D01*
X44636954Y35453854D01*
X44614943Y35509447D01*
X44596469Y35566306D01*
X44585735Y35583221D01*
X44578359Y35601850D01*
X44543214Y35650223D01*
X44511180Y35700700D01*
X44496574Y35714416D01*
X44484799Y35730623D01*
X44438737Y35768729D01*
X44395148Y35809662D01*
X44377588Y35819316D01*
X44362154Y35832084D01*
X44308057Y35857540D01*
X44255663Y35886344D01*
X44236258Y35891327D01*
X44218130Y35899857D01*
X44159400Y35911061D01*
X44101491Y35925929D01*
X44071595Y35927810D01*
X44061776Y35929683D01*
X44051798Y35929056D01*
X44021904Y35930936D01*
X42086666Y35930936D01*
X42059284Y35927477D01*
X42031708Y35928553D01*
X41980608Y35917538D01*
X41928748Y35910986D01*
X41903088Y35900827D01*
X41876109Y35895011D01*
X41802685Y35863897D01*
X41318875Y35621992D01*
X41267189Y35587438D01*
X41213660Y35555780D01*
X41194271Y35538687D01*
X41186551Y35533525D01*
X41179564Y35525721D01*
X41153843Y35503044D01*
X40911938Y35261139D01*
X40873830Y35212011D01*
X40833060Y35165052D01*
X40820073Y35142708D01*
X40814380Y35135367D01*
X40810217Y35125749D01*
X40792990Y35096106D01*
X40551085Y34612297D01*
X40541933Y34586259D01*
X40528639Y34562076D01*
X40515639Y34511447D01*
X40498306Y34462129D01*
X40495917Y34434636D01*
X40489054Y34407904D01*
X40484047Y34328317D01*
X40484047Y33602602D01*
X39576904Y33602602D01*
X39576904Y35295936D01*
X39569410Y35355255D01*
X39565656Y35414923D01*
X39559465Y35433977D01*
X39556954Y35453854D01*
X39534943Y35509447D01*
X39516469Y35566306D01*
X39505735Y35583221D01*
X39498359Y35601850D01*
X39463214Y35650223D01*
X39431180Y35700700D01*
X39416574Y35714416D01*
X39404799Y35730623D01*
X39358737Y35768729D01*
X39315148Y35809662D01*
X39297588Y35819316D01*
X39282154Y35832084D01*
X39228057Y35857540D01*
X39175663Y35886344D01*
X39156258Y35891327D01*
X39138130Y35899857D01*
X39079400Y35911061D01*
X39021491Y35925929D01*
X38991595Y35927810D01*
X38981776Y35929683D01*
X38971798Y35929056D01*
X38941904Y35930936D01*
X37006666Y35930936D01*
X36979284Y35927477D01*
X36951708Y35928553D01*
X36900608Y35917538D01*
X36848748Y35910986D01*
X36823088Y35900827D01*
X36796109Y35895011D01*
X36722685Y35863897D01*
X36238875Y35621992D01*
X36187189Y35587438D01*
X36133660Y35555780D01*
X36114271Y35538687D01*
X36106551Y35533525D01*
X36099564Y35525721D01*
X36073843Y35503044D01*
X35831938Y35261139D01*
X35793830Y35212011D01*
X35753060Y35165052D01*
X35740073Y35142708D01*
X35734380Y35135367D01*
X35730217Y35125749D01*
X35712990Y35096106D01*
X35471085Y34612297D01*
X35461933Y34586259D01*
X35448639Y34562076D01*
X35435639Y34511447D01*
X35418306Y34462129D01*
X35415917Y34434636D01*
X35409054Y34407904D01*
X35404047Y34328317D01*
X35404047Y33602602D01*
X31950935Y33602602D01*
X31835951Y33947555D01*
X31835951Y34178414D01*
X31964732Y34435977D01*
X32060910Y34532155D01*
X32318473Y34660936D01*
X33228191Y34660936D01*
X33485755Y34532154D01*
X33654795Y34363114D01*
X33780566Y34265555D01*
X33926648Y34202339D01*
X34083861Y34177439D01*
X34242328Y34192418D01*
X34392091Y34246336D01*
X34523740Y34335804D01*
X34629003Y34455202D01*
X34701267Y34597026D01*
X34735990Y34752365D01*
X34730991Y34911460D01*
X34686583Y35064313D01*
X34605558Y35201321D01*
X34552822Y35261138D01*
X34310918Y35503043D01*
X34261784Y35541155D01*
X34214830Y35581921D01*
X34192486Y35594907D01*
X34185146Y35600601D01*
X34175529Y35604763D01*
X34145885Y35621992D01*
X33662075Y35863897D01*
X33636037Y35873049D01*
X33611853Y35886344D01*
X33561223Y35899344D01*
X33511907Y35916677D01*
X33484412Y35919066D01*
X33457681Y35925929D01*
X33378094Y35930936D01*
X32168570Y35930936D01*
X32141188Y35927477D01*
X32113611Y35928553D01*
X32062510Y35917538D01*
X32010652Y35910986D01*
X31984993Y35900828D01*
X31958013Y35895011D01*
X31884589Y35863897D01*
X31400780Y35621992D01*
X31349094Y35587438D01*
X31295565Y35555780D01*
X31276176Y35538687D01*
X31268456Y35533525D01*
X31261469Y35525721D01*
X31235748Y35503044D01*
X30993843Y35261139D01*
X30955731Y35212006D01*
X30914966Y35165053D01*
X30901979Y35142709D01*
X30896285Y35135367D01*
X30892123Y35125750D01*
X30874895Y35096107D01*
X30632990Y34612298D01*
X30623839Y34586262D01*
X30610543Y34562076D01*
X30597541Y34511440D01*
X30580211Y34462130D01*
X30577822Y34434640D01*
X30570958Y34407904D01*
X30565951Y34328317D01*
X30565951Y33844507D01*
X29799304Y33844507D01*
X29639850Y34482327D01*
X29629123Y34509930D01*
X29622884Y34538874D01*
X29591770Y34612298D01*
X29349865Y35096107D01*
X29315310Y35147793D01*
X29283653Y35201322D01*
X29266559Y35220711D01*
X29261398Y35228431D01*
X29253593Y35235418D01*
X29230917Y35261139D01*
X28989012Y35503044D01*
X28939878Y35541156D01*
X28892926Y35581921D01*
X28870581Y35594908D01*
X28863240Y35600602D01*
X28853622Y35604764D01*
X28823980Y35621992D01*
X28340171Y35863897D01*
X28314134Y35873048D01*
X28289949Y35886344D01*
X28239312Y35899346D01*
X28190003Y35916676D01*
X28162512Y35919065D01*
X28135777Y35925929D01*
X28056190Y35930936D01*
X27572380Y35930936D01*
X27544998Y35927477D01*
X27517421Y35928553D01*
X27466320Y35917538D01*
X27414462Y35910986D01*
X27388803Y35900828D01*
X27361823Y35895011D01*
X27288399Y35863897D01*
X26804590Y35621992D01*
X26752904Y35587438D01*
X26699375Y35555780D01*
X26679986Y35538687D01*
X26672266Y35533525D01*
X26665279Y35525721D01*
X26639558Y35503044D01*
X26397653Y35261139D01*
X26359541Y35212006D01*
X26318776Y35165053D01*
X26305789Y35142709D01*
X26300095Y35135367D01*
X26295933Y35125750D01*
X26278705Y35096107D01*
X26036800Y34612298D01*
X26026982Y34584365D01*
X26012881Y34558324D01*
X25988721Y34482327D01*
X25746816Y33514708D01*
X25742300Y33477040D01*
X25732863Y33440285D01*
X25727856Y33360698D01*
X25727856Y32151174D01*
X25016332Y32151174D01*
X23820509Y35738645D01*
X23751645Y35882150D01*
X23649256Y36004022D01*
X23519776Y36096600D01*
X23371340Y36154071D01*
X23213275Y36172822D01*
X23055513Y36151674D01*
X22907966Y36091956D01*
X22779906Y35997422D01*
X22679380Y35874010D01*
X22612702Y35729476D01*
X22584064Y35572900D01*
X22595264Y35414122D01*
X22615681Y35337035D01*
X23546603Y32544269D01*
X22643571Y32544269D01*
X22643571Y33602602D01*
X22623621Y33760520D01*
X22565026Y33908516D01*
X22471466Y34037289D01*
X22348821Y34138750D01*
X22204797Y34206523D01*
X22048443Y34236349D01*
X21889584Y34226354D01*
X21738201Y34177167D01*
X21603807Y34091878D01*
X21494845Y33975846D01*
X21418163Y33836361D01*
X21378578Y33682189D01*
X21373571Y33602602D01*
X21373571Y32544269D01*
X21282857Y32544269D01*
X21124939Y32524319D01*
X20976943Y32465724D01*
X20848170Y32372164D01*
X20746709Y32249519D01*
X20678936Y32105495D01*
X20649110Y31949141D01*
X20193558Y31949141D01*
X20205564Y31997165D01*
X20210080Y32034838D01*
X20219516Y32071587D01*
X20224523Y32151174D01*
X20224523Y33360698D01*
X20219767Y33398338D01*
X20220009Y33436282D01*
X20205564Y33514707D01*
X19963660Y34482327D01*
X19952933Y34509930D01*
X19946694Y34538874D01*
X19915580Y34612298D01*
X19673675Y35096107D01*
X19639120Y35147793D01*
X19607463Y35201322D01*
X19590369Y35220711D01*
X19585208Y35228431D01*
X19577403Y35235418D01*
X19554727Y35261139D01*
X19312822Y35503044D01*
X19263688Y35541156D01*
X19216736Y35581921D01*
X19194391Y35594908D01*
X19187050Y35600602D01*
X19177432Y35604764D01*
X19147790Y35621992D01*
X18663981Y35863897D01*
X18637944Y35873048D01*
X18613759Y35886344D01*
X18563122Y35899346D01*
X18513813Y35916676D01*
X18486322Y35919065D01*
X18459587Y35925929D01*
X18380000Y35930936D01*
X17896190Y35930936D01*
X17868808Y35927477D01*
X17841231Y35928553D01*
X17790130Y35917538D01*
X17738272Y35910986D01*
X17712613Y35900828D01*
X17685633Y35895011D01*
X17612209Y35863897D01*
X17128400Y35621992D01*
X17076714Y35587438D01*
X17023185Y35555780D01*
X17003796Y35538687D01*
X16996076Y35533525D01*
X16989089Y35525721D01*
X16963368Y35503044D01*
X16721463Y35261139D01*
X16683351Y35212006D01*
X16642586Y35165053D01*
X16629599Y35142709D01*
X16623905Y35135367D01*
X16619743Y35125750D01*
X16602515Y35096107D01*
X16360610Y34612298D01*
X16350792Y34584365D01*
X16336691Y34558324D01*
X16312531Y34482327D01*
X16070626Y33514708D01*
X16066110Y33477040D01*
X16056673Y33440285D01*
X16051666Y33360698D01*
X16051666Y32151174D01*
X15144524Y32151174D01*
X15144524Y33602602D01*
X15124574Y33760520D01*
X15065979Y33908516D01*
X14972419Y34037289D01*
X14849774Y34138750D01*
X14705750Y34206523D01*
X14549396Y34236349D01*
X14390537Y34226354D01*
X14270038Y34187202D01*
X14259473Y34193010D01*
X14208843Y34206010D01*
X14159526Y34223343D01*
X14132032Y34225732D01*
X14105301Y34232595D01*
X14025714Y34237602D01*
X13058095Y34237602D01*
X13030713Y34234143D01*
X13003138Y34235219D01*
X12952035Y34224204D01*
X12900177Y34217652D01*
X12874521Y34207495D01*
X12847539Y34201678D01*
X12774115Y34170564D01*
X12290306Y33928660D01*
X12238615Y33894102D01*
X12185090Y33862447D01*
X12165702Y33845355D01*
X12157982Y33840193D01*
X12150994Y33832388D01*
X12125273Y33809711D01*
X11883368Y33567806D01*
X11845255Y33518671D01*
X11804491Y33471719D01*
X11791505Y33449378D01*
X11785810Y33442034D01*
X11781647Y33432416D01*
X11764420Y33402774D01*
X11522515Y32918964D01*
X11513363Y32892927D01*
X11500068Y32868742D01*
X11487068Y32818113D01*
X11469735Y32768796D01*
X11467346Y32741302D01*
X11460483Y32714570D01*
X11455476Y32634983D01*
X11455476Y31183555D01*
X10790238Y31183555D01*
X10790238Y32634983D01*
X10786778Y32662365D01*
X10787855Y32689940D01*
X10776839Y32741042D01*
X10770288Y32792901D01*
X10760129Y32818558D01*
X10754314Y32845538D01*
X10723200Y32918962D01*
X10481296Y33402773D01*
X10446737Y33454464D01*
X10415083Y33507989D01*
X10397990Y33527377D01*
X10392829Y33535097D01*
X10385024Y33542085D01*
X10362347Y33567806D01*
X10120442Y33809711D01*
X10071313Y33847819D01*
X10024355Y33888589D01*
X10002008Y33901577D01*
X9994670Y33907269D01*
X9985055Y33911430D01*
X9955409Y33928660D01*
X9471599Y34170564D01*
X9445560Y34179716D01*
X9421378Y34193010D01*
X9370748Y34206010D01*
X9321431Y34223343D01*
X9293937Y34225732D01*
X9267206Y34232595D01*
X9187619Y34237602D01*
X8220000Y34237602D01*
X8192618Y34234143D01*
X8165043Y34235219D01*
X8113940Y34224204D01*
X8062082Y34217652D01*
X8036426Y34207495D01*
X8009444Y34201678D01*
X7936020Y34170564D01*
X7452211Y33928660D01*
X7319887Y33840193D01*
X7213719Y33721598D01*
X7140382Y33580326D01*
X7104481Y33425255D01*
X7108273Y33266127D01*
X7151519Y33112941D01*
X7231503Y32975323D01*
X7343197Y32861919D01*
X7479585Y32779855D01*
X7632096Y32734288D01*
X7791149Y32728081D01*
X7946747Y32761623D01*
X8020171Y32792736D01*
X8369902Y32967602D01*
X9037716Y32967602D01*
X9295280Y32838821D01*
X9391455Y32742646D01*
X9520238Y32485080D01*
X9520238Y31333459D01*
X9391455Y31075893D01*
X9295280Y30979718D01*
X9037716Y30850936D01*
X8369902Y30850936D01*
X8020171Y31025802D01*
X7870003Y31078581D01*
X7711427Y31092357D01*
X7554408Y31066264D01*
X7408810Y31001941D01*
X7283782Y30903431D01*
X7187181Y30776922D01*
X7125078Y30630365D01*
X7101371Y30472966D01*
X6375657Y30472966D01*
X6375657Y36898536D01*
X45382618Y36898536D01*
X45382618Y27163141D01*
G37*
D11*
G36*
X36485429Y18498188D02*
G01*
X36352123Y18498188D01*
X36300611Y18523944D01*
X36281374Y18543181D01*
X36255619Y18594691D01*
X36255619Y18825017D01*
X36281374Y18876527D01*
X36300613Y18895766D01*
X36352123Y18921521D01*
X36485429Y18921521D01*
X36485429Y18498188D01*
G37*
G36*
X22119672Y18895766D02*
G01*
X22138911Y18876527D01*
X22164666Y18825017D01*
X22164666Y18594691D01*
X22138911Y18543181D01*
X22119673Y18523944D01*
X22068162Y18498188D01*
X21982979Y18498188D01*
X21931467Y18523944D01*
X21912230Y18543181D01*
X21886475Y18594691D01*
X21886475Y18825017D01*
X21912230Y18876527D01*
X21931469Y18895766D01*
X21982979Y18921521D01*
X22068162Y18921521D01*
X22119672Y18895766D01*
G37*
G36*
X25196625Y18905480D02*
G01*
X25212666Y18873398D01*
X25212666Y18864770D01*
X25001815Y18906940D01*
X25030979Y18921521D01*
X25164543Y18921521D01*
X25196625Y18905480D01*
G37*
G36*
X28457577Y18895766D02*
G01*
X28476816Y18876527D01*
X28502571Y18825017D01*
X28502571Y18594691D01*
X28476816Y18543181D01*
X28457578Y18523944D01*
X28406067Y18498188D01*
X28320884Y18498188D01*
X28269372Y18523944D01*
X28250135Y18543181D01*
X28224380Y18594691D01*
X28224380Y18825017D01*
X28250135Y18876527D01*
X28269374Y18895766D01*
X28320884Y18921521D01*
X28406067Y18921521D01*
X28457577Y18895766D01*
G37*
G36*
X38964952Y17761671D02*
G01*
X20181047Y17761671D01*
X20181047Y18371188D01*
X20326190Y18371188D01*
X20346351Y18302527D01*
X20400432Y18255665D01*
X20471264Y18245481D01*
X20536357Y18275208D01*
X20575046Y18335408D01*
X20580190Y18371188D01*
X20580190Y18873398D01*
X20596230Y18905480D01*
X20628313Y18921521D01*
X20713495Y18921521D01*
X20745577Y18905480D01*
X20761618Y18873398D01*
X20761618Y18371188D01*
X20781779Y18302527D01*
X20835860Y18255665D01*
X20906692Y18245481D01*
X20971785Y18275208D01*
X21010474Y18335408D01*
X21015618Y18371188D01*
X21015618Y18873398D01*
X21031659Y18905480D01*
X21063741Y18921521D01*
X21148924Y18921521D01*
X21197047Y18897460D01*
X21197047Y18371188D01*
X21217208Y18302527D01*
X21271289Y18255665D01*
X21342121Y18245481D01*
X21407214Y18275208D01*
X21445903Y18335408D01*
X21451047Y18371188D01*
X21451047Y18564711D01*
X21632475Y18564711D01*
X21635718Y18553666D01*
X21634482Y18542218D01*
X21645883Y18507915D01*
X21694264Y18411153D01*
X21695884Y18409411D01*
X21696391Y18407084D01*
X21718053Y18378146D01*
X21766434Y18329765D01*
X21768524Y18328624D01*
X21769740Y18326577D01*
X21799442Y18305975D01*
X21896204Y18257595D01*
X21907534Y18255557D01*
X21917219Y18249332D01*
X21952999Y18244188D01*
X22098142Y18244188D01*
X22109186Y18247432D01*
X22120634Y18246195D01*
X22154937Y18257595D01*
X22251699Y18305975D01*
X22253442Y18307597D01*
X22255769Y18308103D01*
X22284707Y18329765D01*
X22333088Y18378146D01*
X22334229Y18380236D01*
X22336275Y18381451D01*
X22356877Y18411153D01*
X22405258Y18507915D01*
X22407296Y18519245D01*
X22413522Y18528931D01*
X22418666Y18564711D01*
X22418666Y18854997D01*
X22415422Y18866043D01*
X22416659Y18877490D01*
X22405258Y18911793D01*
X22363322Y18995665D01*
X22551792Y18995665D01*
X22574360Y18927756D01*
X22630059Y18882830D01*
X22701206Y18875147D01*
X22735509Y18886548D01*
X22805455Y18921521D01*
X22939019Y18921521D01*
X22990529Y18895766D01*
X23009768Y18876527D01*
X23035523Y18825017D01*
X23035523Y18594691D01*
X23009768Y18543181D01*
X22990530Y18523944D01*
X22939019Y18498188D01*
X22805455Y18498188D01*
X22735508Y18533161D01*
X22665080Y18545834D01*
X22598979Y18518419D01*
X22558194Y18459619D01*
X22555673Y18388104D01*
X22592216Y18326577D01*
X22621918Y18305975D01*
X22718680Y18257595D01*
X22730010Y18255557D01*
X22739695Y18249332D01*
X22775475Y18244188D01*
X22968999Y18244188D01*
X22980043Y18247432D01*
X22991491Y18246195D01*
X23025794Y18257595D01*
X23122556Y18305975D01*
X23124299Y18307597D01*
X23126626Y18308103D01*
X23155564Y18329765D01*
X23203945Y18378146D01*
X23205086Y18380236D01*
X23207132Y18381451D01*
X23227734Y18411153D01*
X23236471Y18428627D01*
X23422895Y18428627D01*
X23428647Y18402183D01*
X23430578Y18375186D01*
X23436134Y18367763D01*
X23438106Y18358702D01*
X23459769Y18329765D01*
X23508150Y18281385D01*
X23516287Y18276942D01*
X23521843Y18269520D01*
X23534768Y18264700D01*
X23545194Y18255665D01*
X23558850Y18253702D01*
X23570957Y18247091D01*
X23580203Y18247753D01*
X23588891Y18244512D01*
X23602371Y18247445D01*
X23616026Y18245481D01*
X23628574Y18251212D01*
X23642335Y18252196D01*
X23649755Y18257752D01*
X23658816Y18259722D01*
X23676973Y18273315D01*
X23681119Y18275208D01*
X23682617Y18277540D01*
X23687754Y18281385D01*
X23736134Y18329764D01*
X23740578Y18337904D01*
X23748001Y18343460D01*
X23757458Y18368816D01*
X23765316Y18383206D01*
X23858569Y18383206D01*
X23872142Y18312945D01*
X23921546Y18261176D01*
X23991096Y18244335D01*
X24058711Y18267768D01*
X24084861Y18292725D01*
X24251094Y18504295D01*
X24417327Y18292725D01*
X24475601Y18251191D01*
X24547078Y18247755D01*
X24609066Y18283509D01*
X24641884Y18347100D01*
X24635113Y18418339D01*
X24617052Y18449652D01*
X24412606Y18709855D01*
X24488633Y18806616D01*
X24728856Y18806616D01*
X24737999Y18775477D01*
X24745429Y18743887D01*
X24748007Y18741394D01*
X24749017Y18737955D01*
X24773534Y18716710D01*
X24796873Y18694143D01*
X24801446Y18692525D01*
X24803098Y18691093D01*
X24807126Y18690514D01*
X24830949Y18682082D01*
X25212666Y18605739D01*
X25212666Y18546310D01*
X25196625Y18514230D01*
X25164543Y18498188D01*
X25030979Y18498188D01*
X24961032Y18533161D01*
X24890604Y18545834D01*
X24824503Y18518419D01*
X24783718Y18459619D01*
X24781197Y18388104D01*
X24817740Y18326577D01*
X24847442Y18305975D01*
X24944204Y18257595D01*
X24955534Y18255557D01*
X24965219Y18249332D01*
X25000999Y18244188D01*
X25194523Y18244188D01*
X25205567Y18247432D01*
X25217015Y18246195D01*
X25251318Y18257595D01*
X25348080Y18305975D01*
X25364726Y18321460D01*
X25384275Y18333070D01*
X25397125Y18351597D01*
X25400477Y18354714D01*
X25401171Y18357430D01*
X25404877Y18362772D01*
X25409085Y18371188D01*
X25648095Y18371188D01*
X25668256Y18302527D01*
X25722337Y18255665D01*
X25793169Y18245481D01*
X25858262Y18275208D01*
X25896951Y18335408D01*
X25902095Y18371188D01*
X25902095Y18873398D01*
X25918135Y18905480D01*
X25950218Y18921521D01*
X26035400Y18921521D01*
X26067482Y18905480D01*
X26083523Y18873398D01*
X26083523Y18371188D01*
X26103684Y18302527D01*
X26157765Y18255665D01*
X26228597Y18245481D01*
X26293690Y18275208D01*
X26332379Y18335408D01*
X26337523Y18371188D01*
X26337523Y18873398D01*
X26353564Y18905480D01*
X26385646Y18921521D01*
X26470829Y18921521D01*
X26518952Y18897460D01*
X26518952Y18371188D01*
X26539113Y18302527D01*
X26593194Y18255665D01*
X26664026Y18245481D01*
X26729119Y18275208D01*
X26767808Y18335408D01*
X26772952Y18371188D01*
X26772952Y19048521D01*
X26752791Y19117182D01*
X26698710Y19164044D01*
X26627878Y19174228D01*
X26578487Y19151672D01*
X26557605Y19162113D01*
X26546275Y19164152D01*
X26536589Y19170377D01*
X26500809Y19175521D01*
X26355666Y19175521D01*
X26344620Y19172278D01*
X26333173Y19173514D01*
X26298870Y19162113D01*
X26210523Y19117940D01*
X26122176Y19162113D01*
X26110846Y19164152D01*
X26101160Y19170377D01*
X26065380Y19175521D01*
X25920237Y19175521D01*
X25909189Y19172278D01*
X25897743Y19173513D01*
X25863440Y19162113D01*
X25766679Y19113732D01*
X25750032Y19098247D01*
X25730486Y19086638D01*
X25717634Y19068110D01*
X25714284Y19064993D01*
X25713589Y19062279D01*
X25709884Y19056936D01*
X25661503Y18960174D01*
X25659464Y18948845D01*
X25653239Y18939158D01*
X25648095Y18903378D01*
X25648095Y18371188D01*
X25409085Y18371188D01*
X25453258Y18459534D01*
X25455296Y18470864D01*
X25461522Y18480550D01*
X25466666Y18516330D01*
X25466666Y18903378D01*
X25463422Y18914424D01*
X25464659Y18925871D01*
X25453258Y18960174D01*
X25404877Y19056936D01*
X25389392Y19073583D01*
X25377783Y19093130D01*
X25359256Y19105981D01*
X25356139Y19109332D01*
X25353423Y19110027D01*
X25348081Y19113732D01*
X25251319Y19162113D01*
X25239989Y19164152D01*
X25230303Y19170377D01*
X25194523Y19175521D01*
X25000999Y19175521D01*
X24989953Y19172278D01*
X24978506Y19173514D01*
X24944203Y19162113D01*
X24847441Y19113732D01*
X24830794Y19098248D01*
X24811247Y19086638D01*
X24798396Y19068112D01*
X24795045Y19064994D01*
X24794350Y19062279D01*
X24790645Y19056936D01*
X24742264Y18960174D01*
X24740225Y18948845D01*
X24734000Y18939158D01*
X24728856Y18903378D01*
X24728856Y18806616D01*
X24488633Y18806616D01*
X24617052Y18970057D01*
X24643619Y19036503D01*
X24630047Y19106763D01*
X24580642Y19158533D01*
X24511093Y19175374D01*
X24443478Y19151940D01*
X24417327Y19126984D01*
X24251094Y18915415D01*
X24084861Y19126984D01*
X24026588Y19168518D01*
X23955111Y19171954D01*
X23893123Y19136200D01*
X23860305Y19072609D01*
X23867076Y19001370D01*
X23885137Y18970058D01*
X24089582Y18709855D01*
X23885137Y18449651D01*
X23858569Y18383206D01*
X23765316Y18383206D01*
X23770430Y18392571D01*
X23769768Y18401821D01*
X23773009Y18410508D01*
X23767256Y18436953D01*
X23765326Y18463948D01*
X23759769Y18471371D01*
X23757798Y18480433D01*
X23736136Y18509371D01*
X23687755Y18557752D01*
X23679614Y18562197D01*
X23674060Y18569617D01*
X23661136Y18574438D01*
X23650710Y18583472D01*
X23637055Y18585436D01*
X23624948Y18592046D01*
X23615699Y18591385D01*
X23607012Y18594625D01*
X23593532Y18591693D01*
X23579878Y18593656D01*
X23567331Y18587927D01*
X23553570Y18586942D01*
X23546146Y18581385D01*
X23537087Y18579414D01*
X23518928Y18565822D01*
X23514785Y18563929D01*
X23513287Y18561599D01*
X23508149Y18557752D01*
X23459768Y18509371D01*
X23455323Y18501231D01*
X23447902Y18495675D01*
X23438445Y18470321D01*
X23425474Y18446564D01*
X23426135Y18437315D01*
X23422895Y18428627D01*
X23236471Y18428627D01*
X23276115Y18507915D01*
X23278153Y18519245D01*
X23284379Y18528931D01*
X23289523Y18564711D01*
X23289523Y18854997D01*
X23286279Y18866043D01*
X23287516Y18877490D01*
X23276115Y18911793D01*
X23227734Y19008555D01*
X23226113Y19010298D01*
X23225607Y19012624D01*
X23203945Y19041562D01*
X23155564Y19089943D01*
X23153474Y19091085D01*
X23152259Y19093130D01*
X23122557Y19113732D01*
X23025795Y19162113D01*
X23014465Y19164152D01*
X23004779Y19170377D01*
X22968999Y19175521D01*
X22775475Y19175521D01*
X22764429Y19172278D01*
X22752982Y19173514D01*
X22718679Y19162113D01*
X22621917Y19113732D01*
X22569521Y19064994D01*
X22551792Y18995665D01*
X22363322Y18995665D01*
X22356877Y19008555D01*
X22355256Y19010298D01*
X22354750Y19012624D01*
X22333088Y19041562D01*
X22284707Y19089943D01*
X22282617Y19091085D01*
X22281402Y19093130D01*
X22251700Y19113732D01*
X22154938Y19162113D01*
X22143608Y19164152D01*
X22133922Y19170377D01*
X22098142Y19175521D01*
X21952999Y19175521D01*
X21941953Y19172278D01*
X21930506Y19173514D01*
X21896203Y19162113D01*
X21799441Y19113732D01*
X21797698Y19112112D01*
X21795372Y19111605D01*
X21766434Y19089943D01*
X21718053Y19041562D01*
X21716911Y19039473D01*
X21714866Y19038257D01*
X21694264Y19008555D01*
X21645883Y18911793D01*
X21643844Y18900464D01*
X21637619Y18890777D01*
X21632475Y18854997D01*
X21632475Y18564711D01*
X21451047Y18564711D01*
X21451047Y19048521D01*
X21430886Y19117182D01*
X21376805Y19164044D01*
X21305973Y19174228D01*
X21256582Y19151672D01*
X21235700Y19162113D01*
X21224370Y19164152D01*
X21214684Y19170377D01*
X21178904Y19175521D01*
X21033761Y19175521D01*
X21022715Y19172278D01*
X21011268Y19173514D01*
X20976965Y19162113D01*
X20888618Y19117940D01*
X20800271Y19162113D01*
X20788941Y19164152D01*
X20779255Y19170377D01*
X20743475Y19175521D01*
X20598332Y19175521D01*
X20587284Y19172278D01*
X20575838Y19173513D01*
X20541535Y19162113D01*
X20444774Y19113732D01*
X20428127Y19098247D01*
X20408581Y19086638D01*
X20395729Y19068110D01*
X20392379Y19064993D01*
X20391684Y19062279D01*
X20387979Y19056936D01*
X20339598Y18960174D01*
X20337559Y18948845D01*
X20331334Y18939158D01*
X20326190Y18903378D01*
X20326190Y18371188D01*
X20181047Y18371188D01*
X20181047Y19347867D01*
X26954705Y19347867D01*
X26960457Y19321423D01*
X26962388Y19294425D01*
X26967945Y19287002D01*
X26969916Y19277942D01*
X26991578Y19249004D01*
X27039959Y19200623D01*
X27048097Y19196179D01*
X27053654Y19188757D01*
X27066579Y19183937D01*
X27077004Y19174903D01*
X27090658Y19172940D01*
X27098951Y19168412D01*
X27046595Y19144501D01*
X27007906Y19084301D01*
X27002762Y19048521D01*
X27002762Y18371188D01*
X27022923Y18302527D01*
X27077004Y18255665D01*
X27147836Y18245481D01*
X27212929Y18275208D01*
X27251618Y18335408D01*
X27256119Y18366714D01*
X27389888Y18366714D01*
X27412456Y18298805D01*
X27468154Y18253878D01*
X27539301Y18246195D01*
X27573604Y18257595D01*
X27670366Y18305975D01*
X27687012Y18321460D01*
X27706561Y18333070D01*
X27719411Y18351597D01*
X27722763Y18354714D01*
X27723457Y18357430D01*
X27727163Y18362772D01*
X27775544Y18459534D01*
X27777582Y18470864D01*
X27783808Y18480550D01*
X27788952Y18516330D01*
X27788952Y18564711D01*
X27970380Y18564711D01*
X27973623Y18553666D01*
X27972387Y18542218D01*
X27983788Y18507915D01*
X28032169Y18411153D01*
X28033789Y18409411D01*
X28034296Y18407084D01*
X28055958Y18378146D01*
X28104339Y18329765D01*
X28106429Y18328624D01*
X28107645Y18326577D01*
X28137347Y18305975D01*
X28234109Y18257595D01*
X28245439Y18255557D01*
X28255124Y18249332D01*
X28290904Y18244188D01*
X28436047Y18244188D01*
X28447091Y18247432D01*
X28458539Y18246195D01*
X28492842Y18257595D01*
X28589604Y18305975D01*
X28591347Y18307597D01*
X28593674Y18308103D01*
X28622612Y18329765D01*
X28670993Y18378146D01*
X28672134Y18380236D01*
X28674180Y18381451D01*
X28694782Y18411153D01*
X28703519Y18428627D01*
X28889943Y18428627D01*
X28895695Y18402183D01*
X28897626Y18375186D01*
X28903182Y18367763D01*
X28905154Y18358702D01*
X28926817Y18329765D01*
X28975198Y18281385D01*
X28983335Y18276942D01*
X28988891Y18269520D01*
X29001816Y18264700D01*
X29012242Y18255665D01*
X29025898Y18253702D01*
X29038005Y18247091D01*
X29047251Y18247753D01*
X29055939Y18244512D01*
X29069419Y18247445D01*
X29083074Y18245481D01*
X29095622Y18251212D01*
X29109383Y18252196D01*
X29116803Y18257752D01*
X29125864Y18259722D01*
X29144021Y18273315D01*
X29148167Y18275208D01*
X29149665Y18277540D01*
X29154802Y18281385D01*
X29203182Y18329764D01*
X29207626Y18337904D01*
X29215049Y18343460D01*
X29224506Y18368816D01*
X29237478Y18392571D01*
X29236816Y18401821D01*
X29240057Y18410508D01*
X29234304Y18436953D01*
X29232374Y18463948D01*
X29226817Y18471371D01*
X29224846Y18480433D01*
X29203184Y18509371D01*
X29154803Y18557752D01*
X29146662Y18562197D01*
X29141108Y18569617D01*
X29128184Y18574438D01*
X29117758Y18583472D01*
X29104103Y18585436D01*
X29091996Y18592046D01*
X29082747Y18591385D01*
X29074060Y18594625D01*
X29060580Y18591693D01*
X29046926Y18593656D01*
X29034379Y18587927D01*
X29020618Y18586942D01*
X29013194Y18581385D01*
X29004135Y18579414D01*
X28985976Y18565822D01*
X28981833Y18563929D01*
X28980335Y18561599D01*
X28975197Y18557752D01*
X28926816Y18509371D01*
X28922371Y18501231D01*
X28914950Y18495675D01*
X28905493Y18470321D01*
X28892522Y18446564D01*
X28893183Y18437315D01*
X28889943Y18428627D01*
X28703519Y18428627D01*
X28743163Y18507915D01*
X28745201Y18519245D01*
X28751427Y18528931D01*
X28756571Y18564711D01*
X28756571Y18854997D01*
X28753327Y18866043D01*
X28754564Y18877490D01*
X28743163Y18911793D01*
X28694782Y19008555D01*
X28693161Y19010298D01*
X28692655Y19012624D01*
X28670993Y19041562D01*
X28663107Y19049448D01*
X29325050Y19049448D01*
X29329933Y19013631D01*
X29523457Y18336298D01*
X29539727Y18310571D01*
X29553682Y18283521D01*
X29558644Y18280659D01*
X29561705Y18275818D01*
X29589296Y18262973D01*
X29615666Y18247759D01*
X29621387Y18248034D01*
X29626580Y18245616D01*
X29656737Y18249728D01*
X29687143Y18251185D01*
X29691808Y18254510D01*
X29697484Y18255283D01*
X29720630Y18275046D01*
X29745423Y18292711D01*
X29749406Y18299615D01*
X29751906Y18301749D01*
X29753294Y18306355D01*
X29763488Y18324021D01*
X29839094Y18513039D01*
X29914702Y18324022D01*
X29933512Y18300088D01*
X29950154Y18274604D01*
X29955381Y18272263D01*
X29958921Y18267759D01*
X29987680Y18257796D01*
X30015463Y18245352D01*
X30021127Y18246209D01*
X30026539Y18244334D01*
X30056116Y18251501D01*
X30086218Y18256053D01*
X30090520Y18259837D01*
X30096087Y18261185D01*
X30117093Y18283203D01*
X30139957Y18303308D01*
X30143215Y18310584D01*
X30145484Y18312961D01*
X30146395Y18317684D01*
X30154733Y18336298D01*
X30348257Y19013631D01*
X30347995Y19049448D01*
X30389431Y19049448D01*
X30394314Y19013631D01*
X30587838Y18336298D01*
X30604108Y18310571D01*
X30618063Y18283521D01*
X30623025Y18280659D01*
X30626086Y18275818D01*
X30653677Y18262973D01*
X30680047Y18247759D01*
X30685768Y18248034D01*
X30690961Y18245616D01*
X30721118Y18249728D01*
X30751524Y18251185D01*
X30756189Y18254510D01*
X30761865Y18255283D01*
X30785011Y18275046D01*
X30809804Y18292711D01*
X30813787Y18299615D01*
X30816287Y18301749D01*
X30817675Y18306355D01*
X30827869Y18324021D01*
X30903475Y18513039D01*
X30979083Y18324022D01*
X30997893Y18300088D01*
X31014535Y18274604D01*
X31019762Y18272263D01*
X31023302Y18267759D01*
X31052061Y18257796D01*
X31079844Y18245352D01*
X31085508Y18246209D01*
X31090920Y18244334D01*
X31120497Y18251501D01*
X31150599Y18256053D01*
X31154901Y18259837D01*
X31160468Y18261185D01*
X31181474Y18283203D01*
X31204338Y18303308D01*
X31207596Y18310584D01*
X31209865Y18312961D01*
X31210776Y18317684D01*
X31219114Y18336298D01*
X31412638Y19013631D01*
X31412376Y19049448D01*
X31453812Y19049448D01*
X31458695Y19013631D01*
X31652219Y18336298D01*
X31668489Y18310571D01*
X31682444Y18283521D01*
X31687406Y18280659D01*
X31690467Y18275818D01*
X31718058Y18262973D01*
X31744428Y18247759D01*
X31750149Y18248034D01*
X31755342Y18245616D01*
X31785499Y18249728D01*
X31815905Y18251185D01*
X31820570Y18254510D01*
X31826246Y18255283D01*
X31849392Y18275046D01*
X31874185Y18292711D01*
X31878168Y18299615D01*
X31880668Y18301749D01*
X31882056Y18306355D01*
X31892250Y18324021D01*
X31967856Y18513039D01*
X32043464Y18324022D01*
X32062274Y18300088D01*
X32078916Y18274604D01*
X32084143Y18272263D01*
X32087683Y18267759D01*
X32116442Y18257796D01*
X32144225Y18245352D01*
X32149889Y18246209D01*
X32155301Y18244334D01*
X32184878Y18251501D01*
X32214980Y18256053D01*
X32219282Y18259837D01*
X32224849Y18261185D01*
X32245855Y18283203D01*
X32268719Y18303308D01*
X32271977Y18310584D01*
X32274246Y18312961D01*
X32275157Y18317684D01*
X32283495Y18336298D01*
X32477019Y19013631D01*
X32476496Y19085189D01*
X32437370Y19145105D01*
X32372061Y19174357D01*
X32301306Y19163656D01*
X32247567Y19116401D01*
X32232791Y19083411D01*
X32141325Y18763284D01*
X32085774Y18902164D01*
X32070830Y18921178D01*
X32059746Y18942663D01*
X32049128Y18948789D01*
X32041554Y18958426D01*
X32018705Y18966342D01*
X31997762Y18978425D01*
X31985519Y18977839D01*
X31973937Y18981851D01*
X31950434Y18976157D01*
X31926284Y18974999D01*
X31916301Y18967887D01*
X31904389Y18965000D01*
X31887698Y18947507D01*
X31868005Y18933474D01*
X31858357Y18916753D01*
X31854992Y18913225D01*
X31854323Y18909760D01*
X31849940Y18902163D01*
X31794388Y18763284D01*
X31702923Y19083411D01*
X31664675Y19143891D01*
X31599800Y19174093D01*
X31528896Y19164426D01*
X31474474Y19117960D01*
X31453812Y19049448D01*
X31412376Y19049448D01*
X31412115Y19085189D01*
X31372989Y19145105D01*
X31307680Y19174357D01*
X31236925Y19163656D01*
X31183186Y19116401D01*
X31168410Y19083411D01*
X31076944Y18763284D01*
X31021393Y18902164D01*
X31006449Y18921178D01*
X30995365Y18942663D01*
X30984747Y18948789D01*
X30977173Y18958426D01*
X30954324Y18966342D01*
X30933381Y18978425D01*
X30921138Y18977839D01*
X30909556Y18981851D01*
X30886053Y18976157D01*
X30861903Y18974999D01*
X30851920Y18967887D01*
X30840008Y18965000D01*
X30823317Y18947507D01*
X30803624Y18933474D01*
X30793976Y18916753D01*
X30790611Y18913225D01*
X30789942Y18909760D01*
X30785559Y18902163D01*
X30730007Y18763284D01*
X30638542Y19083411D01*
X30600294Y19143891D01*
X30535419Y19174093D01*
X30464515Y19164426D01*
X30410093Y19117960D01*
X30389431Y19049448D01*
X30347995Y19049448D01*
X30347734Y19085189D01*
X30308608Y19145105D01*
X30243299Y19174357D01*
X30172544Y19163656D01*
X30118805Y19116401D01*
X30104029Y19083411D01*
X30012563Y18763284D01*
X29957012Y18902164D01*
X29942068Y18921178D01*
X29930984Y18942663D01*
X29920366Y18948789D01*
X29912792Y18958426D01*
X29889943Y18966342D01*
X29869000Y18978425D01*
X29856757Y18977839D01*
X29845175Y18981851D01*
X29821672Y18976157D01*
X29797522Y18974999D01*
X29787539Y18967887D01*
X29775627Y18965000D01*
X29758936Y18947507D01*
X29739243Y18933474D01*
X29729595Y18916753D01*
X29726230Y18913225D01*
X29725561Y18909760D01*
X29721178Y18902163D01*
X29665626Y18763284D01*
X29574161Y19083411D01*
X29535913Y19143891D01*
X29471038Y19174093D01*
X29400134Y19164426D01*
X29345712Y19117960D01*
X29325050Y19049448D01*
X28663107Y19049448D01*
X28622612Y19089943D01*
X28620522Y19091085D01*
X28619307Y19093130D01*
X28589605Y19113732D01*
X28492843Y19162113D01*
X28481513Y19164152D01*
X28471827Y19170377D01*
X28436047Y19175521D01*
X28290904Y19175521D01*
X28279858Y19172278D01*
X28268411Y19173514D01*
X28234108Y19162113D01*
X28137346Y19113732D01*
X28135603Y19112112D01*
X28133277Y19111605D01*
X28104339Y19089943D01*
X28055958Y19041562D01*
X28054816Y19039473D01*
X28052771Y19038257D01*
X28032169Y19008555D01*
X27983788Y18911793D01*
X27981749Y18900464D01*
X27975524Y18890777D01*
X27970380Y18854997D01*
X27970380Y18564711D01*
X27788952Y18564711D01*
X27788952Y19387188D01*
X27768791Y19455849D01*
X27753274Y19469295D01*
X32474370Y19469295D01*
X32475572Y19397745D01*
X32491139Y19365121D01*
X33361997Y18058836D01*
X33416858Y18012890D01*
X33487850Y18003897D01*
X33552435Y18034714D01*
X33590106Y18095556D01*
X33588905Y18167106D01*
X33573337Y18199730D01*
X32726959Y19469295D01*
X33538751Y19469295D01*
X33539953Y19397745D01*
X33555520Y19365121D01*
X34426378Y18058836D01*
X34481239Y18012890D01*
X34552231Y18003897D01*
X34616816Y18034714D01*
X34654487Y18095556D01*
X34653286Y18167106D01*
X34637718Y18199730D01*
X34485120Y18428627D01*
X34695658Y18428627D01*
X34701410Y18402183D01*
X34703341Y18375186D01*
X34708897Y18367763D01*
X34710869Y18358702D01*
X34732532Y18329765D01*
X34780913Y18281385D01*
X34789050Y18276942D01*
X34794606Y18269520D01*
X34807531Y18264700D01*
X34817957Y18255665D01*
X34831613Y18253702D01*
X34843720Y18247091D01*
X34852966Y18247753D01*
X34861654Y18244512D01*
X34875134Y18247445D01*
X34888789Y18245481D01*
X34901337Y18251212D01*
X34915098Y18252196D01*
X34922518Y18257752D01*
X34931579Y18259722D01*
X34949736Y18273315D01*
X34953882Y18275208D01*
X34955380Y18277540D01*
X34960517Y18281385D01*
X35008897Y18329764D01*
X35013341Y18337904D01*
X35020764Y18343460D01*
X35030221Y18368816D01*
X35043193Y18392571D01*
X35042531Y18401821D01*
X35045772Y18410508D01*
X35040019Y18436953D01*
X35038089Y18463948D01*
X35032532Y18471371D01*
X35030561Y18480433D01*
X35008899Y18509371D01*
X35001940Y18516330D01*
X35179143Y18516330D01*
X35182386Y18505285D01*
X35181150Y18493837D01*
X35192551Y18459534D01*
X35240932Y18362772D01*
X35256416Y18346126D01*
X35268027Y18326577D01*
X35286553Y18313727D01*
X35289670Y18310376D01*
X35292385Y18309682D01*
X35297729Y18305975D01*
X35394491Y18257595D01*
X35405821Y18255557D01*
X35415506Y18249332D01*
X35451286Y18244188D01*
X35644810Y18244188D01*
X35655854Y18247432D01*
X35667302Y18246195D01*
X35701605Y18257595D01*
X35798367Y18305975D01*
X35850764Y18354714D01*
X35868493Y18424042D01*
X35845926Y18491951D01*
X35790227Y18536878D01*
X35719080Y18544561D01*
X35684777Y18533161D01*
X35614830Y18498188D01*
X35481266Y18498188D01*
X35449183Y18514230D01*
X35436037Y18540521D01*
X35448133Y18564711D01*
X36001619Y18564711D01*
X36004862Y18553666D01*
X36003626Y18542218D01*
X36015027Y18507915D01*
X36063408Y18411153D01*
X36065028Y18409411D01*
X36065535Y18407084D01*
X36087197Y18378146D01*
X36135578Y18329765D01*
X36137668Y18328624D01*
X36138884Y18326577D01*
X36168586Y18305975D01*
X36265348Y18257595D01*
X36276678Y18255557D01*
X36286363Y18249332D01*
X36322143Y18244188D01*
X36485429Y18244188D01*
X36485429Y18032521D01*
X36505590Y17963860D01*
X36559671Y17916998D01*
X36630503Y17906814D01*
X36695596Y17936541D01*
X36734285Y17996741D01*
X36739429Y18032521D01*
X36739429Y18353114D01*
X36825388Y18353114D01*
X36855115Y18288021D01*
X36915315Y18249332D01*
X36951095Y18244188D01*
X37047857Y18244188D01*
X37058901Y18247432D01*
X37070349Y18246195D01*
X37104652Y18257595D01*
X37201414Y18305975D01*
X37218060Y18321460D01*
X37237609Y18333070D01*
X37250459Y18351597D01*
X37253811Y18354714D01*
X37254505Y18357430D01*
X37258211Y18362772D01*
X37306592Y18459534D01*
X37308630Y18470864D01*
X37314856Y18480550D01*
X37320000Y18516330D01*
X37320000Y18921521D01*
X37338143Y18921521D01*
X37406804Y18941682D01*
X37432797Y18971680D01*
X37435686Y18965354D01*
X37495886Y18926665D01*
X37531666Y18921521D01*
X37646571Y18921521D01*
X37646571Y18546310D01*
X37630530Y18514230D01*
X37598448Y18498188D01*
X37531666Y18498188D01*
X37463005Y18478027D01*
X37416143Y18423946D01*
X37405959Y18353114D01*
X37435686Y18288021D01*
X37495886Y18249332D01*
X37531666Y18244188D01*
X37628428Y18244188D01*
X37639472Y18247432D01*
X37650920Y18246195D01*
X37685223Y18257595D01*
X37781985Y18305975D01*
X37798631Y18321460D01*
X37818180Y18333070D01*
X37831030Y18351597D01*
X37834382Y18354714D01*
X37835076Y18357430D01*
X37838782Y18362772D01*
X37842990Y18371188D01*
X38130380Y18371188D01*
X38150541Y18302527D01*
X38204622Y18255665D01*
X38275454Y18245481D01*
X38340547Y18275208D01*
X38379236Y18335408D01*
X38384380Y18371188D01*
X38384380Y18873398D01*
X38400421Y18905480D01*
X38432503Y18921521D01*
X38517686Y18921521D01*
X38565809Y18897460D01*
X38565809Y18371188D01*
X38585970Y18302527D01*
X38640051Y18255665D01*
X38710883Y18245481D01*
X38775976Y18275208D01*
X38814665Y18335408D01*
X38819809Y18371188D01*
X38819809Y19387188D01*
X38799648Y19455849D01*
X38745567Y19502711D01*
X38674735Y19512895D01*
X38609642Y19483168D01*
X38570953Y19422968D01*
X38565809Y19387188D01*
X38565809Y19172913D01*
X38547666Y19175521D01*
X38402523Y19175521D01*
X38391477Y19172278D01*
X38380030Y19173514D01*
X38345727Y19162113D01*
X38248965Y19113732D01*
X38232318Y19098248D01*
X38212771Y19086638D01*
X38199920Y19068112D01*
X38196569Y19064994D01*
X38195874Y19062279D01*
X38192169Y19056936D01*
X38143788Y18960174D01*
X38141749Y18948845D01*
X38135524Y18939158D01*
X38130380Y18903378D01*
X38130380Y18371188D01*
X37842990Y18371188D01*
X37887163Y18459534D01*
X37889201Y18470864D01*
X37895427Y18480550D01*
X37900571Y18516330D01*
X37900571Y18921521D01*
X37918714Y18921521D01*
X37987375Y18941682D01*
X38034237Y18995763D01*
X38044421Y19066595D01*
X38014694Y19131688D01*
X37954494Y19170377D01*
X37918714Y19175521D01*
X37900571Y19175521D01*
X37900571Y19387188D01*
X37880410Y19455849D01*
X37826329Y19502711D01*
X37755497Y19512895D01*
X37690404Y19483168D01*
X37651715Y19422968D01*
X37646571Y19387188D01*
X37646571Y19175521D01*
X37531666Y19175521D01*
X37463005Y19155360D01*
X37437011Y19125363D01*
X37434123Y19131688D01*
X37373923Y19170377D01*
X37338143Y19175521D01*
X37320000Y19175521D01*
X37320000Y19387188D01*
X37299839Y19455849D01*
X37245758Y19502711D01*
X37174926Y19512895D01*
X37109833Y19483168D01*
X37071144Y19422968D01*
X37066000Y19387188D01*
X37066000Y19175521D01*
X36951095Y19175521D01*
X36882434Y19155360D01*
X36835572Y19101279D01*
X36825388Y19030447D01*
X36855115Y18965354D01*
X36915315Y18926665D01*
X36951095Y18921521D01*
X37066000Y18921521D01*
X37066000Y18546310D01*
X37049959Y18514230D01*
X37017877Y18498188D01*
X36951095Y18498188D01*
X36882434Y18478027D01*
X36835572Y18423946D01*
X36825388Y18353114D01*
X36739429Y18353114D01*
X36739429Y19048521D01*
X36719268Y19117182D01*
X36665187Y19164044D01*
X36594355Y19174228D01*
X36569137Y19162712D01*
X36561133Y19164152D01*
X36551447Y19170377D01*
X36515667Y19175521D01*
X36322143Y19175521D01*
X36311097Y19172278D01*
X36299650Y19173514D01*
X36265347Y19162113D01*
X36168585Y19113732D01*
X36166842Y19112112D01*
X36164516Y19111605D01*
X36135578Y19089943D01*
X36087197Y19041562D01*
X36086055Y19039473D01*
X36084010Y19038257D01*
X36063408Y19008555D01*
X36015027Y18911793D01*
X36012988Y18900464D01*
X36006763Y18890777D01*
X36001619Y18854997D01*
X36001619Y18564711D01*
X35448133Y18564711D01*
X35449184Y18566813D01*
X35481266Y18582854D01*
X35596429Y18582854D01*
X35607474Y18586098D01*
X35618922Y18584861D01*
X35653225Y18596262D01*
X35749987Y18644643D01*
X35766632Y18660127D01*
X35786181Y18671737D01*
X35799031Y18690264D01*
X35802383Y18693381D01*
X35803077Y18696097D01*
X35806783Y18701439D01*
X35855164Y18798201D01*
X35857202Y18809531D01*
X35863428Y18819217D01*
X35868572Y18854997D01*
X35868572Y18903378D01*
X35865328Y18914424D01*
X35866565Y18925871D01*
X35855164Y18960174D01*
X35806783Y19056936D01*
X35791298Y19073583D01*
X35779689Y19093130D01*
X35761162Y19105981D01*
X35758045Y19109332D01*
X35755329Y19110027D01*
X35749987Y19113732D01*
X35653225Y19162113D01*
X35641895Y19164152D01*
X35632209Y19170377D01*
X35596429Y19175521D01*
X35451286Y19175521D01*
X35440240Y19172278D01*
X35428793Y19173514D01*
X35394490Y19162113D01*
X35297728Y19113732D01*
X35245332Y19064994D01*
X35227603Y18995665D01*
X35250171Y18927756D01*
X35305870Y18882830D01*
X35377017Y18875147D01*
X35411320Y18886548D01*
X35481266Y18921521D01*
X35566449Y18921521D01*
X35598531Y18905480D01*
X35611677Y18879188D01*
X35598531Y18852895D01*
X35566449Y18836854D01*
X35451286Y18836854D01*
X35440240Y18833611D01*
X35428793Y18834847D01*
X35394490Y18823446D01*
X35297728Y18775065D01*
X35281081Y18759581D01*
X35261534Y18747971D01*
X35248683Y18729445D01*
X35245332Y18726327D01*
X35244637Y18723612D01*
X35240932Y18718269D01*
X35192551Y18621507D01*
X35190512Y18610178D01*
X35184287Y18600491D01*
X35179143Y18564711D01*
X35179143Y18516330D01*
X35001940Y18516330D01*
X34960518Y18557752D01*
X34952377Y18562197D01*
X34946823Y18569617D01*
X34933899Y18574438D01*
X34923473Y18583472D01*
X34909818Y18585436D01*
X34897711Y18592046D01*
X34888462Y18591385D01*
X34879775Y18594625D01*
X34866295Y18591693D01*
X34852641Y18593656D01*
X34840094Y18587927D01*
X34826333Y18586942D01*
X34818909Y18581385D01*
X34809850Y18579414D01*
X34791691Y18565822D01*
X34787548Y18563929D01*
X34786050Y18561599D01*
X34780912Y18557752D01*
X34732531Y18509371D01*
X34728086Y18501231D01*
X34720665Y18495675D01*
X34711208Y18470321D01*
X34698237Y18446564D01*
X34698898Y18437315D01*
X34695658Y18428627D01*
X34485120Y18428627D01*
X34130325Y18960819D01*
X34695658Y18960819D01*
X34701410Y18934375D01*
X34703341Y18907377D01*
X34708898Y18899954D01*
X34710869Y18890894D01*
X34732531Y18861956D01*
X34780912Y18813575D01*
X34789050Y18809131D01*
X34794607Y18801709D01*
X34807532Y18796889D01*
X34817957Y18787855D01*
X34831611Y18785892D01*
X34843719Y18779281D01*
X34852967Y18779943D01*
X34861655Y18776702D01*
X34875134Y18779635D01*
X34888789Y18777671D01*
X34901335Y18783401D01*
X34915097Y18784385D01*
X34922520Y18789943D01*
X34931580Y18791913D01*
X34949738Y18805506D01*
X34953882Y18807398D01*
X34955379Y18809729D01*
X34960518Y18813575D01*
X35008899Y18861956D01*
X35013343Y18870097D01*
X35020764Y18875651D01*
X35030220Y18901006D01*
X35043193Y18924763D01*
X35042531Y18934012D01*
X35045772Y18942699D01*
X35040019Y18969144D01*
X35038089Y18996141D01*
X35032531Y19003565D01*
X35030561Y19012624D01*
X35008899Y19041562D01*
X34960518Y19089943D01*
X34952377Y19094388D01*
X34946823Y19101808D01*
X34933899Y19106629D01*
X34923473Y19115663D01*
X34909818Y19117627D01*
X34897711Y19124237D01*
X34888462Y19123576D01*
X34879775Y19126816D01*
X34866295Y19123884D01*
X34852641Y19125847D01*
X34840094Y19120118D01*
X34826333Y19119133D01*
X34818909Y19113576D01*
X34809850Y19111605D01*
X34791691Y19098013D01*
X34787548Y19096120D01*
X34786050Y19093790D01*
X34780912Y19089943D01*
X34732531Y19041562D01*
X34728086Y19033424D01*
X34720665Y19027867D01*
X34711207Y19002509D01*
X34698237Y18978755D01*
X34698898Y18969507D01*
X34695658Y18960819D01*
X34130325Y18960819D01*
X33766860Y19506015D01*
X33711999Y19551961D01*
X33641007Y19560954D01*
X33576422Y19530137D01*
X33538751Y19469295D01*
X32726959Y19469295D01*
X32702479Y19506015D01*
X32647618Y19551961D01*
X32576626Y19560954D01*
X32512041Y19530137D01*
X32474370Y19469295D01*
X27753274Y19469295D01*
X27714710Y19502711D01*
X27643878Y19512895D01*
X27578785Y19483168D01*
X27540096Y19422968D01*
X27534952Y19387188D01*
X27534952Y18546310D01*
X27518911Y18514230D01*
X27460014Y18484781D01*
X27407617Y18436042D01*
X27389888Y18366714D01*
X27256119Y18366714D01*
X27256762Y18371188D01*
X27256762Y19048521D01*
X27236601Y19117182D01*
X27182520Y19164044D01*
X27155016Y19167999D01*
X27160382Y19170449D01*
X27174144Y19171433D01*
X27181567Y19176991D01*
X27190627Y19178961D01*
X27208785Y19192554D01*
X27212929Y19194446D01*
X27214426Y19196777D01*
X27219565Y19200623D01*
X27267946Y19249004D01*
X27272390Y19257145D01*
X27279811Y19262699D01*
X27289267Y19288054D01*
X27302240Y19311811D01*
X27301578Y19321060D01*
X27304819Y19329747D01*
X27299066Y19356192D01*
X27297136Y19383189D01*
X27291578Y19390613D01*
X27289608Y19399672D01*
X27267946Y19428610D01*
X27219565Y19476991D01*
X27211424Y19481436D01*
X27205870Y19488856D01*
X27192946Y19493677D01*
X27182520Y19502711D01*
X27168865Y19504675D01*
X27156758Y19511285D01*
X27147509Y19510624D01*
X27138822Y19513864D01*
X27125342Y19510932D01*
X27111688Y19512895D01*
X27099141Y19507166D01*
X27085380Y19506181D01*
X27077956Y19500624D01*
X27068897Y19498653D01*
X27050738Y19485061D01*
X27046595Y19483168D01*
X27045097Y19480838D01*
X27039959Y19476991D01*
X26991578Y19428610D01*
X26987133Y19420472D01*
X26979712Y19414915D01*
X26970254Y19389557D01*
X26957284Y19365803D01*
X26957945Y19356555D01*
X26954705Y19347867D01*
X20181047Y19347867D01*
X20181047Y19706097D01*
X38964952Y19706097D01*
X38964952Y17761671D01*
G37*
X53485068Y44391475D02*
X53485068Y46091475D01*
X53485068Y46091475D02*
X52913639Y46091475D01*
X52913639Y46091475D02*
X52770782Y46010523D01*
X52770782Y46010523D02*
X52699353Y45929570D01*
X52699353Y45929570D02*
X52627925Y45767666D01*
X52627925Y45767666D02*
X52627925Y45524808D01*
X52627925Y45524808D02*
X52699353Y45362904D01*
X52699353Y45362904D02*
X52770782Y45281951D01*
X52770782Y45281951D02*
X52913639Y45200999D01*
X52913639Y45200999D02*
X53485068Y45200999D01*
X51985068Y44391475D02*
X51985068Y46091475D01*
X51985068Y45443856D02*
X51842211Y45524808D01*
X51842211Y45524808D02*
X51556496Y45524808D01*
X51556496Y45524808D02*
X51413639Y45443856D01*
X51413639Y45443856D02*
X51342211Y45362904D01*
X51342211Y45362904D02*
X51270782Y45200999D01*
X51270782Y45200999D02*
X51270782Y44715285D01*
X51270782Y44715285D02*
X51342211Y44553380D01*
X51342211Y44553380D02*
X51413639Y44472427D01*
X51413639Y44472427D02*
X51556496Y44391475D01*
X51556496Y44391475D02*
X51842211Y44391475D01*
X51842211Y44391475D02*
X51985068Y44472427D01*
X27956812Y60249715D02*
X26940812Y60249715D01*
X27424622Y60249715D02*
X27424622Y59669143D01*
X27956812Y59669143D02*
X26940812Y59669143D01*
X27860051Y58604762D02*
X27908432Y58653143D01*
X27908432Y58653143D02*
X27956812Y58798286D01*
X27956812Y58798286D02*
X27956812Y58895048D01*
X27956812Y58895048D02*
X27908432Y59040191D01*
X27908432Y59040191D02*
X27811670Y59136953D01*
X27811670Y59136953D02*
X27714908Y59185334D01*
X27714908Y59185334D02*
X27521384Y59233715D01*
X27521384Y59233715D02*
X27376241Y59233715D01*
X27376241Y59233715D02*
X27182717Y59185334D01*
X27182717Y59185334D02*
X27085955Y59136953D01*
X27085955Y59136953D02*
X26989193Y59040191D01*
X26989193Y59040191D02*
X26940812Y58895048D01*
X26940812Y58895048D02*
X26940812Y58798286D01*
X26940812Y58798286D02*
X26989193Y58653143D01*
X26989193Y58653143D02*
X27037574Y58604762D01*
X27424622Y58169334D02*
X27424622Y57830667D01*
X27956812Y57685524D02*
X27956812Y58169334D01*
X27956812Y58169334D02*
X26940812Y58169334D01*
X26940812Y58169334D02*
X26940812Y57685524D01*
X27860051Y56669524D02*
X27908432Y56717905D01*
X27908432Y56717905D02*
X27956812Y56863048D01*
X27956812Y56863048D02*
X27956812Y56959810D01*
X27956812Y56959810D02*
X27908432Y57104953D01*
X27908432Y57104953D02*
X27811670Y57201715D01*
X27811670Y57201715D02*
X27714908Y57250096D01*
X27714908Y57250096D02*
X27521384Y57298477D01*
X27521384Y57298477D02*
X27376241Y57298477D01*
X27376241Y57298477D02*
X27182717Y57250096D01*
X27182717Y57250096D02*
X27085955Y57201715D01*
X27085955Y57201715D02*
X26989193Y57104953D01*
X26989193Y57104953D02*
X26940812Y56959810D01*
X26940812Y56959810D02*
X26940812Y56863048D01*
X26940812Y56863048D02*
X26989193Y56717905D01*
X26989193Y56717905D02*
X27037574Y56669524D01*
X27956812Y55701905D02*
X27956812Y56282477D01*
X27956812Y55992191D02*
X26940812Y55992191D01*
X26940812Y55992191D02*
X27085955Y56088953D01*
X27085955Y56088953D02*
X27182717Y56185715D01*
X27182717Y56185715D02*
X27231098Y56282477D01*
X33956812Y60201334D02*
X32940812Y60201334D01*
X33424622Y60201334D02*
X33424622Y59620762D01*
X33956812Y59620762D02*
X32940812Y59620762D01*
X33908432Y59185334D02*
X33956812Y59040191D01*
X33956812Y59040191D02*
X33956812Y58798286D01*
X33956812Y58798286D02*
X33908432Y58701524D01*
X33908432Y58701524D02*
X33860051Y58653143D01*
X33860051Y58653143D02*
X33763289Y58604762D01*
X33763289Y58604762D02*
X33666527Y58604762D01*
X33666527Y58604762D02*
X33569765Y58653143D01*
X33569765Y58653143D02*
X33521384Y58701524D01*
X33521384Y58701524D02*
X33473003Y58798286D01*
X33473003Y58798286D02*
X33424622Y58991810D01*
X33424622Y58991810D02*
X33376241Y59088572D01*
X33376241Y59088572D02*
X33327860Y59136953D01*
X33327860Y59136953D02*
X33231098Y59185334D01*
X33231098Y59185334D02*
X33134336Y59185334D01*
X33134336Y59185334D02*
X33037574Y59136953D01*
X33037574Y59136953D02*
X32989193Y59088572D01*
X32989193Y59088572D02*
X32940812Y58991810D01*
X32940812Y58991810D02*
X32940812Y58749905D01*
X32940812Y58749905D02*
X32989193Y58604762D01*
X33956812Y58169334D02*
X32940812Y58169334D01*
X32940812Y58169334D02*
X32940812Y57927429D01*
X32940812Y57927429D02*
X32989193Y57782286D01*
X32989193Y57782286D02*
X33085955Y57685524D01*
X33085955Y57685524D02*
X33182717Y57637143D01*
X33182717Y57637143D02*
X33376241Y57588762D01*
X33376241Y57588762D02*
X33521384Y57588762D01*
X33521384Y57588762D02*
X33714908Y57637143D01*
X33714908Y57637143D02*
X33811670Y57685524D01*
X33811670Y57685524D02*
X33908432Y57782286D01*
X33908432Y57782286D02*
X33956812Y57927429D01*
X33956812Y57927429D02*
X33956812Y58169334D01*
X33666527Y57201715D02*
X33666527Y56717905D01*
X33956812Y57298477D02*
X32940812Y56959810D01*
X32940812Y56959810D02*
X33956812Y56621143D01*
X33956812Y55750286D02*
X33956812Y56330858D01*
X33956812Y56040572D02*
X32940812Y56040572D01*
X32940812Y56040572D02*
X33085955Y56137334D01*
X33085955Y56137334D02*
X33182717Y56234096D01*
X33182717Y56234096D02*
X33231098Y56330858D01*
X30956812Y60177143D02*
X29940812Y60177143D01*
X30424622Y60177143D02*
X30424622Y59596571D01*
X30956812Y59596571D02*
X29940812Y59596571D01*
X30908432Y59161143D02*
X30956812Y59016000D01*
X30956812Y59016000D02*
X30956812Y58774095D01*
X30956812Y58774095D02*
X30908432Y58677333D01*
X30908432Y58677333D02*
X30860051Y58628952D01*
X30860051Y58628952D02*
X30763289Y58580571D01*
X30763289Y58580571D02*
X30666527Y58580571D01*
X30666527Y58580571D02*
X30569765Y58628952D01*
X30569765Y58628952D02*
X30521384Y58677333D01*
X30521384Y58677333D02*
X30473003Y58774095D01*
X30473003Y58774095D02*
X30424622Y58967619D01*
X30424622Y58967619D02*
X30376241Y59064381D01*
X30376241Y59064381D02*
X30327860Y59112762D01*
X30327860Y59112762D02*
X30231098Y59161143D01*
X30231098Y59161143D02*
X30134336Y59161143D01*
X30134336Y59161143D02*
X30037574Y59112762D01*
X30037574Y59112762D02*
X29989193Y59064381D01*
X29989193Y59064381D02*
X29940812Y58967619D01*
X29940812Y58967619D02*
X29940812Y58725714D01*
X29940812Y58725714D02*
X29989193Y58580571D01*
X30860051Y57564571D02*
X30908432Y57612952D01*
X30908432Y57612952D02*
X30956812Y57758095D01*
X30956812Y57758095D02*
X30956812Y57854857D01*
X30956812Y57854857D02*
X30908432Y58000000D01*
X30908432Y58000000D02*
X30811670Y58096762D01*
X30811670Y58096762D02*
X30714908Y58145143D01*
X30714908Y58145143D02*
X30521384Y58193524D01*
X30521384Y58193524D02*
X30376241Y58193524D01*
X30376241Y58193524D02*
X30182717Y58145143D01*
X30182717Y58145143D02*
X30085955Y58096762D01*
X30085955Y58096762D02*
X29989193Y58000000D01*
X29989193Y58000000D02*
X29940812Y57854857D01*
X29940812Y57854857D02*
X29940812Y57758095D01*
X29940812Y57758095D02*
X29989193Y57612952D01*
X29989193Y57612952D02*
X30037574Y57564571D01*
X30956812Y56645333D02*
X30956812Y57129143D01*
X30956812Y57129143D02*
X29940812Y57129143D01*
X30956812Y55774476D02*
X30956812Y56355048D01*
X30956812Y56064762D02*
X29940812Y56064762D01*
X29940812Y56064762D02*
X30085955Y56161524D01*
X30085955Y56161524D02*
X30182717Y56258286D01*
X30182717Y56258286D02*
X30231098Y56355048D01*
X36956812Y60322286D02*
X35940812Y60322286D01*
X36424622Y60322286D02*
X36424622Y59741714D01*
X36956812Y59741714D02*
X35940812Y59741714D01*
X36956812Y59257905D02*
X35940812Y59257905D01*
X36424622Y59257905D02*
X36424622Y58677333D01*
X36956812Y58677333D02*
X35940812Y58677333D01*
X36956812Y58193524D02*
X35940812Y58193524D01*
X35940812Y58193524D02*
X35940812Y57806476D01*
X35940812Y57806476D02*
X35989193Y57709714D01*
X35989193Y57709714D02*
X36037574Y57661333D01*
X36037574Y57661333D02*
X36134336Y57612952D01*
X36134336Y57612952D02*
X36279479Y57612952D01*
X36279479Y57612952D02*
X36376241Y57661333D01*
X36376241Y57661333D02*
X36424622Y57709714D01*
X36424622Y57709714D02*
X36473003Y57806476D01*
X36473003Y57806476D02*
X36473003Y58193524D01*
X36956812Y57177524D02*
X35940812Y57177524D01*
X35940812Y57177524D02*
X35940812Y56935619D01*
X35940812Y56935619D02*
X35989193Y56790476D01*
X35989193Y56790476D02*
X36085955Y56693714D01*
X36085955Y56693714D02*
X36182717Y56645333D01*
X36182717Y56645333D02*
X36376241Y56596952D01*
X36376241Y56596952D02*
X36521384Y56596952D01*
X36521384Y56596952D02*
X36714908Y56645333D01*
X36714908Y56645333D02*
X36811670Y56693714D01*
X36811670Y56693714D02*
X36908432Y56790476D01*
X36908432Y56790476D02*
X36956812Y56935619D01*
X36956812Y56935619D02*
X36956812Y57177524D01*
X36956812Y55629333D02*
X36956812Y56209905D01*
X36956812Y55919619D02*
X35940812Y55919619D01*
X35940812Y55919619D02*
X36085955Y56016381D01*
X36085955Y56016381D02*
X36182717Y56113143D01*
X36182717Y56113143D02*
X36231098Y56209905D01*
X69506702Y40808675D02*
X69615559Y40863103D01*
X69615559Y40863103D02*
X69669988Y40917532D01*
X69669988Y40917532D02*
X69724416Y41026389D01*
X69724416Y41026389D02*
X69724416Y41352961D01*
X69724416Y41352961D02*
X69669988Y41461818D01*
X69669988Y41461818D02*
X69615559Y41516246D01*
X69615559Y41516246D02*
X69506702Y41570675D01*
X69506702Y41570675D02*
X69343416Y41570675D01*
X69343416Y41570675D02*
X69234559Y41516246D01*
X69234559Y41516246D02*
X69180131Y41461818D01*
X69180131Y41461818D02*
X69125702Y41352961D01*
X69125702Y41352961D02*
X69125702Y41026389D01*
X69125702Y41026389D02*
X69180131Y40917532D01*
X69180131Y40917532D02*
X69234559Y40863103D01*
X69234559Y40863103D02*
X69343416Y40808675D01*
X69343416Y40808675D02*
X69506702Y40808675D01*
X68635845Y41570675D02*
X68635845Y40427675D01*
X68635845Y41516246D02*
X68526988Y41570675D01*
X68526988Y41570675D02*
X68309273Y41570675D01*
X68309273Y41570675D02*
X68200416Y41516246D01*
X68200416Y41516246D02*
X68145988Y41461818D01*
X68145988Y41461818D02*
X68091559Y41352961D01*
X68091559Y41352961D02*
X68091559Y41026389D01*
X68091559Y41026389D02*
X68145988Y40917532D01*
X68145988Y40917532D02*
X68200416Y40863103D01*
X68200416Y40863103D02*
X68309273Y40808675D01*
X68309273Y40808675D02*
X68526988Y40808675D01*
X68526988Y40808675D02*
X68635845Y40863103D01*
X67166273Y40863103D02*
X67275130Y40808675D01*
X67275130Y40808675D02*
X67492845Y40808675D01*
X67492845Y40808675D02*
X67601702Y40863103D01*
X67601702Y40863103D02*
X67656130Y40971961D01*
X67656130Y40971961D02*
X67656130Y41407389D01*
X67656130Y41407389D02*
X67601702Y41516246D01*
X67601702Y41516246D02*
X67492845Y41570675D01*
X67492845Y41570675D02*
X67275130Y41570675D01*
X67275130Y41570675D02*
X67166273Y41516246D01*
X67166273Y41516246D02*
X67111845Y41407389D01*
X67111845Y41407389D02*
X67111845Y41298532D01*
X67111845Y41298532D02*
X67656130Y41189675D01*
X66621988Y41570675D02*
X66621988Y40808675D01*
X66621988Y41461818D02*
X66567559Y41516246D01*
X66567559Y41516246D02*
X66458702Y41570675D01*
X66458702Y41570675D02*
X66295416Y41570675D01*
X66295416Y41570675D02*
X66186559Y41516246D01*
X66186559Y41516246D02*
X66132131Y41407389D01*
X66132131Y41407389D02*
X66132131Y40808675D01*
X65181082Y40775988D02*
X65181082Y41791988D01*
X64745653Y40775988D02*
X64745653Y41308178D01*
X64745653Y41308178D02*
X64794034Y41404940D01*
X64794034Y41404940D02*
X64890796Y41453321D01*
X64890796Y41453321D02*
X65035939Y41453321D01*
X65035939Y41453321D02*
X65132701Y41404940D01*
X65132701Y41404940D02*
X65181082Y41356559D01*
X63826415Y40775988D02*
X63826415Y41308178D01*
X63826415Y41308178D02*
X63874796Y41404940D01*
X63874796Y41404940D02*
X63971558Y41453321D01*
X63971558Y41453321D02*
X64165082Y41453321D01*
X64165082Y41453321D02*
X64261844Y41404940D01*
X63826415Y40824368D02*
X63923177Y40775988D01*
X63923177Y40775988D02*
X64165082Y40775988D01*
X64165082Y40775988D02*
X64261844Y40824368D01*
X64261844Y40824368D02*
X64310225Y40921130D01*
X64310225Y40921130D02*
X64310225Y41017892D01*
X64310225Y41017892D02*
X64261844Y41114654D01*
X64261844Y41114654D02*
X64165082Y41163035D01*
X64165082Y41163035D02*
X63923177Y41163035D01*
X63923177Y41163035D02*
X63826415Y41211416D01*
X63342606Y40775988D02*
X63342606Y41453321D01*
X63342606Y41259797D02*
X63294225Y41356559D01*
X63294225Y41356559D02*
X63245844Y41404940D01*
X63245844Y41404940D02*
X63149082Y41453321D01*
X63149082Y41453321D02*
X63052320Y41453321D01*
X62278225Y40775988D02*
X62278225Y41791988D01*
X62278225Y40824368D02*
X62374987Y40775988D01*
X62374987Y40775988D02*
X62568511Y40775988D01*
X62568511Y40775988D02*
X62665273Y40824368D01*
X62665273Y40824368D02*
X62713654Y40872749D01*
X62713654Y40872749D02*
X62762035Y40969511D01*
X62762035Y40969511D02*
X62762035Y41259797D01*
X62762035Y41259797D02*
X62713654Y41356559D01*
X62713654Y41356559D02*
X62665273Y41404940D01*
X62665273Y41404940D02*
X62568511Y41453321D01*
X62568511Y41453321D02*
X62374987Y41453321D01*
X62374987Y41453321D02*
X62278225Y41404940D01*
X61891178Y41453321D02*
X61697654Y40775988D01*
X61697654Y40775988D02*
X61504130Y41259797D01*
X61504130Y41259797D02*
X61310606Y40775988D01*
X61310606Y40775988D02*
X61117082Y41453321D01*
X60294606Y40775988D02*
X60294606Y41308178D01*
X60294606Y41308178D02*
X60342987Y41404940D01*
X60342987Y41404940D02*
X60439749Y41453321D01*
X60439749Y41453321D02*
X60633273Y41453321D01*
X60633273Y41453321D02*
X60730035Y41404940D01*
X60294606Y40824368D02*
X60391368Y40775988D01*
X60391368Y40775988D02*
X60633273Y40775988D01*
X60633273Y40775988D02*
X60730035Y40824368D01*
X60730035Y40824368D02*
X60778416Y40921130D01*
X60778416Y40921130D02*
X60778416Y41017892D01*
X60778416Y41017892D02*
X60730035Y41114654D01*
X60730035Y41114654D02*
X60633273Y41163035D01*
X60633273Y41163035D02*
X60391368Y41163035D01*
X60391368Y41163035D02*
X60294606Y41211416D01*
X59810797Y40775988D02*
X59810797Y41453321D01*
X59810797Y41259797D02*
X59762416Y41356559D01*
X59762416Y41356559D02*
X59714035Y41404940D01*
X59714035Y41404940D02*
X59617273Y41453321D01*
X59617273Y41453321D02*
X59520511Y41453321D01*
X58794797Y40824368D02*
X58891559Y40775988D01*
X58891559Y40775988D02*
X59085083Y40775988D01*
X59085083Y40775988D02*
X59181845Y40824368D01*
X59181845Y40824368D02*
X59230226Y40921130D01*
X59230226Y40921130D02*
X59230226Y41308178D01*
X59230226Y41308178D02*
X59181845Y41404940D01*
X59181845Y41404940D02*
X59085083Y41453321D01*
X59085083Y41453321D02*
X58891559Y41453321D01*
X58891559Y41453321D02*
X58794797Y41404940D01*
X58794797Y41404940D02*
X58746416Y41308178D01*
X58746416Y41308178D02*
X58746416Y41211416D01*
X58746416Y41211416D02*
X59230226Y41114654D01*
D14*
X31535134Y45270942D02*
X32201801Y46223323D01*
X32677991Y45270942D02*
X32677991Y47270942D01*
X32677991Y47270942D02*
X31916086Y47270942D01*
X31916086Y47270942D02*
X31725610Y47175704D01*
X31725610Y47175704D02*
X31630372Y47080466D01*
X31630372Y47080466D02*
X31535134Y46889990D01*
X31535134Y46889990D02*
X31535134Y46604276D01*
X31535134Y46604276D02*
X31630372Y46413800D01*
X31630372Y46413800D02*
X31725610Y46318561D01*
X31725610Y46318561D02*
X31916086Y46223323D01*
X31916086Y46223323D02*
X32677991Y46223323D01*
X30392277Y45270942D02*
X30582753Y45366180D01*
X30582753Y45366180D02*
X30677991Y45461419D01*
X30677991Y45461419D02*
X30773229Y45651895D01*
X30773229Y45651895D02*
X30773229Y46223323D01*
X30773229Y46223323D02*
X30677991Y46413800D01*
X30677991Y46413800D02*
X30582753Y46509038D01*
X30582753Y46509038D02*
X30392277Y46604276D01*
X30392277Y46604276D02*
X30106562Y46604276D01*
X30106562Y46604276D02*
X29916086Y46509038D01*
X29916086Y46509038D02*
X29820848Y46413800D01*
X29820848Y46413800D02*
X29725610Y46223323D01*
X29725610Y46223323D02*
X29725610Y45651895D01*
X29725610Y45651895D02*
X29820848Y45461419D01*
X29820848Y45461419D02*
X29916086Y45366180D01*
X29916086Y45366180D02*
X30106562Y45270942D01*
X30106562Y45270942D02*
X30392277Y45270942D01*
X28868467Y45270942D02*
X28868467Y47270942D01*
X28868467Y46318561D02*
X27725610Y46318561D01*
X27725610Y45270942D02*
X27725610Y47270942D01*
X26868467Y45366180D02*
X26582753Y45270942D01*
X26582753Y45270942D02*
X26106562Y45270942D01*
X26106562Y45270942D02*
X25916086Y45366180D01*
X25916086Y45366180D02*
X25820848Y45461419D01*
X25820848Y45461419D02*
X25725610Y45651895D01*
X25725610Y45651895D02*
X25725610Y45842371D01*
X25725610Y45842371D02*
X25820848Y46032847D01*
X25820848Y46032847D02*
X25916086Y46128085D01*
X25916086Y46128085D02*
X26106562Y46223323D01*
X26106562Y46223323D02*
X26487515Y46318561D01*
X26487515Y46318561D02*
X26677991Y46413800D01*
X26677991Y46413800D02*
X26773229Y46509038D01*
X26773229Y46509038D02*
X26868467Y46699514D01*
X26868467Y46699514D02*
X26868467Y46889990D01*
X26868467Y46889990D02*
X26773229Y47080466D01*
X26773229Y47080466D02*
X26677991Y47175704D01*
X26677991Y47175704D02*
X26487515Y47270942D01*
X26487515Y47270942D02*
X26011324Y47270942D01*
X26011324Y47270942D02*
X25725610Y47175704D01*
D15*
X32113693Y42329696D02*
X32198360Y42245029D01*
X32198360Y42245029D02*
X32452360Y42160363D01*
X32452360Y42160363D02*
X32621693Y42160363D01*
X32621693Y42160363D02*
X32875693Y42245029D01*
X32875693Y42245029D02*
X33045027Y42414363D01*
X33045027Y42414363D02*
X33129693Y42583696D01*
X33129693Y42583696D02*
X33214360Y42922363D01*
X33214360Y42922363D02*
X33214360Y43176363D01*
X33214360Y43176363D02*
X33129693Y43515029D01*
X33129693Y43515029D02*
X33045027Y43684363D01*
X33045027Y43684363D02*
X32875693Y43853696D01*
X32875693Y43853696D02*
X32621693Y43938363D01*
X32621693Y43938363D02*
X32452360Y43938363D01*
X32452360Y43938363D02*
X32198360Y43853696D01*
X32198360Y43853696D02*
X32113693Y43769029D01*
X31097693Y42160363D02*
X31267027Y42245029D01*
X31267027Y42245029D02*
X31351693Y42329696D01*
X31351693Y42329696D02*
X31436360Y42499029D01*
X31436360Y42499029D02*
X31436360Y43007029D01*
X31436360Y43007029D02*
X31351693Y43176363D01*
X31351693Y43176363D02*
X31267027Y43261029D01*
X31267027Y43261029D02*
X31097693Y43345696D01*
X31097693Y43345696D02*
X30843693Y43345696D01*
X30843693Y43345696D02*
X30674360Y43261029D01*
X30674360Y43261029D02*
X30589693Y43176363D01*
X30589693Y43176363D02*
X30505027Y43007029D01*
X30505027Y43007029D02*
X30505027Y42499029D01*
X30505027Y42499029D02*
X30589693Y42329696D01*
X30589693Y42329696D02*
X30674360Y42245029D01*
X30674360Y42245029D02*
X30843693Y42160363D01*
X30843693Y42160363D02*
X31097693Y42160363D01*
X29743026Y42160363D02*
X29743026Y43345696D01*
X29743026Y43176363D02*
X29658360Y43261029D01*
X29658360Y43261029D02*
X29489026Y43345696D01*
X29489026Y43345696D02*
X29235026Y43345696D01*
X29235026Y43345696D02*
X29065693Y43261029D01*
X29065693Y43261029D02*
X28981026Y43091696D01*
X28981026Y43091696D02*
X28981026Y42160363D01*
X28981026Y43091696D02*
X28896360Y43261029D01*
X28896360Y43261029D02*
X28727026Y43345696D01*
X28727026Y43345696D02*
X28473026Y43345696D01*
X28473026Y43345696D02*
X28303693Y43261029D01*
X28303693Y43261029D02*
X28219026Y43091696D01*
X28219026Y43091696D02*
X28219026Y42160363D01*
X27372359Y43345696D02*
X27372359Y41567696D01*
X27372359Y43261029D02*
X27203026Y43345696D01*
X27203026Y43345696D02*
X26864359Y43345696D01*
X26864359Y43345696D02*
X26695026Y43261029D01*
X26695026Y43261029D02*
X26610359Y43176363D01*
X26610359Y43176363D02*
X26525693Y43007029D01*
X26525693Y43007029D02*
X26525693Y42499029D01*
X26525693Y42499029D02*
X26610359Y42329696D01*
X26610359Y42329696D02*
X26695026Y42245029D01*
X26695026Y42245029D02*
X26864359Y42160363D01*
X26864359Y42160363D02*
X27203026Y42160363D01*
X27203026Y42160363D02*
X27372359Y42245029D01*
X25509692Y42160363D02*
X25679026Y42245029D01*
X25679026Y42245029D02*
X25763692Y42414363D01*
X25763692Y42414363D02*
X25763692Y43938363D01*
X24832359Y42160363D02*
X24832359Y43345696D01*
X24832359Y43938363D02*
X24917026Y43853696D01*
X24917026Y43853696D02*
X24832359Y43769029D01*
X24832359Y43769029D02*
X24747693Y43853696D01*
X24747693Y43853696D02*
X24832359Y43938363D01*
X24832359Y43938363D02*
X24832359Y43769029D01*
X23223692Y42160363D02*
X23223692Y43091696D01*
X23223692Y43091696D02*
X23308359Y43261029D01*
X23308359Y43261029D02*
X23477692Y43345696D01*
X23477692Y43345696D02*
X23816359Y43345696D01*
X23816359Y43345696D02*
X23985692Y43261029D01*
X23223692Y42245029D02*
X23393026Y42160363D01*
X23393026Y42160363D02*
X23816359Y42160363D01*
X23816359Y42160363D02*
X23985692Y42245029D01*
X23985692Y42245029D02*
X24070359Y42414363D01*
X24070359Y42414363D02*
X24070359Y42583696D01*
X24070359Y42583696D02*
X23985692Y42753029D01*
X23985692Y42753029D02*
X23816359Y42837696D01*
X23816359Y42837696D02*
X23393026Y42837696D01*
X23393026Y42837696D02*
X23223692Y42922363D01*
X22377025Y43345696D02*
X22377025Y42160363D01*
X22377025Y43176363D02*
X22292359Y43261029D01*
X22292359Y43261029D02*
X22123025Y43345696D01*
X22123025Y43345696D02*
X21869025Y43345696D01*
X21869025Y43345696D02*
X21699692Y43261029D01*
X21699692Y43261029D02*
X21615025Y43091696D01*
X21615025Y43091696D02*
X21615025Y42160363D01*
X21022358Y43345696D02*
X20345025Y43345696D01*
X20768358Y43938363D02*
X20768358Y42414363D01*
X20768358Y42414363D02*
X20683692Y42245029D01*
X20683692Y42245029D02*
X20514358Y42160363D01*
X20514358Y42160363D02*
X20345025Y42160363D01*
D16*
X34462500Y8225955D02*
X33785167Y8225955D01*
X34123833Y7887288D02*
X34123833Y8564621D01*
X32938500Y8776288D02*
X33361833Y8776288D01*
X33361833Y8776288D02*
X33404166Y8352955D01*
X33404166Y8352955D02*
X33361833Y8395288D01*
X33361833Y8395288D02*
X33277166Y8437621D01*
X33277166Y8437621D02*
X33065500Y8437621D01*
X33065500Y8437621D02*
X32980833Y8395288D01*
X32980833Y8395288D02*
X32938500Y8352955D01*
X32938500Y8352955D02*
X32896166Y8268288D01*
X32896166Y8268288D02*
X32896166Y8056621D01*
X32896166Y8056621D02*
X32938500Y7971955D01*
X32938500Y7971955D02*
X32980833Y7929621D01*
X32980833Y7929621D02*
X33065500Y7887288D01*
X33065500Y7887288D02*
X33277166Y7887288D01*
X33277166Y7887288D02*
X33361833Y7929621D01*
X33361833Y7929621D02*
X33404166Y7971955D01*
X32642166Y8776288D02*
X32345833Y7887288D01*
X32345833Y7887288D02*
X32049499Y8776288D01*
X31964833Y7802621D02*
X31287499Y7802621D01*
X31075833Y8776288D02*
X31075833Y8056621D01*
X31075833Y8056621D02*
X31033500Y7971955D01*
X31033500Y7971955D02*
X30991166Y7929621D01*
X30991166Y7929621D02*
X30906500Y7887288D01*
X30906500Y7887288D02*
X30737166Y7887288D01*
X30737166Y7887288D02*
X30652500Y7929621D01*
X30652500Y7929621D02*
X30610166Y7971955D01*
X30610166Y7971955D02*
X30567833Y8056621D01*
X30567833Y8056621D02*
X30567833Y8776288D01*
X30186833Y7929621D02*
X30059833Y7887288D01*
X30059833Y7887288D02*
X29848167Y7887288D01*
X29848167Y7887288D02*
X29763500Y7929621D01*
X29763500Y7929621D02*
X29721167Y7971955D01*
X29721167Y7971955D02*
X29678833Y8056621D01*
X29678833Y8056621D02*
X29678833Y8141288D01*
X29678833Y8141288D02*
X29721167Y8225955D01*
X29721167Y8225955D02*
X29763500Y8268288D01*
X29763500Y8268288D02*
X29848167Y8310621D01*
X29848167Y8310621D02*
X30017500Y8352955D01*
X30017500Y8352955D02*
X30102167Y8395288D01*
X30102167Y8395288D02*
X30144500Y8437621D01*
X30144500Y8437621D02*
X30186833Y8522288D01*
X30186833Y8522288D02*
X30186833Y8606955D01*
X30186833Y8606955D02*
X30144500Y8691621D01*
X30144500Y8691621D02*
X30102167Y8733955D01*
X30102167Y8733955D02*
X30017500Y8776288D01*
X30017500Y8776288D02*
X29805833Y8776288D01*
X29805833Y8776288D02*
X29678833Y8733955D01*
X29001500Y8352955D02*
X28874500Y8310621D01*
X28874500Y8310621D02*
X28832166Y8268288D01*
X28832166Y8268288D02*
X28789833Y8183621D01*
X28789833Y8183621D02*
X28789833Y8056621D01*
X28789833Y8056621D02*
X28832166Y7971955D01*
X28832166Y7971955D02*
X28874500Y7929621D01*
X28874500Y7929621D02*
X28959166Y7887288D01*
X28959166Y7887288D02*
X29297833Y7887288D01*
X29297833Y7887288D02*
X29297833Y8776288D01*
X29297833Y8776288D02*
X29001500Y8776288D01*
X29001500Y8776288D02*
X28916833Y8733955D01*
X28916833Y8733955D02*
X28874500Y8691621D01*
X28874500Y8691621D02*
X28832166Y8606955D01*
X28832166Y8606955D02*
X28832166Y8522288D01*
X28832166Y8522288D02*
X28874500Y8437621D01*
X28874500Y8437621D02*
X28916833Y8395288D01*
X28916833Y8395288D02*
X29001500Y8352955D01*
X29001500Y8352955D02*
X29297833Y8352955D01*
X27943166Y7887288D02*
X28451166Y7887288D01*
X28197166Y7887288D02*
X28197166Y8776288D01*
X28197166Y8776288D02*
X28281833Y8649288D01*
X28281833Y8649288D02*
X28366500Y8564621D01*
X28366500Y8564621D02*
X28451166Y8522288D01*
X35499666Y6574955D02*
X35584333Y6617288D01*
X35584333Y6617288D02*
X35711333Y6617288D01*
X35711333Y6617288D02*
X35838333Y6574955D01*
X35838333Y6574955D02*
X35923000Y6490288D01*
X35923000Y6490288D02*
X35965333Y6405621D01*
X35965333Y6405621D02*
X36007666Y6236288D01*
X36007666Y6236288D02*
X36007666Y6109288D01*
X36007666Y6109288D02*
X35965333Y5939955D01*
X35965333Y5939955D02*
X35923000Y5855288D01*
X35923000Y5855288D02*
X35838333Y5770621D01*
X35838333Y5770621D02*
X35711333Y5728288D01*
X35711333Y5728288D02*
X35626666Y5728288D01*
X35626666Y5728288D02*
X35499666Y5770621D01*
X35499666Y5770621D02*
X35457333Y5812955D01*
X35457333Y5812955D02*
X35457333Y6109288D01*
X35457333Y6109288D02*
X35626666Y6109288D01*
X35076333Y5728288D02*
X35076333Y6617288D01*
X35076333Y6617288D02*
X34568333Y5728288D01*
X34568333Y5728288D02*
X34568333Y6617288D01*
X34145000Y5728288D02*
X34145000Y6617288D01*
X34145000Y6617288D02*
X33933333Y6617288D01*
X33933333Y6617288D02*
X33806333Y6574955D01*
X33806333Y6574955D02*
X33721667Y6490288D01*
X33721667Y6490288D02*
X33679333Y6405621D01*
X33679333Y6405621D02*
X33637000Y6236288D01*
X33637000Y6236288D02*
X33637000Y6109288D01*
X33637000Y6109288D02*
X33679333Y5939955D01*
X33679333Y5939955D02*
X33721667Y5855288D01*
X33721667Y5855288D02*
X33806333Y5770621D01*
X33806333Y5770621D02*
X33933333Y5728288D01*
X33933333Y5728288D02*
X34145000Y5728288D01*
X33298333Y6532621D02*
X33256000Y6574955D01*
X33256000Y6574955D02*
X33171333Y6617288D01*
X33171333Y6617288D02*
X32959667Y6617288D01*
X32959667Y6617288D02*
X32875000Y6574955D01*
X32875000Y6574955D02*
X32832667Y6532621D01*
X32832667Y6532621D02*
X32790333Y6447955D01*
X32790333Y6447955D02*
X32790333Y6363288D01*
X32790333Y6363288D02*
X32832667Y6236288D01*
X32832667Y6236288D02*
X33340667Y5728288D01*
X33340667Y5728288D02*
X32790333Y5728288D01*
X30483166Y3950288D02*
X30186833Y3061288D01*
X30186833Y3061288D02*
X29890499Y3950288D01*
X29297833Y3526955D02*
X29170833Y3484621D01*
X29170833Y3484621D02*
X29128499Y3442288D01*
X29128499Y3442288D02*
X29086166Y3357621D01*
X29086166Y3357621D02*
X29086166Y3230621D01*
X29086166Y3230621D02*
X29128499Y3145955D01*
X29128499Y3145955D02*
X29170833Y3103621D01*
X29170833Y3103621D02*
X29255499Y3061288D01*
X29255499Y3061288D02*
X29594166Y3061288D01*
X29594166Y3061288D02*
X29594166Y3950288D01*
X29594166Y3950288D02*
X29297833Y3950288D01*
X29297833Y3950288D02*
X29213166Y3907955D01*
X29213166Y3907955D02*
X29170833Y3865621D01*
X29170833Y3865621D02*
X29128499Y3780955D01*
X29128499Y3780955D02*
X29128499Y3696288D01*
X29128499Y3696288D02*
X29170833Y3611621D01*
X29170833Y3611621D02*
X29213166Y3569288D01*
X29213166Y3569288D02*
X29297833Y3526955D01*
X29297833Y3526955D02*
X29594166Y3526955D01*
X28705166Y3950288D02*
X28705166Y3230621D01*
X28705166Y3230621D02*
X28662833Y3145955D01*
X28662833Y3145955D02*
X28620499Y3103621D01*
X28620499Y3103621D02*
X28535833Y3061288D01*
X28535833Y3061288D02*
X28366499Y3061288D01*
X28366499Y3061288D02*
X28281833Y3103621D01*
X28281833Y3103621D02*
X28239499Y3145955D01*
X28239499Y3145955D02*
X28197166Y3230621D01*
X28197166Y3230621D02*
X28197166Y3950288D01*
X27816166Y3103621D02*
X27689166Y3061288D01*
X27689166Y3061288D02*
X27477500Y3061288D01*
X27477500Y3061288D02*
X27392833Y3103621D01*
X27392833Y3103621D02*
X27350500Y3145955D01*
X27350500Y3145955D02*
X27308166Y3230621D01*
X27308166Y3230621D02*
X27308166Y3315288D01*
X27308166Y3315288D02*
X27350500Y3399955D01*
X27350500Y3399955D02*
X27392833Y3442288D01*
X27392833Y3442288D02*
X27477500Y3484621D01*
X27477500Y3484621D02*
X27646833Y3526955D01*
X27646833Y3526955D02*
X27731500Y3569288D01*
X27731500Y3569288D02*
X27773833Y3611621D01*
X27773833Y3611621D02*
X27816166Y3696288D01*
X27816166Y3696288D02*
X27816166Y3780955D01*
X27816166Y3780955D02*
X27773833Y3865621D01*
X27773833Y3865621D02*
X27731500Y3907955D01*
X27731500Y3907955D02*
X27646833Y3950288D01*
X27646833Y3950288D02*
X27435166Y3950288D01*
X27435166Y3950288D02*
X27308166Y3907955D01*
X26461499Y3061288D02*
X26969499Y3061288D01*
X26715499Y3061288D02*
X26715499Y3950288D01*
X26715499Y3950288D02*
X26800166Y3823288D01*
X26800166Y3823288D02*
X26884833Y3738621D01*
X26884833Y3738621D02*
X26969499Y3696288D01*
X30250333Y6066955D02*
X29573000Y6066955D01*
X29911666Y5728288D02*
X29911666Y6405621D01*
X28726333Y6617288D02*
X29149666Y6617288D01*
X29149666Y6617288D02*
X29191999Y6193955D01*
X29191999Y6193955D02*
X29149666Y6236288D01*
X29149666Y6236288D02*
X29064999Y6278621D01*
X29064999Y6278621D02*
X28853333Y6278621D01*
X28853333Y6278621D02*
X28768666Y6236288D01*
X28768666Y6236288D02*
X28726333Y6193955D01*
X28726333Y6193955D02*
X28683999Y6109288D01*
X28683999Y6109288D02*
X28683999Y5897621D01*
X28683999Y5897621D02*
X28726333Y5812955D01*
X28726333Y5812955D02*
X28768666Y5770621D01*
X28768666Y5770621D02*
X28853333Y5728288D01*
X28853333Y5728288D02*
X29064999Y5728288D01*
X29064999Y5728288D02*
X29149666Y5770621D01*
X29149666Y5770621D02*
X29191999Y5812955D01*
X28429999Y6617288D02*
X28133666Y5728288D01*
X28133666Y5728288D02*
X27837332Y6617288D01*
X27075332Y5728288D02*
X27583332Y5728288D01*
X27329332Y5728288D02*
X27329332Y6617288D01*
X27329332Y6617288D02*
X27413999Y6490288D01*
X27413999Y6490288D02*
X27498666Y6405621D01*
X27498666Y6405621D02*
X27583332Y6363288D01*
X35330333Y3399955D02*
X34653000Y3399955D01*
X34991666Y3061288D02*
X34991666Y3738621D01*
X33763999Y3061288D02*
X34271999Y3061288D01*
X34017999Y3061288D02*
X34017999Y3950288D01*
X34017999Y3950288D02*
X34102666Y3823288D01*
X34102666Y3823288D02*
X34187333Y3738621D01*
X34187333Y3738621D02*
X34271999Y3696288D01*
X33509999Y3950288D02*
X33213666Y3061288D01*
X33213666Y3061288D02*
X32917332Y3950288D01*
X32155332Y3061288D02*
X32663332Y3061288D01*
X32409332Y3061288D02*
X32409332Y3950288D01*
X32409332Y3950288D02*
X32493999Y3823288D01*
X32493999Y3823288D02*
X32578666Y3738621D01*
X32578666Y3738621D02*
X32663332Y3696288D01*
X33107833Y1410288D02*
X32811500Y521288D01*
X32811500Y521288D02*
X32515166Y1410288D01*
X31922500Y986955D02*
X31795500Y944621D01*
X31795500Y944621D02*
X31753166Y902288D01*
X31753166Y902288D02*
X31710833Y817621D01*
X31710833Y817621D02*
X31710833Y690621D01*
X31710833Y690621D02*
X31753166Y605955D01*
X31753166Y605955D02*
X31795500Y563621D01*
X31795500Y563621D02*
X31880166Y521288D01*
X31880166Y521288D02*
X32218833Y521288D01*
X32218833Y521288D02*
X32218833Y1410288D01*
X32218833Y1410288D02*
X31922500Y1410288D01*
X31922500Y1410288D02*
X31837833Y1367955D01*
X31837833Y1367955D02*
X31795500Y1325621D01*
X31795500Y1325621D02*
X31753166Y1240955D01*
X31753166Y1240955D02*
X31753166Y1156288D01*
X31753166Y1156288D02*
X31795500Y1071621D01*
X31795500Y1071621D02*
X31837833Y1029288D01*
X31837833Y1029288D02*
X31922500Y986955D01*
X31922500Y986955D02*
X32218833Y986955D01*
X31372166Y775288D02*
X30948833Y775288D01*
X31456833Y521288D02*
X31160500Y1410288D01*
X31160500Y1410288D02*
X30864166Y521288D01*
X30694833Y1410288D02*
X30186833Y1410288D01*
X30440833Y521288D02*
X30440833Y1410288D01*
X29424833Y521288D02*
X29932833Y521288D01*
X29678833Y521288D02*
X29678833Y1410288D01*
X29678833Y1410288D02*
X29763500Y1283288D01*
X29763500Y1283288D02*
X29848167Y1198621D01*
X29848167Y1198621D02*
X29932833Y1156288D01*
X27265833Y1410288D02*
X26969500Y521288D01*
X26969500Y521288D02*
X26673166Y1410288D01*
X26080500Y986955D02*
X25953500Y944621D01*
X25953500Y944621D02*
X25911166Y902288D01*
X25911166Y902288D02*
X25868833Y817621D01*
X25868833Y817621D02*
X25868833Y690621D01*
X25868833Y690621D02*
X25911166Y605955D01*
X25911166Y605955D02*
X25953500Y563621D01*
X25953500Y563621D02*
X26038166Y521288D01*
X26038166Y521288D02*
X26376833Y521288D01*
X26376833Y521288D02*
X26376833Y1410288D01*
X26376833Y1410288D02*
X26080500Y1410288D01*
X26080500Y1410288D02*
X25995833Y1367955D01*
X25995833Y1367955D02*
X25953500Y1325621D01*
X25953500Y1325621D02*
X25911166Y1240955D01*
X25911166Y1240955D02*
X25911166Y1156288D01*
X25911166Y1156288D02*
X25953500Y1071621D01*
X25953500Y1071621D02*
X25995833Y1029288D01*
X25995833Y1029288D02*
X26080500Y986955D01*
X26080500Y986955D02*
X26376833Y986955D01*
X25487833Y1410288D02*
X25487833Y690621D01*
X25487833Y690621D02*
X25445500Y605955D01*
X25445500Y605955D02*
X25403166Y563621D01*
X25403166Y563621D02*
X25318500Y521288D01*
X25318500Y521288D02*
X25149166Y521288D01*
X25149166Y521288D02*
X25064500Y563621D01*
X25064500Y563621D02*
X25022166Y605955D01*
X25022166Y605955D02*
X24979833Y690621D01*
X24979833Y690621D02*
X24979833Y1410288D01*
X24598833Y563621D02*
X24471833Y521288D01*
X24471833Y521288D02*
X24260167Y521288D01*
X24260167Y521288D02*
X24175500Y563621D01*
X24175500Y563621D02*
X24133167Y605955D01*
X24133167Y605955D02*
X24090833Y690621D01*
X24090833Y690621D02*
X24090833Y775288D01*
X24090833Y775288D02*
X24133167Y859955D01*
X24133167Y859955D02*
X24175500Y902288D01*
X24175500Y902288D02*
X24260167Y944621D01*
X24260167Y944621D02*
X24429500Y986955D01*
X24429500Y986955D02*
X24514167Y1029288D01*
X24514167Y1029288D02*
X24556500Y1071621D01*
X24556500Y1071621D02*
X24598833Y1156288D01*
X24598833Y1156288D02*
X24598833Y1240955D01*
X24598833Y1240955D02*
X24556500Y1325621D01*
X24556500Y1325621D02*
X24514167Y1367955D01*
X24514167Y1367955D02*
X24429500Y1410288D01*
X24429500Y1410288D02*
X24217833Y1410288D01*
X24217833Y1410288D02*
X24090833Y1367955D01*
X23921500Y436621D02*
X23244166Y436621D01*
X23032500Y521288D02*
X23032500Y1410288D01*
X23032500Y1410288D02*
X22693833Y1410288D01*
X22693833Y1410288D02*
X22609167Y1367955D01*
X22609167Y1367955D02*
X22566833Y1325621D01*
X22566833Y1325621D02*
X22524500Y1240955D01*
X22524500Y1240955D02*
X22524500Y1113955D01*
X22524500Y1113955D02*
X22566833Y1029288D01*
X22566833Y1029288D02*
X22609167Y986955D01*
X22609167Y986955D02*
X22693833Y944621D01*
X22693833Y944621D02*
X23032500Y944621D01*
X22228167Y1410288D02*
X22016500Y521288D01*
X22016500Y521288D02*
X21847167Y1156288D01*
X21847167Y1156288D02*
X21677833Y521288D01*
X21677833Y521288D02*
X21466167Y1410288D01*
X20619500Y521288D02*
X20915833Y944621D01*
X21127500Y521288D02*
X21127500Y1410288D01*
X21127500Y1410288D02*
X20788833Y1410288D01*
X20788833Y1410288D02*
X20704167Y1367955D01*
X20704167Y1367955D02*
X20661833Y1325621D01*
X20661833Y1325621D02*
X20619500Y1240955D01*
X20619500Y1240955D02*
X20619500Y1113955D01*
X20619500Y1113955D02*
X20661833Y1029288D01*
X20661833Y1029288D02*
X20704167Y986955D01*
X20704167Y986955D02*
X20788833Y944621D01*
X20788833Y944621D02*
X21127500Y944621D01*
X19772833Y521288D02*
X20280833Y521288D01*
X20026833Y521288D02*
X20026833Y1410288D01*
X20026833Y1410288D02*
X20111500Y1283288D01*
X20111500Y1283288D02*
X20196167Y1198621D01*
X20196167Y1198621D02*
X20280833Y1156288D01*
X26186333Y6066955D02*
X25509000Y6066955D01*
X25847666Y5728288D02*
X25847666Y6405621D01*
X25170333Y6617288D02*
X24619999Y6617288D01*
X24619999Y6617288D02*
X24916333Y6278621D01*
X24916333Y6278621D02*
X24789333Y6278621D01*
X24789333Y6278621D02*
X24704666Y6236288D01*
X24704666Y6236288D02*
X24662333Y6193955D01*
X24662333Y6193955D02*
X24619999Y6109288D01*
X24619999Y6109288D02*
X24619999Y5897621D01*
X24619999Y5897621D02*
X24662333Y5812955D01*
X24662333Y5812955D02*
X24704666Y5770621D01*
X24704666Y5770621D02*
X24789333Y5728288D01*
X24789333Y5728288D02*
X25043333Y5728288D01*
X25043333Y5728288D02*
X25127999Y5770621D01*
X25127999Y5770621D02*
X25170333Y5812955D01*
X24238999Y5812955D02*
X24196666Y5770621D01*
X24196666Y5770621D02*
X24238999Y5728288D01*
X24238999Y5728288D02*
X24281332Y5770621D01*
X24281332Y5770621D02*
X24238999Y5812955D01*
X24238999Y5812955D02*
X24238999Y5728288D01*
X23900333Y6617288D02*
X23349999Y6617288D01*
X23349999Y6617288D02*
X23646333Y6278621D01*
X23646333Y6278621D02*
X23519333Y6278621D01*
X23519333Y6278621D02*
X23434666Y6236288D01*
X23434666Y6236288D02*
X23392333Y6193955D01*
X23392333Y6193955D02*
X23349999Y6109288D01*
X23349999Y6109288D02*
X23349999Y5897621D01*
X23349999Y5897621D02*
X23392333Y5812955D01*
X23392333Y5812955D02*
X23434666Y5770621D01*
X23434666Y5770621D02*
X23519333Y5728288D01*
X23519333Y5728288D02*
X23773333Y5728288D01*
X23773333Y5728288D02*
X23857999Y5770621D01*
X23857999Y5770621D02*
X23900333Y5812955D01*
X23095999Y6617288D02*
X22799666Y5728288D01*
X22799666Y5728288D02*
X22503332Y6617288D01*
X21741332Y5728288D02*
X22249332Y5728288D01*
X21995332Y5728288D02*
X21995332Y6617288D01*
X21995332Y6617288D02*
X22079999Y6490288D01*
X22079999Y6490288D02*
X22164666Y6405621D01*
X22164666Y6405621D02*
X22249332Y6363288D01*
D11*
X65359000Y55047000D02*
X65359000Y54547000D01*
X65359000Y58547000D02*
X65359000Y58047000D01*
X63359000Y56797000D02*
X62109000Y56797000D01*
X62109000Y56297000D02*
X63359000Y56297000D01*
X62109000Y56547000D02*
X63359000Y56547000D01*
X62109000Y56797000D02*
X62109000Y56297000D01*
X61859000Y55047000D02*
X61859000Y54547000D01*
X61859000Y58547000D02*
X61859000Y58047000D01*
D17*
X65408980Y54797000D02*
G75*
G03*
X65409000Y58297000I-49979J1750000D01*
G01*
D11*
X65359000Y55047000D02*
G75*
G03*
X65359000Y58047000I0J1500000D01*
G01*
X65359000Y54547000D02*
G75*
G03*
X65359000Y58547000I0J2000000D01*
G01*
D17*
X61908980Y54797000D02*
G75*
G03*
X61909000Y58297000I-49980J1750000D01*
G01*
D11*
X61859000Y55047000D02*
G75*
G03*
X61859000Y58047000I0J1500000D01*
G01*
X61859000Y54547000D02*
G75*
G03*
X61859000Y58547000I0J2000000D01*
G01*
D18*
X51136020Y44021720D02*
X53569340Y46442340D01*
D11*
X54099037Y45185040D02*
G75*
G03*
X54099037Y45185040I-1802237J0D01*
G01*
D19*
X66674500Y19627000D02*
X66674500Y20389000D01*
X66674500Y20389000D02*
X62102500Y20389000D01*
X66623700Y19728600D02*
X62204100Y19728600D01*
X66623700Y20033400D02*
X62153300Y20033400D01*
X66623700Y20185800D02*
X62204100Y20185800D01*
X66623700Y20236600D02*
X62153300Y20236600D01*
D11*
X66468500Y25165000D02*
X62277500Y20974000D01*
X66341500Y21101000D02*
X62277500Y25038000D01*
X65833500Y24657000D02*
X62912500Y24657000D01*
X65325500Y21101000D02*
X64817500Y21101000D01*
X65325500Y21482000D02*
X65579500Y24530000D01*
X65325500Y21482000D02*
X65325500Y21101000D01*
X65325500Y21482000D02*
X63928500Y21482000D01*
X65325500Y24784000D02*
X65325500Y25292000D01*
X65325500Y25292000D02*
X65198500Y25292000D01*
X65198500Y25292000D02*
X65198500Y24784000D01*
X64817500Y21101000D02*
X64817500Y21355000D01*
X64563500Y23768000D02*
X64563500Y24149000D01*
X64563500Y24149000D02*
X63674500Y24149000D01*
X64563500Y25419000D02*
X64182500Y25419000D01*
X64563500Y25546000D02*
X64563500Y25419000D01*
X64436500Y24022000D02*
X63801500Y24022000D01*
X64182500Y25419000D02*
X64182500Y25546000D01*
X64182500Y25546000D02*
X64563500Y25546000D01*
X63674500Y23768000D02*
X64563500Y23768000D01*
X63674500Y24149000D02*
X63674500Y23768000D01*
X63420500Y21990000D02*
X63293500Y24022000D01*
X63293500Y24149000D02*
X62912500Y24149000D01*
X63293500Y24657000D02*
X63293500Y24149000D01*
X63166500Y24149000D02*
X63166500Y24530000D01*
X63166500Y24530000D02*
X63166500Y24403000D01*
X63166500Y24530000D02*
X63166500Y24403000D01*
X63166500Y24530000D02*
X63039500Y24530000D01*
X63166500Y24657000D02*
X63039500Y24276000D01*
X63039500Y24530000D02*
X63039500Y24149000D01*
X62912500Y24149000D02*
X62912500Y24657000D01*
D19*
X62204100Y19830200D02*
X66572900Y19830200D01*
X62153300Y19931800D02*
X66572900Y19931800D01*
X62153300Y20084200D02*
X66572900Y20084200D01*
X62153300Y20338200D02*
X66572900Y20338200D01*
X62102500Y19627000D02*
X66674500Y19627000D01*
X62102500Y20389000D02*
X62102500Y19627000D01*
D11*
X65579500Y24784000D02*
G75*
G03*
X63293500Y24784000I-1143000J-1143000D01*
G01*
D20*
X63547500Y21482000D02*
G75*
G03*
X63547500Y21482000I-127000J0D01*
G01*
D11*
X63822109Y21482000D02*
G75*
G03*
X63822109Y21482000I-401609J0D01*
G01*
X67994500Y29005500D02*
X60882500Y29005500D01*
X66216500Y32498000D02*
X60882500Y29005500D01*
X66153000Y31482000D02*
X66153000Y30402500D01*
X65772000Y30275500D02*
X65835500Y30275500D01*
X65772000Y30275500D02*
X65772000Y31291500D01*
X65708500Y30085000D02*
X65708500Y30212000D01*
X65200500Y30085000D02*
X65048100Y30085000D01*
X64438500Y36117500D02*
X67994500Y29005500D01*
X63841600Y32561500D02*
X62660500Y32561500D01*
X62660500Y32561500D02*
X64438500Y36117500D01*
X62216000Y31672500D02*
X62660500Y32561500D01*
X62216000Y31672500D02*
X62533500Y31672500D01*
X60882500Y29005500D02*
X62216000Y31672500D01*
X65772000Y30021500D02*
G75*
G03*
X66153000Y30402500I0J381000D01*
G01*
X66153003Y31482000D02*
G75*
G03*
X65963548Y31797925I-358053J50D01*
G01*
X65645000Y32117000D02*
G75*
G03*
X65961049Y31799358I794860J474820D01*
G01*
X65962500Y30148500D02*
G75*
G03*
X65835500Y30275500I-127000J0D01*
G01*
X65073499Y31735999D02*
G75*
G03*
X65770435Y31289656I850911J561361D01*
G01*
X65708563Y30084997D02*
G75*
G03*
X65769571Y30018956I63437J-2597D01*
G01*
X65772000Y30275500D02*
G75*
G03*
X65708500Y30212000I0J-63500D01*
G01*
X65200500Y30085001D02*
G75*
G03*
X65327466Y30211900I-63500J190499D01*
G01*
X65327499Y30212000D02*
G75*
G03*
X65326567Y30528826I-317499J157480D01*
G01*
X65010000Y30085000D02*
G75*
G03*
X64438415Y30845535I-855980J-48260D01*
G01*
X65327500Y30529500D02*
G75*
G03*
X64376208Y31290334I-1236980J-571500D01*
G01*
X65645000Y32117000D02*
G75*
G03*
X64058221Y32624821I-1120140J-767080D01*
G01*
X63841596Y32561465D02*
G75*
G03*
X64057416Y32623387I33004J292035D01*
G01*
X64438499Y30846997D02*
G75*
G03*
X63998775Y30973005I-1264699J-3583097D01*
G01*
X63041503Y31482003D02*
G75*
G03*
X63863962Y31035925I970347J807837D01*
G01*
X63041495Y31481996D02*
G75*
G03*
X62532801Y31672026I-444495J-413996D01*
G01*
D19*
X68368420Y46099440D02*
X67197480Y46302640D01*
X68365880Y45103760D02*
X67294000Y44908180D01*
X68365880Y46096900D02*
X68365880Y45111380D01*
D21*
X68228720Y46005460D02*
X67210180Y46185800D01*
X68226180Y45215520D02*
X67276220Y44997080D01*
D19*
X68216020Y45853060D02*
X67100960Y46099440D01*
D22*
X68216020Y45992760D02*
X68221100Y45205360D01*
D19*
X68073780Y45908940D02*
X68073780Y45258700D01*
D23*
X67758820Y45611760D02*
X66341500Y45672720D01*
D19*
X67603880Y43196220D02*
X67006980Y44059820D01*
X67581020Y48017140D02*
X66907920Y48730880D01*
X67560700Y47981580D02*
X66966340Y47128140D01*
D22*
X67438780Y43214000D02*
X66874900Y42675520D01*
D21*
X67423540Y43214000D02*
X66890140Y44047120D01*
D22*
X67418460Y48012060D02*
X66918080Y48545460D01*
D21*
X67408300Y47989200D02*
X66852040Y47138300D01*
D19*
X67299080Y46297560D02*
X66963800Y47130680D01*
D21*
X67248280Y44974220D02*
X66890140Y44090300D01*
X67179700Y46221360D02*
X66831720Y47087500D01*
D23*
X66961260Y45124080D02*
X66255140Y45251080D01*
D19*
X66925700Y48469260D02*
X66041780Y47747900D01*
X66895220Y48733420D02*
X65924940Y48017140D01*
X66874900Y42500260D02*
X67596260Y43193680D01*
D21*
X66869820Y48570860D02*
X66041780Y47918080D01*
D24*
X66862200Y42675520D02*
X66082420Y43206380D01*
D23*
X66773300Y47897760D02*
X65711580Y46790320D01*
X66722500Y43407040D02*
X65869060Y44428120D01*
X66712340Y44478920D02*
X66148460Y44958980D01*
D19*
X66686940Y47120520D02*
X67073020Y46122300D01*
X66681860Y47115440D02*
X67283840Y48024760D01*
D23*
X66636140Y46368680D02*
X66194180Y46208660D01*
X66460880Y46848740D02*
X66003680Y46559180D01*
D21*
X66072260Y43224160D02*
X65754760Y43018420D01*
D23*
X66046860Y43579760D02*
X65681100Y44341760D01*
D19*
X66041780Y43071760D02*
X66867280Y42507880D01*
X66036700Y47750440D02*
X65053720Y48243200D01*
X66029080Y43061600D02*
X65683640Y42840620D01*
D21*
X65980820Y47928240D02*
X65135000Y48334640D01*
D19*
X65960500Y48085720D02*
X65056260Y48464180D01*
X65950340Y45891160D02*
X65818260Y45068200D01*
X65813180Y45037720D02*
X65719200Y44867540D01*
X65813180Y45037720D02*
X65719200Y44867540D01*
D25*
X65726820Y43038740D02*
X65175640Y44461140D01*
D19*
X65706500Y44837060D02*
X65399160Y44570360D01*
X65645540Y42858400D02*
X64995300Y44527180D01*
X65589660Y44816740D02*
X65330580Y44478920D01*
X65526160Y46627760D02*
X65945260Y45896240D01*
D23*
X65462660Y47625980D02*
X65287400Y47267840D01*
D19*
X65221360Y44702440D02*
X64995300Y44527180D01*
D23*
X65028320Y47885060D02*
X64860680Y47275460D01*
D19*
X64972440Y49480180D02*
X65173100Y48454020D01*
X64962280Y49487800D02*
X63997080Y49487800D01*
D21*
X64883540Y49381120D02*
X64098680Y49381120D01*
X64875920Y49368420D02*
X65081660Y48354960D01*
D19*
X64654940Y47057020D02*
X65526160Y46627760D01*
D23*
X64512700Y48873120D02*
X64507620Y47359280D01*
D21*
X64116460Y49360800D02*
X63903100Y48342260D01*
D19*
X63997080Y49487800D02*
X63771020Y48316860D01*
D21*
X63903100Y48342260D02*
X63001400Y47892680D01*
D19*
X63857380Y44245240D02*
X63979300Y44529720D01*
X63839600Y46889380D02*
X64654940Y47049400D01*
X63781180Y48398140D02*
X62976000Y48060320D01*
D23*
X63763400Y47869820D02*
X63984380Y47184020D01*
D19*
X63720220Y44699900D02*
X63974220Y44534800D01*
X63697360Y44506860D02*
X63169040Y43125100D01*
X63654180Y44448440D02*
X63476380Y44570360D01*
X63476380Y44570360D02*
X63100460Y45281560D01*
D23*
X63336680Y44341760D02*
X62155580Y43328300D01*
X63336680Y44433200D02*
X63003940Y43701680D01*
D19*
X63329060Y46460120D02*
X63839600Y46889380D01*
X63306200Y42827920D02*
X63692280Y43808360D01*
D21*
X63268100Y43041280D02*
X63842140Y44481460D01*
D23*
X63222380Y44478920D02*
X62605160Y44151260D01*
X63176660Y47618360D02*
X63595760Y47031620D01*
D19*
X63100460Y45281560D02*
X63100460Y45799720D01*
X63095380Y45787020D02*
X63329060Y46460120D01*
X63095380Y48012060D02*
X62084460Y48685160D01*
D21*
X62988700Y47897760D02*
X62084460Y48532200D01*
D19*
X62958220Y43127640D02*
X62081920Y42507880D01*
D21*
X62930280Y43226700D02*
X63268100Y43041280D01*
D23*
X62902340Y44898020D02*
X62292740Y44791340D01*
D19*
X62777880Y43155580D02*
X63306200Y42827920D01*
D23*
X62307980Y46749680D02*
X62963300Y46383920D01*
X62247020Y47816480D02*
X63359540Y46749680D01*
D21*
X62147960Y47191640D02*
X61807600Y46254380D01*
X62145420Y44108080D02*
X61525660Y43221620D01*
X62094620Y42660280D02*
X62930280Y43226700D01*
D19*
X62094620Y42822840D02*
X62915040Y43351160D01*
D21*
X62084460Y48530220D02*
X61530740Y47984120D01*
X62079380Y42667900D02*
X61525660Y43214000D01*
D19*
X62079380Y48687700D02*
X61385960Y47996820D01*
X62071760Y42512960D02*
X61388500Y43203840D01*
D23*
X62066680Y46056260D02*
X62788040Y45908940D01*
D19*
X61995560Y47107820D02*
X61629800Y46239140D01*
D21*
X61807600Y46254380D02*
X60725560Y46025780D01*
D19*
X61746640Y44890400D02*
X60623960Y45101220D01*
D21*
X61739020Y45019940D02*
X62145420Y44108080D01*
D19*
X61675520Y43287660D02*
X62160660Y42756800D01*
X61642500Y44923420D02*
X62023500Y43942980D01*
D21*
X61530740Y47981580D02*
X62147960Y47191640D01*
D19*
X61380880Y47989200D02*
X62084460Y46998600D01*
D23*
X61256420Y45632080D02*
X62724540Y45545720D01*
D21*
X60725560Y45190120D02*
X61739020Y45019940D01*
X60725560Y46025780D02*
X60725560Y45190120D01*
D19*
X60692540Y45337440D02*
X61799980Y45113920D01*
X60608720Y46079120D02*
X60611260Y45121540D01*
D21*
X65325500Y44651640D02*
G75*
G03*
X65401700Y46505840I-889000J965200D01*
G01*
X63461140Y46348360D02*
G75*
G03*
X63831981Y44484001I1117598J-746760D01*
G01*
X65376300Y46531240D02*
G75*
G03*
X63450980Y46333120I-863600J-1061719D01*
G01*
D11*
X32556500Y41491500D02*
X20745500Y41491500D01*
X25698500Y50508500D02*
X24837440Y49888740D01*
X25698500Y50508500D02*
X24832360Y48392680D01*
D26*
X25317500Y50000500D02*
X24809500Y49111500D01*
D11*
X25317500Y50000500D02*
X24304040Y49362960D01*
D26*
X24809500Y49111500D02*
X24682500Y48603500D01*
X24682500Y48603500D02*
X24304040Y48095500D01*
X24428500Y49111500D02*
X19856500Y49111500D01*
X24304040Y48095500D02*
X24304040Y48476500D01*
X24304040Y48476500D02*
X24682500Y49362960D01*
D11*
X24304040Y48857500D02*
X24022100Y48509520D01*
D26*
X24304040Y49362960D02*
X23158500Y49362960D01*
X24174500Y47968500D02*
X23793500Y47460500D01*
X23920500Y48984500D02*
X24428500Y49111500D01*
X23793500Y47460500D02*
X23539500Y47079500D01*
X23793500Y47841500D02*
X23031500Y47206500D01*
X23539500Y47079500D02*
X22650500Y46190500D01*
X23158500Y47841500D02*
X23920500Y48222500D01*
X23158500Y49362960D02*
X22142500Y49492500D01*
D11*
X23120400Y49550920D02*
X20971560Y49746500D01*
D26*
X23031500Y47206500D02*
X22904500Y47333500D01*
D11*
X22917200Y48443480D02*
X24304040Y48857500D01*
D26*
X22904500Y46825500D02*
X22777500Y46952500D01*
X22904500Y47333500D02*
X22777500Y47333500D01*
D11*
X22848620Y46005080D02*
X22813060Y45969520D01*
D26*
X22777500Y46698500D02*
X22904500Y46825500D01*
X22777500Y46952500D02*
X22269500Y46952500D01*
X22777500Y47333500D02*
X21634500Y47206500D01*
X22650500Y46190500D02*
X22142500Y45809500D01*
X22650500Y48603500D02*
X23920500Y48984500D01*
X22421900Y47587500D02*
X23158500Y47841500D01*
X22269500Y46952500D02*
X21253500Y46698500D01*
X22142500Y45809500D02*
X21253500Y45555500D01*
X22142500Y46190500D02*
X22777500Y46698500D01*
X22142500Y49492500D02*
X20491500Y49492500D01*
D11*
X21995180Y47757680D02*
X21685300Y47696720D01*
D26*
X21812300Y47587500D02*
X22421900Y47587500D01*
X21634500Y46063500D02*
X22142500Y46190500D01*
X21634500Y47206500D02*
X20618500Y46952500D01*
X21507500Y48476500D02*
X22650500Y48603500D01*
X21380500Y48476500D02*
X21507500Y48476500D01*
X21253500Y45555500D02*
X20364500Y45555500D01*
X21253500Y45936500D02*
X21634500Y46063500D01*
X21253500Y46698500D02*
X20999500Y46698500D01*
D11*
X21050300Y48153920D02*
X21568460Y48227580D01*
D26*
X20999500Y46317500D02*
X22269500Y46571500D01*
X20999500Y46698500D02*
X20491500Y46444500D01*
D11*
X20943620Y45301500D02*
X20428000Y45301500D01*
D26*
X20872500Y48476500D02*
X21380500Y48476500D01*
D11*
X20745500Y44539500D02*
X32556500Y44539500D01*
D26*
X20618500Y45936500D02*
X21253500Y45936500D01*
X20618500Y46190500D02*
X20999500Y46317500D01*
X20618500Y46952500D02*
X19983500Y46444500D01*
X20491500Y46317500D02*
X20618500Y46190500D01*
X20491500Y46444500D02*
X20491500Y46317500D01*
X20491500Y49492500D02*
X19856500Y49111500D01*
X20415300Y47104900D02*
X21812300Y47587500D01*
X20364500Y45555500D02*
X19602500Y46063500D01*
X20237500Y46063500D02*
X20618500Y45936500D01*
X20237500Y48095500D02*
X20872500Y48476500D01*
X20110500Y48095500D02*
X19856500Y48603500D01*
X19983500Y46063500D02*
X20237500Y46063500D01*
X19983500Y46444500D02*
X19856500Y46317500D01*
D11*
X19889520Y45522480D02*
X19836180Y45575820D01*
D26*
X19856500Y46317500D02*
X19983500Y46063500D01*
X19856500Y48603500D02*
X19856500Y48857500D01*
X19856500Y48603500D02*
X19475500Y48095500D01*
X19856500Y48857500D02*
X24809500Y48933700D01*
X19856500Y49111500D02*
X19856500Y48857500D01*
X19856500Y49111500D02*
X19348500Y48603500D01*
D11*
X19775220Y47645920D02*
X19782840Y47651000D01*
D26*
X19729500Y46698500D02*
X20415300Y47104900D01*
X19729500Y48476500D02*
X21380500Y48476500D01*
D11*
X19602500Y44031500D02*
X19112280Y44521720D01*
D26*
X19602500Y46063500D02*
X19221500Y45936500D01*
D11*
X19475500Y43904500D02*
X18967500Y44666500D01*
X19475500Y44031500D02*
X19290080Y44216920D01*
D26*
X19475500Y47714500D02*
X20110500Y48095500D01*
X19348500Y48603500D02*
X19094500Y48095500D01*
X19221500Y45936500D02*
X18967500Y45682500D01*
X19221500Y46190500D02*
X19729500Y46698500D01*
D11*
X19130060Y46426720D02*
X18959880Y46238760D01*
X19117360Y45575820D02*
X18840500Y45301500D01*
D26*
X19094500Y48095500D02*
X18967500Y47079500D01*
X18967500Y45682500D02*
X19221500Y46190500D01*
X18967500Y47079500D02*
X19475500Y47714500D01*
D11*
X18921780Y48230120D02*
X18774460Y47630680D01*
X18840500Y44793500D02*
X18736360Y44686820D01*
X18840500Y45128780D02*
X18840500Y45174500D01*
X18817640Y45347220D02*
X18840500Y45301500D01*
X18716040Y46571500D02*
X18718580Y46574040D01*
X18716040Y46952500D02*
X18716040Y46571500D01*
X18205500Y45428500D02*
X17443500Y45428500D01*
X18205500Y45532640D02*
X18205500Y45555500D01*
X18205500Y45555500D02*
X18205500Y45809500D01*
X18205500Y45555500D02*
X17443500Y45555500D01*
X18205500Y45809500D02*
X18078500Y45809500D01*
X18131840Y46414020D02*
X18078500Y46508000D01*
X18086120Y44658880D02*
X17951500Y44793500D01*
X18078500Y45174500D02*
X18078500Y45047500D01*
X18078500Y45174500D02*
X17570500Y45174500D01*
X18078500Y45301500D02*
X18078500Y45174500D01*
X18078500Y45301500D02*
X17443500Y45301500D01*
X18078500Y45682500D02*
X18078500Y45301500D01*
X18078500Y45682500D02*
X17443500Y45682500D01*
X18078500Y45809500D02*
X18078500Y45682500D01*
X18078500Y45809500D02*
X17951500Y45809500D01*
X17951500Y44793500D02*
X18248680Y45212600D01*
X17951500Y45809500D02*
X17951500Y45174500D01*
X17951500Y45809500D02*
X17570500Y45809500D01*
X17938800Y44793500D02*
X17951500Y44793500D01*
X17649240Y44917960D02*
X17677180Y44890020D01*
X17570500Y45809500D02*
X17570500Y45301500D01*
X17570500Y45809500D02*
X17316500Y45809500D01*
X17357140Y47153160D02*
X16935500Y47333500D01*
X17316500Y45809500D02*
X17824500Y44920500D01*
X17316500Y45936500D02*
X18205500Y45936500D01*
X17316500Y46063500D02*
X18205500Y46063500D01*
X17316500Y46190500D02*
X18078500Y46190500D01*
X17316500Y46317500D02*
X18078500Y46317500D01*
X17265700Y45987300D02*
X17265700Y45994920D01*
X17189500Y44920500D02*
X16681500Y44920500D01*
X17189500Y46444500D02*
X18078500Y46444500D01*
X17189500Y46571500D02*
X17951500Y46571500D01*
X17062500Y45047500D02*
X16427500Y45047500D01*
X17062500Y46698500D02*
X17824500Y46698500D01*
X17062500Y46825500D02*
X17697500Y46825500D01*
X17037100Y44793500D02*
X17392700Y44793500D01*
X16935500Y45174500D02*
X16300500Y45174500D01*
X16935500Y45301500D02*
X16173500Y45301500D01*
X16935500Y46952500D02*
X17443500Y46952500D01*
X16935500Y47206500D02*
X16173500Y47206500D01*
X16935500Y47333500D02*
X15919500Y47714500D01*
X16884700Y45428500D02*
X16046500Y45428500D01*
X16859300Y45984760D02*
X16884700Y45593600D01*
X16808500Y45555500D02*
X16046500Y45555500D01*
X16808500Y45682500D02*
X16046500Y45682500D01*
X16808500Y45809500D02*
X16046500Y45809500D01*
X16808500Y45936500D02*
X16046500Y45936500D01*
X16808500Y46063500D02*
X16046500Y46063500D01*
X16808500Y46190500D02*
X16046500Y46190500D01*
X16808500Y46317500D02*
X16173500Y46317500D01*
X16681500Y46444500D02*
X16173500Y46444500D01*
X16681500Y46571500D02*
X16173500Y46571500D01*
X16681500Y47333500D02*
X16046500Y47333500D01*
X16554500Y47460500D02*
X16046500Y47460500D01*
X16427500Y47079500D02*
X17316500Y47079500D01*
X16427500Y47079500D02*
X16427500Y46571500D01*
X16300500Y47079500D02*
X16427500Y47079500D01*
X16300500Y47079500D02*
X16300500Y46571500D01*
X16234460Y45113540D02*
X16257320Y45090680D01*
X16173500Y47079500D02*
X16300500Y47079500D01*
X15919500Y47714500D02*
X16054120Y47176020D01*
X32556500Y41491500D02*
G75*
G03*
X34080500Y43015500I1J1523999D01*
G01*
X34080500Y43015500D02*
G75*
G03*
X32556500Y44539500I-1524000J0D01*
G01*
X23120400Y49550918D02*
G75*
G03*
X24835452Y49890978I447040J2240262D01*
G01*
X22848616Y46005084D02*
G75*
G03*
X24829964Y48387053I-6362116J7307116D01*
G01*
X21995180Y47757681D02*
G75*
G03*
X24022041Y48507722I-604580J4747419D01*
G01*
X21568460Y48227578D02*
G75*
G03*
X22910879Y48443314I-470060J7209422D01*
G01*
X20943620Y45301498D02*
G75*
G03*
X22809433Y45967487I127030J2590712D01*
G01*
X19221500Y43015500D02*
G75*
G03*
X20745500Y41491500I1524000J0D01*
G01*
X19889532Y45522492D02*
G75*
G03*
X20428000Y45299434I538468J538408D01*
G01*
X21050300Y48153920D02*
G75*
G03*
X19786630Y47653566I871300J-4046420D01*
G01*
X18840522Y45128780D02*
G75*
G03*
X19346478Y43904220I1734678J-80D01*
G01*
X18840484Y45301500D02*
G75*
G03*
X19288050Y44215942I1534216J-2500D01*
G01*
X20745500Y44539500D02*
G75*
G03*
X19221500Y43015500I0J-1524000D01*
G01*
X21685297Y47696733D02*
G75*
G03*
X19130974Y46427343I1099903J-5417933D01*
G01*
X19836180Y45575820D02*
G75*
G03*
X19117360Y45578360I-360680J-358120D01*
G01*
X18840479Y45174500D02*
G75*
G03*
X19108758Y44521790I921821J-2600D01*
G01*
X20971560Y49746500D02*
G75*
G03*
X18921236Y48233915I93980J-2273300D01*
G01*
X18959880Y46238760D02*
G75*
G03*
X18839654Y45301431I642620J-558800D01*
G01*
X18378220Y44539498D02*
G75*
G03*
X18735634Y44687546I-20J505502D01*
G01*
X19775225Y47645913D02*
G75*
G03*
X18720141Y46575735I2775875J-3791913D01*
G01*
X18774457Y47630681D02*
G75*
G03*
X18714261Y46953257I2990043J-607081D01*
G01*
X18086126Y44658886D02*
G75*
G03*
X18378220Y44537888I292074J292014D01*
G01*
X18248680Y45212600D02*
G75*
G03*
X18334374Y45656599I-1109980J444500D01*
G01*
X17951491Y44920509D02*
G75*
G03*
X18205055Y45531129I-611991J612091D01*
G01*
X18332499Y45657100D02*
G75*
G03*
X18132293Y46412179I-1523999J0D01*
G01*
X17649224Y44917944D02*
G75*
G03*
X17953288Y44791708I304676J304556D01*
G01*
X17265677Y45987301D02*
G75*
G03*
X17675840Y44890454I1529123J-53301D01*
G01*
X16884695Y45593599D02*
G75*
G03*
X17386840Y44797887I1211605J208301D01*
G01*
X18078513Y46508007D02*
G75*
G03*
X17356500Y47151988I-1323213J-756807D01*
G01*
X16838979Y44816356D02*
G75*
G03*
X17038427Y44792197I198121J800244D01*
G01*
X16257334Y45090697D02*
G75*
G03*
X16836997Y44817047I784966J912003D01*
G01*
X17265699Y45994920D02*
G75*
G03*
X16758520Y47026319I-1498599J-96520D01*
G01*
X16859269Y45941579D02*
G75*
G03*
X16505295Y46932434I-1762769J-71079D01*
G01*
X15919519Y45870460D02*
G75*
G03*
X16233446Y45112526I1071781J-60D01*
G01*
X15990614Y46238763D02*
G75*
G03*
X16054648Y47173364I-1414914J566437D01*
G01*
X15990636Y46238754D02*
G75*
G03*
X15919783Y45870013I921564J-368254D01*
G01*
D27*
X36685000Y22790400D02*
X36100800Y22218900D01*
X36685000Y24758900D02*
X36685000Y24517600D01*
X36685000Y24809700D02*
X36177000Y25317700D01*
X36672300Y22777700D02*
X36672300Y23539700D01*
X36113500Y22218900D02*
X35072100Y22218900D01*
X35084800Y25393900D02*
X34449800Y24784300D01*
X35084800Y25406600D02*
X36088100Y25406600D01*
X34475200Y22828500D02*
X35034000Y22244300D01*
X34462500Y24797000D02*
X34462500Y22866600D01*
D28*
X33611600Y25749500D02*
X33611600Y22599900D01*
X33598900Y25749500D02*
X33611600Y25749500D01*
X33586200Y25749500D02*
X33598900Y25749500D01*
X33471900Y25660600D02*
X33535400Y25673300D01*
D27*
X33306800Y22676100D02*
X33306800Y25406600D01*
D28*
X33306800Y25749500D02*
X33586200Y25749500D01*
X33294100Y25749500D02*
X32989300Y25749500D01*
X33167100Y25673300D02*
X33052800Y25673300D01*
X32989300Y25749500D02*
X32989300Y22714200D01*
D27*
X32849600Y22231600D02*
X33306800Y22688800D01*
X31863800Y22231600D02*
X32849600Y22231600D01*
D28*
X31668500Y23044400D02*
X31058900Y23044400D01*
X31668500Y25063700D02*
X31668500Y23044400D01*
X31528800Y23107900D02*
X31592300Y23107900D01*
D27*
X31351000Y24949400D02*
X31351000Y23349200D01*
D28*
X31185900Y23107900D02*
X31097000Y23107900D01*
X31058900Y23044400D02*
X31033500Y23044400D01*
X31033500Y23044400D02*
X31033500Y25063700D01*
X30449300Y22701500D02*
X30449300Y25686000D01*
X30449300Y25698700D02*
X29204700Y25698700D01*
X30296900Y25635200D02*
X30373100Y25635200D01*
D27*
X30131800Y22790400D02*
X30131800Y25381200D01*
X30131800Y25381200D02*
X29293600Y25381200D01*
X29293600Y25381200D02*
X28684000Y24873200D01*
D28*
X29204700Y25698700D02*
X28620500Y25216100D01*
D27*
X28582400Y24085800D02*
X28582400Y24797000D01*
X28506200Y24873200D02*
X27871200Y25381200D01*
D28*
X27960100Y25698700D02*
X28582400Y25203400D01*
X27934700Y25698700D02*
X27960100Y25698700D01*
D27*
X27871200Y25381200D02*
X26982200Y25381200D01*
X26969500Y25393900D02*
X26969500Y22790400D01*
D28*
X26791700Y25622500D02*
X26690100Y25622500D01*
X26639300Y22676100D02*
X26639300Y25686000D01*
X26639300Y25686000D02*
X26639300Y25698700D01*
X26639300Y25698700D02*
X27934700Y25698700D01*
D27*
X25712200Y22663400D02*
X25280400Y22231600D01*
X25712200Y24898600D02*
X25712200Y22663400D01*
X25712200Y24924000D02*
X25229600Y25432000D01*
X25280400Y22231600D02*
X23959600Y22231600D01*
D28*
X25267700Y25736800D02*
X23896100Y25736800D01*
D27*
X25181500Y25406600D02*
X23959600Y25406600D01*
X24493000Y23831800D02*
X25712200Y23831800D01*
X23959600Y22231600D02*
X22816600Y23349200D01*
X23959600Y25406600D02*
X22867400Y24339800D01*
D28*
X23896100Y25736800D02*
X23845300Y25736800D01*
X23845300Y25736800D02*
X22588000Y24492200D01*
D14*
X22842000Y24225500D02*
X22283200Y24225500D01*
X22816600Y23450800D02*
X22283200Y23450800D01*
D27*
X21470400Y22536400D02*
X22308600Y23349200D01*
X21419600Y25216100D02*
X22283200Y24322400D01*
D24*
X37009747Y24035000D02*
G75*
G03*
X37009747Y24035000I-337447J0D01*
G01*
X31717324Y22257000D02*
G75*
G03*
X31717324Y22257000I-366324J0D01*
G01*
X31711818Y25482800D02*
G75*
G03*
X31711818Y25482800I-373518J0D01*
G01*
X30478759Y22282400D02*
G75*
G03*
X30478759Y22282400I-359659J0D01*
G01*
X28953318Y23552400D02*
G75*
G03*
X28953318Y23552400I-370918J0D01*
G01*
X27332729Y22269700D02*
G75*
G03*
X27332729Y22269700I-363229J0D01*
G01*
X24344659Y23831800D02*
G75*
G03*
X24344659Y23831800I-359659J0D01*
G01*
X21469666Y22180800D02*
G75*
G03*
X21469666Y22180800I-329466J0D01*
G01*
X21410735Y25571700D02*
G75*
G03*
X21410735Y25571700I-359435J0D01*
G01*
M02*
